<?xml version="1.0" encoding="UTF-8"?>
<svg id="anne_arundel" data-name="anne arundel" xmlns="http://www.w3.org/2000/svg" viewBox="0 0 348.713 249.709">
  <defs>
    <style>
      .cls-1 {
        fill: #fff;
        fill-rule: evenodd;
      }
    </style>
  </defs>
  <g id="Anne_Arundel" data-name="Anne Arundel">
    <path class="cls-1" d="M186.435,18.621l2.64,3.157-.43.289.51.491.49.717.1.541.55.616.34.088.18.478-.06.616.46,1.534.36,1.484.02.553-.64.063-.64.34-.35.667-.27.264-.61.214-.85-.075-.67.101-.36-.34-.04-.604-.72-1.182-.13.654.4.277.16,1.094.39.327-.24.704-.5.138-.41-.302-.27.138.52.453-.1.314-.7-.277-.57.138.24.327-.22.591-.56-.302-.22.164-.28.616-.35-.428-.83-.277-.38.05-.49-.239-1.76-.201-.36.553.35.075,1.04-.34.91.44.23.277-.04.503.98-.39.47.377.84.314,1.29-.755.21-.239h.58l.63-1.044.64-.264.04-.566.69-.189.77.126.42-.34.18.327-.34.252.02.44-.37.352-.07.39-.32.453.08.465-.3.478-.08.604-.29.126.15.591-.73.868.47.679-.53.402-.59.667v.402l.23.39.06.654-.61.264-.59.478.13.579-.53.679-.88.277-1.09.729.06.717-.18.491-.53.579.23.528-.48.83.01.717.42-.075v-.704l.24-.352-.12-.818.53-.365.05-.503.78-.616h.38l-.01-.717,1.07-.075.53-.516-.01-.579.92.189.26-.314-.09-.34-.52-.252.32-.604.46-.453.55-.352.01-.755-.36-.314.33-.591.53-.491-.13-.377.09-.465-.16-.566.17-.201.63-.189.33-.428-.21-.516.61-.264.76.579.44.088-.35-1.031.39-.868-.97-.252.65-.428.23-.365.48-.289.5.352.24-.063-.12-.704-.32-.39.04-.717,1.19-.994v-.742l.21-.365.5-1.522.29-.201.12-.591.51.075.4-.541-.62.025-.61.226-.55,1.094-1.33-.641-.6-1.031-.07-1.119-.7-.189-.24-.931,9.8,3.735,5.44-4.226-.22.704-.01.968.97.503.46.528.49.931.44,1.182.11.528-.3.239-1.62.44-.12,1.207,1.09,1.597.22.075.46.855.19.151.35.742.31,1.019-.07.164.4,1.207.4.352-.14.277-.65.289-.68-.063-.33.101.01.39.29.566-.33.138-.3-.239.01-.528-.51-.189-.23.528-.88.767.22.151.59-.05.54-.491.41.868.9-.855.82-.503.5.025.23-.214-.18-.528.23-.252,1.35.818.69,1.069.02.39-1.05.101-.5-.063-.58.277-.39.641.17.629-.14.465-.9.352.13.742-.32.491-1.53-.226-.26-.189.2-.906-.21-.755-.6-.528-.4.164.06.516.43.692.08.704-.56.365-.66-.541-.72-.138-.33-.553-.21.189.16.491-1.27-.151-.34.314-.4-.101-.78.377-.44-.428-.57.101-.35.478.76-.025.4.591.69-.138.69.176.7-.453.47.013.36.402.48.138.32.327.48.138.94-.05.4-.239.71.893-.37.566-.91.113.2.415-.01.818-.72.151-.42-.252-.45-.553-.52-.075-.58.138.72.365.6,1.107-.72.264-.23.415-.78.05-.44-.151-.21.239-.64-.138-.65.39-.21.604-.67-.365-.24-.377-.5-.252-.55-.038.12.465.57.163.07.327.66.377.01.641h-.41l-.53-.252-.7.553-.56-.013-.09.415-.78.717.31.402.41-.239.24-.415.38.101-.1.742.47-.252.1-.314-.21-.491,1-.428,1.5-.038.07-.742.24-.616.9-.226.25.289.56-.314.99.453.32-1.082.6.176.53-.289.45-.843,1.19.138.03-.402-.42-.906.69-.352.35-.327,1.07.214.12-.34-.34-.302.26-.44.36-1.371.78.314.04-.893.8-.44.15-.34.02-.755.72.176,1.47-.994.33-.616-.02-.277-.39-.516.13-.151,1.27,1.019.73.755.12.402-.19.465.33.553.43-.478.41.201,1.01,1.635.11.39-.16.742-.68.956-.69.289-.29.377-.1.641-.45-.226-.73.264-.4.302-.64-.126-.11.491-.6.113.24.365.1.704-.42.239-.24.591-.6.717-.5.025-.28,1.031-.59.176-.2.352.11.453-.4.44v.453l-.5.704.26.05.44-.478.12-.541.34-.088.27-.579.07-.465.62-.075.19-.289-.07-.453.46-.038.42.453.29-.138-.13-1.17.38-.025.06-.503.59-.692.14-.44.41-.415.46.252-.61.641.37.528.38-.252.7.981.58-.075-.23-.365.33-.44-.1-.201.43-.377.74-.151.25-.302.88.138.25.365,1.16.302.49.591.33-.164-1.33-1.145-.44-.063.08-.352-.39-.415-.64-.365-.3-.491,1.08.088,1.04-.075,1.39-.44.48-.478.37-.075.35.516.7.063.31-.641-.57-.289-.64-.05-.08-.44.79-1.031-.29-.189.37-.553.42-.365.07-.289.76-.415.5-.516.57-.164.39.176.24.39v.893l.42,1.421.43.956.97,1.384,1.55,1.61h.18l1.37.968,1.6,1.22.68.415,1.28.994,2.11,1.119.22.063,1.12.717.99.906.2.767-.85.641-.77.327-.19-.528-.61.616-.65-.277-.6.314-.15.402-.95-.176-.41-.264-.92.038-.9.604-.39-.302-.31.025-.39-.264-1.84-.44-.07.34.64.176.55.39.38-.063.66.566.39.025.35.478.64-.44.85-.226.32-.277.95.579.37-.151.36.189.62-.528.88,1.094-.8.075-.72-.528-.95.226-.32.277-.79-.314-.46.239-.6.805-.68-.516h-1.32l-.93-.365-.12.805-.49-.201-.52.415-.3-.038-.52.252-.68-.189-.3.415-1.09-.164-.35.629-1.02-.05-.45.252,1.18.101.24.201.51-.541.6-.075,1.06.616.35-.428.65-.163.41.138.25-.365.51-.252.34.113.22-.541.3.126.83-.05.15.453.43-.088.17.654-.28.226.08.893.39-.943.81-.101.13.679.36-1.031.63-.516.56.541.37-.289.37-.692.25.289.06,1.924.71-.843.05,1.119-.11.541.37.729-.01.34-.73.314-.42.327.58.151,1.15-.88.73.516.58.164.39.465.2-.289-.7-.44-.23-.528-1.17-.516.32-.465-.15-.189.35-.629.92-.063.17.516.76-.126.11-.566-.7-.541-.18-.365.1-.729.73-.729.29-.692-.26-.792.23-.088.66.239,1.15.138.32-.39h.39l-.13.641-.41,1.119-.17.931-.1,1.446.01.868.41.478-.28.377.02.956-.11,1.698-.12.415.18,1.082.36,1.27.8,1.949.38,1.409.64,1.975.03.226.87,2.365.19.83.42,1.283.17.868-.06.629.09.641-.07,1.019-.33,1.22-.63,1.056-.09.516-.32.264-.57.906-.06.503-.41.805-.13.566-.39.667-.35.075-.33.855-.34.252.18-1.321-.25-.541-.97-1.182-.87-1.522-.42-.566-.25-.088-.59-.566-.51-.918-.17-1.031.09-.528-.61-3.094.15-.566.68-.78.48.214.54-.893.96-.742.25.604-.13.491.05.553.36.428,1.26-.579.79-.629.19.428-.99.616-.32.629.09.377-.75.101-.66.516,1.07.667.3.088.46-.239-.01-.478.26-.679.83.616.29.352.25-.239.74.302.63.126.29-.767-.27-1.006-.32-.352-.54.101-.21-.528.05-.868-.12-.252-.88-.478-.52-.189-.26.101-.72-.428-.73-.038.08-.994-.32.189-.16.654-.67-.277-.21-.516.22-.428-.09-.314-.54-.604-.53-.176-.12-.818-.49-.289-.05-.604-.63-.428-.51.164-1.29-.566-.04.151.83.604.09.679.28.189-.02.39.59-.013.14.679.41.478.99.189.21.465.09.742-.18.314-.88-.39-.75-.541-.66-.252-.59-.075.06-.352-.39-.239-.33.113.36.566-1.95.201-.38.252-.17-.604-.39.088.48.528-.27.277.1.805-.12.591.39.78-.49.289-.72.176-.27-.566-1.06.264-.82-.931-.17-.805-.7-1.245-.22.365-.02.579.57.302.27.843-.15.226-.62-.39-.75.063.62.453.01.742.23.352.53-.352.11.34.81.063-.29.553-.03.616-.41.164-.69-.013.14.428.32.264-.38.352-.54.013-.11.692-.78.038-.36-.327.27-.415.05-.402-.66-.541-.36.05-.16.704.18.34-.18.717-.46.025.35-.553-.29-.767-.55.013-.61-.893.72-.088.28-.302.43.113.3-.176-.22-.918-.59-.252-.26.314-.66.176-.53.013-.59.402.02.918-.51.302-.09.503-.47,1.069-.65-.44-.38-.088-.55.189-.47.579-.23.591-1.1-1.195.05-.566.55-.478.1-.302.49-.579.83-.038v-.44l-.66.126-.83.918-.57.126-.11-.604-.52-.365-.06-.616-.31-.214-.62.239.08.692.51-.101.09.528-.23.113v.491l.53.34-.34.516.11.667-.83.44-.54.503-.48.101-.61-.717.11-.34.43.126.28-.591-.15-.717-.34-.214-1.01-.038-.35-.39-.25.453-.68-.176-.02-.453.21-.377-.17-.402-.7-.151-.79.34.06-.553.49-.402.49.113.25-.189-.26-.39-.58.013-.63.667.07.352-.45.138-.97.855-.12-.415-.36-.05-.34-.34-.32.063-.24-.616-.56-.189.39-.956-.01-.755.26-.063v-1.195l.81-.692.01-.252,1.31-.503-.64-.239-.68.176-.31.516-.72.591-.28.579.03.352-.3.377.02.641-.45-.038-.17-.767-.23-.302-.46-.126-.28-.302-.33-.893.11-.868-.4-.163.27-.717-.01-.88-.72-.591-.29-.579.01-.39-.36-.176-.9.075-.87-1.019-.5-.239.26-.767-.21-.226-.36-.818-.34-.038-.17-.314-.42.302.74.528-.17.478.35.629.41.428.06.314,1.07,1.182,1.08.491.72,1.082-.31.428.26.214-.1.39.31.641-.1.214.21.591-.22.214-.5-.314-.69.063-.04-.302-.6.126-.91-.113.04.201.59.239.65-.088.14.34.76-.176.41.868.19.88.37.113.5-.138.62.365.2.415.41.365-.27.289-.24.767-.52-.352-.54.088-1.27-.277-.09.314-.56-.075-.24-.252-.33.868-.44.402-.18-.138-1.06.289-.59-.679-.31.415.43.088.48.44.28-.176,1.11.063.42-.075.43-.503-.07-.39.57.138.31-.113.91.415.63-.264.24.692.41.302,1.13-.05.04.289.44.214.13.491.48.415.66.025.69-.176.21.352-.16.667.06.616-.16.792-.52-.138-.41-.491-.2.163.13.453-.24.264-.1.604-1.21.39-.69-.101.24.579-.38.792-.5-.138-.38.163.05.377-.87,1.031-.06.44.09.931.34-.226-.1-.704.62-.566.59-1.006h.36l.47-.264-.02-.428.26-.327h.32l.23-.302.52-.189.44.528,1.24.126.42.44.18.692-.29.239-.32.629-.32.931-.5.402-.16.579-.57-.013-.33-.327-.92.314.53.239.29-.113.76.478.03.667-.5.189-.13.289.9-.101.32-.44.26-.063-.34-.692.21-1.107.31.075.57-.428.41-.553.08-.453.36.126,1.03.742-.48.792.57.063-.27.679h.56l.37.34-.07-.88-.41-.692.08-.377-1.04-1.321.4-1.056.35-.252,1.03-.038.41.226.62.05.61-.302.43-.063.03.503.3.579.77.667.37.667-.28.553-.43.151.25.629.76-.327-.26-.44.12-.201.64.101.88-.113.5.138.59,1.371-.21.39-.42.126-.61.843.98-.025.15-.327.41.075-.34.465.15.302-.2.654.41.679.2-1.233.38-.616-.13-.692.46-.566.17-.415.76-.906.94-.616.51,1.799-.25,1.17.31-.075.16-.44,1.09-.516.45.05.41.252.58.679.61.226.74.101,1.17-.34.85-.138,1.04.176.32.44-.39.327.37.453.27-.239-.03-.667.74.428.76.843.31.918-.45.717-.66.365-.19.264-1.18-.214.44.377v.491l-.46.428-.53.113-.25.604-.7.579.27.314.91-.843,1.05-.491.38-.667.59-.088.42-.553.76.138.71-.05.97-.44,2.12-.503,1,.314.52.566.32.528.54.591,1.2,1.044.29.189-.15.641-.61-.025-.52.704-.4-.101-.21.428.49.038.3.478-.33.138.12.516.44.201-.39,1.409-.27.465-.57-.063.22.491.42.013.57-.553.16-.729.6-.264-.26-.302.01-.805.43-.742-.08-.44.55-.402.12-.616-.38-.088.21-.44,1.27.893.25.025,1.83.943.76.654.94.604,1.92,1.459.1.226,1.01.918.35,1.031.81.742.3.428.08.818.83.792.33.956-.22.289.26.579-.11.88.49.088-.07.327.5.679-.09.491.43,1.145-.28.528-1.85.805-.62.478-.32-.189.21-.893.29-.151.36-.528-.09-.566-.98-.767-.65.39-.04.478.31.516.44.075.11.352-.09.931-.25.44-.54.478v.289l-.5.239-.77.868-.59.491-.24-.616-.75-.025-.38.164.55.855-.29.34.09.516-.27.377-.02.453-.73.126-.04.428,1.1-.239-.15.805-.47-.113-.72.289-.91.226-.45-.013-.44.465.02.704.25.415.01.528.28.327-.5,1.119-.54.075-.86-.214-.21-.39v-.704l.69-.88.38-.264.28-1.044.16-1.22.15-.453-.04-.465-.75-.843-.03-.39.73-.101.39.289.29-.402.34-.918-.59-.579-.22-.566.36-.428.75-.314.63.163.23-.818.33-.428-.24-.528.22-.918-.01-.692-.54-1.17-.11.654.42.742-.23.44-.03.465-.2.239.21.654-.26.805-.49-.013-.99.352-.52.792.02.692.5.704-.53.289-.83-.088-.39.679.37.491-1.12-.151-.42-.252-.62-1.069-.05-.44.46-.365v-1.006l-.7-.767-.02-.566.51-1.119-.89.428-.29-.264.16-.83.66-.289.4-.415-.22-.629.16-.692-.4.176-.32-.641-.61-.302-.2.415-.98.063-.67-.075-.89-.818-.02.314.93,1.031.55.126.82-.075.56-.239.63.767-.6.843-.53.503.14.541-.1.528.16.44-.94-.088-.74-.314-.48.088-.45-.138-.62-.755-.12-.591-.34.189-.49-.465-.07.478.66.314.48.654.07.402.74.402.64-.088.66.352.85.264.24.415.11.667.26.327-1.48.641.44.138.56-.34.41.365-.26.34-.05.654.52.365-.17.39.27.667.41.025-.16.516-.43.805-.32.201-.73.189-.46-.176-.1-.566-.4.252-.1.302-2.08.541-.31-.327-.5.201h-.68l-.16-.478.31-.05.19-.629.47-.151.17-.654h-.33l-.61.629-.44-.101.52-1.195.04-.604-1,1.396.04.553-.16.465-.52-.541.09-.39-.23-.402.19-.629-.39-.465.11-.453-.28-.654.33-.503.07-.377-.37-.604-.56-.013-1.44-.629-.08-.44-.56-.365-.71.038-.29-.491-.43-.34-.84-.075-.58-.34.01.44.38.277.38-.113.47.201.46.78.37.226.44-.138.42.302v.428l.76.428.45.402.19.465.59.44-.18.252.19.855-.69-.138-.26-.579-.67-.063-.53.352.98.025.04.428.44.415.15.453h.65l-.44.616.4.579-1.11.314.65.138.81.868.89.541.14.591-.26.05-.22.428.94-.038.69-.352.02.792.37,1.094.14,1.119-.1,1.321-.12.491-.62,1.044.2.491-.29.541-1,.893-.31-.113-.01-.704-.22-.742.4-.541.12-1.157-.57-.717-.3-.214-.23-.855.21-.553-.61-.604.01-.503-.56-.843-.58.151.79.667.02.78.35.428.03,1.157-.85.163v.553l-.61.151-.25.604-1.07-.39.21-.528-.27-.591-.83.465-.31.365-.92-.553-.47-.704-.5-.566.01-1.346-.31-.226-1-.063-.39-1.019-.78-.805-.76-.088-.52.088.23-.591-.15-1.723-.45-.44-.34-.566-.33-.994-.26-.352.42-.365-.14-.516-.34.113-.2.742-.87.34-.52-.34-.96-.918-.31-.604.5-.226-.27-.415-.35-.075-.35.566-.52.164-.34-.277-.6.101-.4-.679-.22-.767.81-.176.19-.491-.64.163-.35-.176-.8.541-.27-.101-.18-.503-.79-.591-.85.151-.23-.553-.32-1.572,1.02-.126.4.189.37-.553-.08-.352-.79.214-.65-.566.05-.717.32-.402.15-.553-.22-.113-.56,1.157-.43.189.06.968-.58.088-.14.314-.66.239-.3-1.534-.8-.679-.53-.075.27-.755.1-1.283.38-.314.18-.516.51-.113-.24-.541-.49.453-.69-.264-.41.101-.33-.252-.52-.755-.23-.138-.8-.101.91-.805.21-.591.77.025.01-.541-.86-.025-.4-.138-.25.428-.66.453-.39-.566-.57.176.08.516-.46-.088-.25-1.006.03-1.283.24-1.409.42-.516.01-.641-.28-.402-.98.264-.28-.629-.24-1.031.02-.654-.17-1.082-.31-.528-.39-.302-.75-.264-.92-.164-.31-1.258-.15-.893-.11-1.27-.33-.151-.61.013-.32.201.03.39-.27.78-.53.44-.25-.201-.66.138-.29-.189-.87-.101-.93.327-.28-.151-.81.088.48-.805.11-.491.51-.289.93.201.58-.906-.49-.34.56-.641-.43-.226-.52,1.019h-1.2l-.07.377-.82-.39.1.415-.54.088-1.02-.377-.7-.956-.96.214-.47-.44.57-.352.55-.616.13-1.069-.46-.239-.14,1.145-1.01-.063.26.717-.31.377-.13.428-.55.654-.47-.302.29-.503-.06-.415-.3-.138-.42.176-.39.415-.45-.075-.77-.579.01-.553-.68-.201-.35-.579-.2-.604-.24-.277-.67-.151-.34.34-.5.138-1.01-.214-.44.075-.15-.956.06-.478.27-.365-.27-.88-1.21-.138-.8.528-.46.428-.58-.264.48-.566-.36-.314-1.13.428-.48-.566-.35.453-.27,1.006.01,1.195-.35.289-.26-.402.19-.302-.35-.906-.68.692.23.491.36.352.34.943.78-.189.33-1.346.38-.151.46-.528.34.767.39.352.71.075.12.491,1.03.05.25.465.81.289.57-.025.2.428,1.06.616.77-.641.33.289.6.113.15.641.82.44.18.302.71.327.54-.025.26.34.82.277,1.01.101.29-.176.14,1.132.71.264.01.818-.56.05-.59-.428-.27.151-.73-.138-.33.189-.56-.088.04.415.68-.075.23.314,1.2-.063.12.226-.24.654-.38-.164-.34.113-.1,1.006-.62-.113-.12.629.42.05.55-.201.15-.428.92-.277.26-.792.62-.453.08-.428.35.088-.09.491.08,1.572.47.453.36.075.96-.226.01.516,1.28.843.69.113-.15,1.031-.36.352-.66-.264-.38.075-.72-.289-.06.214.88.604.34-.013.51.289.24-.264,1.52,1.799.1.402-.51.113-.13-.604-.54-.629-1.11-.667-.9-.013-.43.189-.61.717.65.063-.39.855-.35.101-.31-.314-.63.189-.3.289-.32-.013-.31.818-.57.138-.31.541.29.063.58-.289.27.402.72.252.14.893.43.491-.04.503-.45-.075-.47-.277-.84.327-.52.729-1.08.138.17.44v.579l.38.113-.31.428.57.415.8.088.39-.352.33-.566-.24-.491-.26-.088-.04-.692.82-.528v.478l.2.528.36.516.58.075.13.277-.56.44-.06.428-.53.025-.18.755.61.113.23-.704.65-.616.54.189.11-.302-.38-.226-.01-.465-.54-.579.82-.126.86-.428.24.402.74.088.46-.39.49.101,1.47-.075.48.063,1.31.553-.2.264-.34-.377-.26.327.71.478-.27.692-.56.541-.27-.025-.26.415h.55l.43-.365.17-.352.42-.365.86-.201,3.22.264.37.075.93.503.55.189.03.553-.45.541-.26-.063-.74.252-.39-.05-.99.641-.46-.075-.74.604.05.402.51-.101.25-.377.38.201.19-.239.44.013.47-.428.56-.126,1.3.465,1.03.264.71.667-.01.189-.59.704-.21-.189-.64-.151-.38.39-.61-.075-.07.377-.68-.038-.45.101-.57-.189-.15.239-.6.163-.51-.126-.55.667.65-.113,1.7.025.03.352,1.14.075.44-.566.22.038.35-.428.53.025.36.428.8.164.62.579-.42.604-.32.101-.17.39-.42-.101-.41.516-.39.981-.54.252-.75.176-.86.478-.32.503.42.138.2-.503.37-.013.34-.34,1.38-.226.34-.289.02-.516.43-.34.4.126.16-.377.47-.553,1.29.491,1.07.503-.52.151-.54.491.16.277.46-.277.33.352.36-.377.57.025-.2.629-.49.692-.44-.013-.8.465-.34-.075-.19.579.88-.277.42.616.21-.667.28.101.25-.528.89.491-.11-.943,1.06.126,1.13.327.33.289-.07.641-.32.252-.1.604.39-.138.28-.692.94.604.58.503-.44.252-.14.465-.58.566.12.516-.32.465.36.579-.31.503-.89.365-.16.579-.46-.138-.88.352-.84-.377-.2.465-.8.49-.75-.126.03.478.52-.075.02.314.75-.528.58-.302.37-.038.19.44.45.176.43-.516.85.176.47-.755.16-.453.62.214.45-.943.03-.667.36-.528.5-.327.35-.579.53.176.82.503.28-.013.67.44.6.013-.35.553-.12.73-.21.428.61.39.65-.101.09.377.59-.201.74,2.038-.52.176-.56.025-.51-.226-.72.289-.19-.201-.47.491-.79-.063-.04.264.52.327-.28.402-.49.176-.38.352.41.289.21-.365.58.075.75-1.082.63-.39h.38l.73.314.24-.226.38.151.21-.302.51-.126.29-.34,1.52,1.245-.32.415.73.604.37-.377.59.49-1.45,1.648-.88.201-.13-.101-.6.579-.24.541.16.491-.89-.063-.24.327-.4-.277-.46.138-.73-.465-.46.604-.48.088-.15.327-.83.063-.1.692-1.48.277-.26-.201-.69-.189-.01.264.92.44-.27.818.63-.352.12-.453.63-.075.32.352.72-.717.02-.34.74-.088.18-.415.46-.075.19.49.58-.553.27.365,1.15-.201.68.189.71-.377.54-.692-.11-.201.35-.428.37-.063.57.805.48.327.79.277.09.314-.17.44-.49.377-.22.604-.56-.302-.24.214-.42-.088-.05.541-.97.679-.3-.163-.48.189.67.352.66.088-.39.49.05.377-.85.101-.18.415.15.981-.15.327-.53.34.61.428-.34.314-.78.189.04.34.97-.39.19.151.33-.704.09-.956-.03-.83.7.352.27-.478.43-.377-.09-.616.61-.428.05-.503.55.05.26-.402.58-.038-.07.516.35.855-.1.742.08.818-.62.39-.16.906.63-.025-.04-.818.24-.277.61,1.597.6,1.031,1.76,2.188.05.566-.46-.239-.03.553-.55-.289-.41.327-.67-.164-.46.164-.47-.264-.5.126.08.289.58.025.41.252.36-.063.31.289.4-.189.04.516.21.377.34.063.72.717.31-.226-.34-.516-.11-.453.49-.075.19.415.69.704-.26.415.31.365.43.201.68-.264.18-.402-.59-.126.5-.767-.02-.453-.76-.478-.14-.352-.69-.189.91-.755.53.151.35.314.6,1.094.65.855,1.1.843.09.264-.43.553-.5.465-.78.491-.92.918-.44.34-1,1.245-.25.654-.31.05-.36-.327.17-.553-.71-.729-.02-.553-1.03-.176-.42-.289-.6-.038-.56.113.21.503.69-.302.37.151.12.302.71.075.39.893.51.39.2.453.35.352-.09,1.119-.42.075-.09-.428-.36-.063-.53-.428-.81-.428-.45.113.19.591,1.31,1.17.51-.101.27-.377.41-.063.07.918.25.201.37.629.31.755.11.83.3,1.157-.15.503-.4.025-1.33.553-.6-.34.24-.717-.3-.415.17-.365-.22-.729-.44-.541-.66-.428-.35.176-.74-.214.22.629-.27.415.34.654.38.063.37.465-.51,1.27,1.06.704.5.616-.46.164.19.616.83.252h.63l.59.201.19.516-1.06.226-.37-.302-.89.05-.27-1.522-.21-.365-.68-.465-.82-.44-1.1-.44-.24-.566-.09-.692-.29-.39-.73-.377-.12-.465.23-.478-.12-.44.14-.314.39-.151.11-.679-.12-.277-.5.063-.46-.264-.01.528.32.428-1.08.44-.63-.528-.03-.415.2-.327.51.151-.19-.818.69-.214.42.402.99-.226-.01-.402-.28-.352-.99-.314-.22-.717-.62-.239-.41-.352-.2.201.01.692-.15.302-.51-.088.14.792-.93.704-.91.226-.11.138-1.25.365-.8.478-.39-.151.03-1.119.51-.277.02-.402-.56-.491-.1.755-.32.063-1.33-.101-.11-.377-.57-.604-.21.214-.52.075-.52-.465.54-.73.32-.654.37.226.26-.176-.13-.566.27-.465-.47-.138-.28.465-.27.088-.33-.302.32-.566-.33-.201v-.365l-.5-.327.02-.44.28-.39.47.164.1-.277-.83-.226-.54.516-.07.88.54.314-.22,1.132.46.491-.38.528-1.16.553-.42-.39.27-1.031-.01-.541-.55-1.22-.59-.616-.58-.252.29-.88-.21-.654.43-.038v-.742l.61-.402h.56l-.06-.314-.38-.126-.45.327-.9-.377-.25.968-1.02.855-.19.34.03.516.52.352-.63.402-.29-.327-.57-1.874.38-.742-.25-.503-.34-.163-.01.843-.3.327-1.2.214-.1-1.346.26-1.019-.09-.692.78-.604-.05-.843.4.063.32-.289.18-.503.59-.013.41.365.03.402.62-.252.28-.252-.69-.189-.57-.491-.73-.201-.4.629-.58-.277-.5.541-.01.415-.33.629.15.327-.67.038-.16-.327-.53.692.57.453-.36.252-.69-.264-.29-.868.11-.327.06-1.145-.23-.415.42-.314-.13-.44.25-.264.02-1.497.25-.365-.45-.44-.84.314.55.667-.22.415.09.906-.11.541-.82.415-.16.226-.63.176.4.314.41-.101.5.491-.01.302-.32.365-.1.579.36.528-.28.113-.49-.176-.55.025-.82.465-.27-.277-.12-.516-.21-.151-.79-.038-.95.101-.3-.44-.24-1.082.21-.49-.51-.566v-.616l.31-.365-.86-.289.27.855-.41.541.54.365-.17.264-1.16.541-.83-.289-.47.39-.65-.327-.29-.34-.09-.44-.49-.176.12.692.26.302-.3.78-.25-.189-.14-.541-.39-.604-.53-.428-.91.176-.2-.264.25-.541-.03-.704-.78-.327.24-.616-.14-.189.27-.579-.16-1.258.38-.415-.05-.981-.33-.327.09-.377.66-.05.29-.201.04-.415-.33-.667.23-.164.17-.73-.39.138-.5.528-.02.692-.6.264-.47.39-.1.78.45.465-.19.755-.52.528.6.566-.58.415.34.34-.33.704.19.553-.19.402.11.428-.83-.34-.69.025-.31-.49-.4-.101-.38-.679-.26-.163-.81-.05-.33.189-.93-.013-.47.138-.61-1.107-.03-.566-.28-.44-.04-.503-.65-.44-.26-.591-.71-.541.1-.767-.29-.402-.25-.906-.32-.327-.22-.943-.61-.742.04-.327-.27-.541-.73.34-.19-.616-.42-.025-.57.843.8-.113.58.176.31.289.38.025.56.83-.02.239-.46.252-.31.931.07.239.55.327.02.453-.18.717.52.415-.28.893.44.327.79.075.23.252-.09.465.23.377.49.365.15.78.41.327.28.579-.11.566.14.553.81-.214.89.05.19-.377.73-.44-.04.616.2.591.26.214.61.05,1.07-.05-.33.503-.1.428.67-.289.48.566.18.792.67.352.86-.214.21-.226.53-.05.58.289-.81,1.069-.02.553-.2.503-.91-.352-.14.252.48.239-.19.415-.27.151-.32.553.13.34.55.579-.93,1.371-.4.189-.25.579-.43.503-.63.138-.38-.201-.79.327-.13.604.99-.063.37-.214.28.264,1.11-.239.79-.038.23-.302-.58-.252-.05-.516.48-.591.35.101,1.15-.641-.01-.428-.26-.138-.01-.528-.48-.641.55-.34.28-.377.66-.277v-.78l.24-.226.46.226,1.54-.277.72-.968.39.377.74.264,1.07,1.019.71.025.39,1.258-.47,1.044-.43.038-.04.516-.46-.138-.5.138-.38.704.61-.226.14-.239.88.05.13-.503.52-.05.52-.302-.29-.616.21-.402.7-.302.51.013.73.402.75.075.55.264-.1.39-.39.264-.14.365-.95.075-.06.641-.37.579.05.516.66-.327.27.352-.29.729.45-.138.48-.88-.63-.667.4-.113.46.289.02-1.019.42-.05,1.02.252.59.327.46.679.09.478.26.214.12.591-.4.516-.43.013-.26-.365-.39.025v.415l-.37.314-.32-.176-.61.352.26.226.14.516-.39.201.01.591-.34.302.16.415h-.55l-.32.503-.4.101-.55-.34-.46.138.62.478.06.956-.39-.289-.33.164.62.428.48-.151.12.239-.45.78.1.49.76-1.044.14-.465-.43-.528v-.34l.71-.503.59.277.41-.302.49-.704.23.553.39.277.08.503,1.21-.541.7-.566-.19-.201.01-.629.52-.742.84-.126.57.163.14,1.333.2,1.258-.46-.402-.16.352.47.943-.44.151v.629l.39.667.26-.491-.12-.616.94-.201.07-.805.3-.289.98.214.54.327.02.44.26.314.84.314.16.428-.39.289-.04.365-.58-.34-.1.239.59.214.41.415.67.352.32.365.45-.013-.63-.654.84-.365.61.075-.05,1.069.07.918.53.742.04.377-1.04-.377.27-.44-.46-.327-.28.314-1.14.34-.56-.39-.1.352.59.252.1.654-.24.189.3.465.39,1.132.37.013.37.566.43.277.17.415-.41.264-.58.151-.05.327,1.16.893.45-.038,1.06-.44.29-.49.19-1.233.66-.478.57-.277,1.27-.478.69.063.07.176-.33,1.056-.01.516-.95.163-.29.164.11.679h-.6l-.1.352-.66-.289-.6.214.1.214.69.252.03.226-1.59.101-.29-.428-.67.088-.67.918,1.39,1.069.18.39-.22.855h.4l-.03-1.019.89-.742.56-.025.17-.579.43.113.39-.591.5-.478.39.289.12-.667,1-.277-.24,1.233.12.868.35,1.321.59.402.27,1.044.01.604.18.264.03.918-.27.654-.25.277.13.39-1.05,1.006-1.05,1.145-.74.503-.56.49-.97,1.044-.11-.075-1.02,1.132-.45.239-.1.465-.34.302-.21.516-.51.126-.5-.453.25-.654-.51-.516-.22-1.006-1.06-.717.2-.352.62-.692.56.013.08-.767.79-.377-.75-.616.28-.264-.58-.692.06-.402-.54-.201.12.943-.05.591.22.239-.56.402-.1.327-.51-.151-.32-.428.03-.767-.25-.755-.34-.478-.63-.465-.62-.138.05-1.069-.18-.252-1.02-.377-.04-.478-.28-.39.13-.44.59-.075.45.214.44.667.25-.038.62-.629.87-.013.24-.641.28-.239-.17-.453-.72.818-.92-.302-.49.126-.18-.289-1.33.541-.42-.252.19-1.019-.16-1.195-1.16-.201-.06-.428-.39-.352.07.88-.15.579.13.264.94.164-.16.591.24.465-.38.516.03.302,1.25,1.962.92.314-.39.252-.36.78-1.02-.302-.25-.83-.35-.616-.53-.528-.39-.667-.85-.176.08-.755-.2-.491-.44-.201-.27-.478v-.39l-.55-.088.21.541-.27,1.182.89-.013.15.201-.11.528.06.667.31.465-.24.868-.95.44.18.579-.16.44-.5.264-.53.038-.59.314h-.44l-.28.428-.54.314.2.465.3.239.35-.277.35.277-.38.277-.45.679-.48.252-.6-.013-.38.717-.35.038.02.478.42.591.47-.377.07-.327.74.491.75-.05-.05-.503-.42-.428.53-.126-.03-.377.21-.641.27.025.58.491-.2,1.082,1.09.201-.14-.453.37-.604.35-.277.52-.704.44.465.72.226.44-.038,1-.667.87.176,1.1-.503.34.377-.62.591-.5.73-.09.39.17,1.119.39.503,1.09.553.56.038.21,1.056-.34,2.025.19.868-.56.377-.31-.377-.19-.604.43-.226-.11-.44-.65-.528-.01-.491-.22-.239-.53-1.031-.01-.327-.6-.415.24.968.2.264.19,1.484.56.365-.42.591-.49.277-.27.553-.74.038-.44-.164.13-.503-.23-.428-.52-.352.2-.302-.04-.818-.35.44-.73.025-.19-.314-.48.654.87.365.23,1.27-.86.541-.7.189-.03-.44-.35-.277-.07-.553-.74.352-.75.075.29.314.38-.038.5.189-.35.843-.7.604.68.176.19-.428.64.704.63-.189.09.704.02,1.283.11.503.07,1.233-.09.667-.32.138-.52-.415-.35-.025.14-.667-.11-.302-.49-.264-.33-.478-.27.101-.65-.428-.52.239-.11.314.69-.101.43.704.01.402-.23.428-1.47.428.31.264.62.05.52-.226.06-.226.62.063.14.868.56.176.68.73.5.176-.22.302-.56.088-.22.893-.5.038-.29,1.019.05.465-.33.138-.68-.792v-.818l-.13-.264-.54-.377-.62.478-.4-.226-1.26.075.3.264.36-.025.31.377-.01.591.78.252.53-.604.18.541-.01.78.33.05-.14.641.32.692-.6.025-.57-.252h-.35l-.21.39-.4-.365-.16-.654-.36-.164-.67.566.77-.025.05.314.36.667.31.138.65-.201.19.365-.15.365-.75-.453-.74.189.12.465.31-.025.66.591.57-.025.17.629-.58.239-.2.314,1.1-.151.29.616.44-.981-.32-.013-.42-.44.39-.415.07-.566h.58l.98-.151.53-.516.14-.365-.15-.692-.32-.553.45-.868.6.277-.19.277.04,1.207.61.402.66.126.57.566.6.088.04.402.25.214-.35.377-.51.126-.04,1.157.31-.063.24-.49h.56l.43.641.34.214-.17.302.13.327.6.264-.05-.553.75-.214-1.15-.855.1-.365-.34-.365-.1-.528.26-.528-.41-.402.61-.667.23.088.37.541.67.327.34-.164.58.075.25-.214.51-.025.67-.365-.51-.138-.74.113.12-.742-.5.34-.13.377-.37-.025-.76-.402.03-.491-.32-1.056.06-.49h-.47l-.09.717-.61.201-.69-.126-.62.025.37-1.031-.59-.641,1.11-1.132.62-1.195-.29-.478.59-1.119-.25-.553.55-.138,1.11.038.67.981.47-.39h.45l.15-.402.56-.164.37-.289.31.34.47.075,1.09.641.23.352.93.453-.58.088-.22.302-1,.44-.52-.189-.28.365,1.36.44-.21.553.83.176-.32-.528.24-.641.48.013.38-.189,1.06.302.53-.201.9-1.044-.26-.843.33-1.157.32-.289.78.088.28.73.26.189.31,1.484-.2.692-.27.553-.63.566.48.075.63-.138.23-.201.65.591.08.692-.39.264.05.855.31.038-.17,1.534-.67.453-.39.692h-.38l-.33.277-.13.591.32.226.02,1.069-.28.667-.51.302-.26.616.17.616.52.252.01.503-.27.264-.29-.239-.33.226-.29.704.24.579.39.05.15,1.056h-.33l-.13.352-.78.729-.12.352-.4-.075-.78.176.51-.692.38-.755.05-.604-1.03,1.459-.27.025-.28.906-.51.478.6.075.2.503-.44.365-.04.541-.56.465-.18-.579.08-.302-.51-.402.02-1.773-.06-.365-.35-.113-.44-.591-1.06.164.24.415.39-.05.7,1.006-.08.34.34.226-.22.377.38.415-.33.264-.04.34-1-.013-.58.239-.9-.591-.69.013-.55.289-.38-.075-.18.377.36.151,1.06-.264.51.164.42-.164.38.138.5-.239.19.138.88-.088.17-.528.27-.138.5.365-.07.302.3,1.195-.19.289-.03.503-.19.377-.36.151-.58-.126-.58.49.07.591-.7-.088-1.47.704-.52.025-.53.616-.55.34-.34.377-.67-.34-.08-.428.05-.78-.13-1.006-.35.075-.04,1.233-.21.428-.45-.088-.45-.289-.3.126-.39-.277-.37.327.29.352.78.101.57.252-.47.277.45.252.69.113.44.402.1,1.56.52.088-.05.49-.32-.063-.27.34-.54-.138-.13.302-.48.189-.58-.465-.23.302-.9-.05-.18-.151-.38-.918-.84.314.3.541.37.101.26.503.55.327.66-.025,1.76-.641.67-.151-.17.491-.37-.013-.33.314-.37.025-.32.402-.68.465.01.792.18.189-.41.604-.58.214-.08.377-.36.264-.3-.365-.54-.289-.32.252-.74.264-.07-.151.52-1.107.28-.88-.82.126.01.327-.37.189-.28-.755-.46-.428-.45-.075.48.994-.01.402.48.415-.16.277-.4.101.43.541-.41.264-.45-.164.07.616.55-.05.72.252.57-.654.65.163.08.541-.26.528-.58-.126-.73.113-1.27.34-1.12.604-1.28.981-.42.126-.3-.792-.09-.604-.46.252-.3-.314-.41.402-.3-.138.05-.44-.17-.314.21-.516.48-.226.13-.516.32-.239-.21-.44.36-.641-.5-.704.01-.277.68-.365.32-.541.02-.365-.24-.541.11-.616.78-1.006-.48-.365-.16-.478-.4-.302-.01-.805-.24-.327.11-.553-.33-.352-.54-.075-.05-.428.32-.352-.31-.214-.44.792.29.365.36.113-.07.805.4.528.14.868.38.83-.25,1.409.24.616-.21.39-.72.805-.13.629.23.453-.06.566-.22.641-.71.679-.19-.893.45-.604-.32-.667.24-.478-.39-.189-.25.629.16.654-.49.44.14.34-.05.503-.2.176.1.566-.17.516.18.49-.32.654.16.377-.01.654-.54.264.89.415.3-.566.78.314.36.327-.01.616-.3,1.094.14,1.031.29,1.006.47.855.36.05.53,1.132.46.264.06.78-.32,1.17-.23.277-.66.264v1.748l.16.516.62,1.346.17.591.35.503.64,1.396.55.906.58.704.77.767.59.428.97-.075-.09.365h-.37l-.23.566.19.113.1,1.27.36.151.15-.465-.04-.629.21-.402.11-1.044,1.33.629.41-.352,1.37-.201.62-.013,1.06.302.41,1.421v.629l-.2,1.107-.02,1.031-.17.943-.36,1.082-.24.352-.29-.352-1.86-3.622-28.82.415-2.2-2.893-.02-5.32-.07-1.887.84-1.207-.71-1.195-.07-5.735.17-2.503-.69.453-.61-.264-.68.038-.92-.101-.77.075-.48.176-.31-.453-1.11-.075-.5-.415-.44-.151-.83-.038-.67.164-.45-.05-.8.44-.81.264-.62,1.006-.66.314-.46-.201-1.06.088-.42.252-.35.428-.43.176-.22.352-.71-.05-.6.201-.17.906-.73.038-.11.516.17.465-.18.352-.44-.113-.27.138-.27.755-.43.226-.53-.679-.43-.075-.84.151-.41-.377-.26-.591-.3.113-.41.704-.84-.189-.24,1.22.11.415.43.629-.25.377-.83-.478-1.3-.038-.43-.201.05-.679-.42-.176-.11.566.31.252-.03.377-.48.189-.38-.05-.29.226-.49-.516-.46-1.22.23-.729.66-.214.45-.49.29-.025.6-.566-.42-.88.41-1.044-.41-1.107-.36-.138.03-1.22-.06-.767-.43-.503-.68-.151-.8-1.006-.47-.138-.4-1.371-.33-.277-.38-.755-.54-.654-.6.541-.04.579-1.03.088-.01.566-.19.138.11,1.082-.5-.516-.26-.818-.1-1.107.56-1.597.47-.101.45.629.6.113,1.02-.252.69-.629.41-.767-.03-.629.46-.302.14-.289-.33-1.031-.51-.377-1.07-.239-1.05-1.006-.43-.679-.07-.893.19-.704.61-1.371.09-.767-.3-.767-.78-.843-.31-.553-.18-.641-.05-.792.39-.968.75-.503,1.3.528.48.038,1-.34,1.21-.918.36-.553-.03-.83.23-.704-.57-2.377-.15-1.572-.01-.717-.14-.277-.34-1.446.14-1.258.29-.792.07-.667.37-1.472.6-.943,1.03-1.321.18-.704.25-.541-.01-.792-.3-.679.13-.968.59-.931.43-1.006.29-.302,1.43-.78.45-.528.22-.679.46-.692-.01-.692.2-.252.51-.214.49-.604.28-.553.14-1.824.29-.843-.27-.352.17-1.119.76-.201.56-.465.05-.365-.56-.44-.64-.792-.42-.667.06-.39-.06-1.396.38-.503.43-.201.21-.415.74-.365-.11-.478.11-.566.33-.226.36-.717-.15-1.258-.2-.428-.63.226-.76-.805-.49-.277-.57-.113-.31-.679.09-.994-.08-.503-.26-.302-.05-.667-.61-.025-.19-.428-.47-.541-.45-.151-.32.151-.27.478-.32-.176-.11-.352-.88-1.145-.55-1.031.44-.478.66-.025,1.57-.541.25-.201.44-1.258-.06-.88-.28-.289-.71.038-.59-.365-1.39-.39-.51-.528-.29-.528-.08-.503.59-.931.05-.654-.75-1.295-.21-.151-.73-1.685.54-.818.22-.591-.05-.843-.17-.667-.05-.78-.5-.805-.24-.855-1.02-1.082.07-1.748-.15-.365.09-.428-.21-.377-.38.038-.4-.541-.64-.314-.16-.88.76-.201.08-.528.25-.478-.63-.717.08-.956,1.42-1.082v-.289l-.53-.956-.3-.038-.63-1.132-.65-.214-.51-.616-.14-.868-.31-.377.04-.704-.19-1.132.3-.604.05-.428.42-.214.18-.478-.33-1.044.41-.654.2-.956-.22-.478.13-.931.69-.528.03-.277.39-.277.22-.667-.19-.252-.66-.226-.54.214-.66-1.019-.17-.528-.4-.692.67.013.13-.692.58-.264.28-.34-.11-.428.9-.491.05-.365-.33-1.094-.17-1.044-.28-.34-.27-.943-.23-.214-.6.025-.34-.289-.17-.402-.48-.151-.21-.327-.53.138-.4-.239.42-.654.25-.981-.6-.893.06-.327-.54-.44.06-.591-.37-.491-.15-.516-.43-.566-.47-.402-.43.05-.83-.352-.58.377-.59-.226-.61.189-.63-.038-.37-.893-.64-1.069-.42-.063-.42-.39-.39-.767.3-.792.5-.189.08-.327-.37-.44-.26-.553-.6-.126-.5.289-.37-.013-.84-.654.22-.465-.21-.428-.38.075-.58-.491-.84-.151-.13-.679-.63-.679-.43.579-.29.113-.62-.214-.67-.541-.23-.352-.08-.566-.73-.164-.09-.289-.44-.402-.25-.415-.33-.189-.48-.616.49-.277.72.239.14-.138-.18-.604-.53-.415-.45-.843-.33-.34-.51-.138-.61.302-.46.428-.94.088-.64.34-.62-.252-.21-.629.49-1.145.58-1.006.2-.88-.32-.516.86-.667-.27-.742-.48-.704-.4.113-.71-.352-.73-.604-.16-.792-.33-1.119-.38-.528.07-.83-.15-.302-2.49-.553-.35-.176-.57-.654-.29.164-.33-.478-.29.126-.2-.528.18-.629-.1-.981-.2-.34-.59-.591-.46-.176-.91.088-.05.327.34,1.006-.54.465-.93-.679-.19-.931-.37-.453.08-.906-.67-.805-.01-.478-.26-.453-.78-.201-1.12.252-.31.44-.65-.616-.44-.063-.6.252-.33-.05-.4-.415,1.05-.453.72-.176,1.06-.05,1.59.302.93.05.93-.113.83-.214.94-.428,1.01-.729.65-.667.8-1.195.48-1.396.15-1.522.05-.994.17-1.056.25-.843.68-1.358,4.95-7.32,1.23-1.723.85-.893,1.12-.843,1.09-.616.89-.679.59-.579.73-.968.81-1.308.62.063.29.025.28.038.93-.201.29.226,1.23-.39.84-.528.46-.176.32-.377.4-.189.13-.314.36.025.4-.264.18.327.36-.101,1.33.402.31-.176-.18-.302.28-.252-.03-.579.5-.755-.34-.289.02-.629.52-.352.15-.616.52.088.8-.252.73-.528-.26-.616.72-1.358-.09-.692-.08-1.145.53-.05.36-.327.7-.189.13-.34-.18-.491.15-.465.77-.302.29-.302-.04-.767.28-.39.54-.277.44-.717,1.46.05.24-.503-.31-.277.39-.465-.27-.906.85-.616.52-.516,1.23-.641.58-.101,1.2.553.4.088,1.09-.088,1.29-1.056.31-.654.7-.767,1.53-1.207,1.51-.906,1.32-.327,1.2.126,1.41.365.66.252.92.201.89.038.89.428.5.415,1.06,1.283,1.01.365-.06.365.27.755.81-.189.03-.742.77-.34,1.18-.755-.01.453-.5-.013-.94.478-.46.553.31.352,1.29-.528.92-.591.35-.478.32-.968.06-.767-.39-.151.69-.906,1.82-2.239.34-.491,2.22,1.22,7.51,8.88ZM98.275,67.974l.52-.39,1.1-.541,1.38-.39.64-.302.83-.78.33-.604.19-.805v-1.019l.26-.981.4-.591.79-.654,2.03-1.019.5.503,1.32-.189.68.629.34-.44.93-.239.69.05.41.478.11.679.6.767-.15.692.33.377.33,1.22.93.616.34-.05.32-.491-.02-.327-.34-.868.26-.138h.8l.43.314.44.528.19.465.05.641-.18.717.04.516.53-.063.26.402.53.101.52.566,1.37.352,1.04.201.32.151.08.415-.13.566.41.541.33,1.17.09.604.24.402.94.616.63.063.47.314.37,1.132-.89.428.34.755-.45,1.258-.4.604-.21.641-.21.176.18.855.33.289.79-.05.28-.277.77-.013.49-.252.51-.478.42-.038.62.453.29.692.79.729-.12.453-.62-.239-.62.402.6.679.19.352.37.201.71.78.52.075.1.541.24.428.81.591.84.013.32-.503.57.428.2.88.9.151.48.491.51-.05-.07.855.9.629.41.013.43-.277.47.025.22.277.06.453.42.465-.63.327-.28.679.21.742.47.34.25.365.3-.025.59.88.44,1.057.75.05.48-.164.66.189.48-.377.95.402.36-.075.47.39.39.528.18.579.37.528-.07.604.52.189-.08.39.64.918-.15.729-.54.805.25.39.7-.063.19.277.48.138.56.717h.66l.21.327.19.855.3.428.15,1.006.28,1.069-.35.415-.33.013-.29.302.14.453-.25.252-.55.214-.04.503-.24.239-.61.088.4.528.21.616.68,1.094.56-.151.77.239-.1.579-.6.83-.6.415-.12.956.23.742-.23.692-.35.541-.05.428.2.352.15.729-.51.289-.11.503-.29.553.17,1.195-.05.641.37.516-.4.226-.09-.402-.27-.113-.06-.755-.87-.717-.63.038-.95-.491-.17-.428-.64-.164-.49-.767-1.07-.352-1.17.428-.18-.415.36-1.132.39-.792-.18-.453-.43-.516-.42-.277-.65-.038-.68.277-.37-.314-.57-.05-.42-.327-.49-1.207-.4-.503-.3-.138-.35-.553-.33.151-.27-.201-.06-.541-.36-.075-1.01-.968-.08-.277.68-.931-.11-1.685-.18-.767-.38-.39-.18-.528-.38-.591-.53-.138-.65-.516.04-.478.37-.277.39-.591-.06-.239-.81-.402-.64-.113-.18-.503-.39-.138-.22-.377-1.01-.314-.5.226-1.13.906-.77-.616-.23-.39.13-.541-.35-.604-.37-.113-.44.616h-.66l-.3-.402-.04-.39-.44-.151-.65.189-.25-.088-.36-.604.48-.641-.39-.478-.35.113-.73-.39-.36.088-.36-.264-1.4-.189-.39.528-.94.176-.64-.138-.43-.302-.61-.138-.25-.428-.18-.868.11-.377-.21-1.044-.27-.503-.33-.113-.21-.491-1.28-.226-.63-.428-.14-.604.01-.629-.12-.503-.4-.591-.06-.377-.48-.189-1.1.566-.97.151-.54-.239-.39-.39-.55.239-.5-.365-.36.402-1.39-.792-.33.063-.55-.314-.98-.742-.9-.101-.71-1.358-.82-.151-.01.453-.76.226-.53-.792-.01-.679-.15-.201-.09-.742.42-.013.34-.39.47-.163.35-.503.34.013-.03-.516-.3-.428-.29-1.056-.15-1.132.23-.503.81-1.056.65-.302-.01-.302.47-.302.55-.729-.24-.931.13-.402-.2-.767-.61-.453-.31.327-.7-.503-.62.101-.45-.39-.7-.038-.14-.692.2-.465-.19-.679-.36-.163-.5-.755ZM148.675,220.31l-.36-.113-.21-.918.06-.654.76.289.19.868-.44.528ZM195.655,95.267l.42.201-.06.503-.48-.163-.49.415-.05-1.031.11-.415.39.138.16.352ZM205.605,165.171l-.38.201-.08.692-.52-.075-.16-.428.52-.503.11-.704.36.075.15.742Z"/>
  </g>
</svg>