<?xml version="1.0" encoding="UTF-8"?>
<svg id="balt-city" xmlns="http://www.w3.org/2000/svg" viewBox="0 0 348.713 249.709">
  <defs>
    <style>
      .cls-1 {
        fill: #fff;
        fill-rule: evenodd;
      }
    </style>
  </defs>
  <g id="Baltimore_City" data-name="Baltimore City">
    <path class="cls-1" d="M272.01,99.328v5.176l-.06,82.707-3.335,1.36-4.566-6.196-1.682-1.776,3.395-13.829,1.141-.831-.421-4.194-1.562-1.965-2.764-2.38-1.051-1.738-.541,1.625.841,1.398,3.124,2.947.571,1.02-.361,2.494-3.965,8.312-6.128-4.232-7.09-5.29-.15-3.854-1.172-.038-.601,1.511-1.021.038-1.082-1.738-1.622-.718-.961.076.21,6.121-1.472-.378-.18-5.743-.691.038.12,3.816-1.802-.227-.3,2.947-.601-.038-.18-3.098-.931-.151-.481-1.662-1.142.831-1.262-.151-1.682-.869-.511.68-2.133-1.587-.601-1.511-.03-2.04.931-1.058-.991-.831,3.335-.151v-1.285l-2.794.151-.24-.982,3.034-.869-.03-.982-4.116.227v-.831l4.025-.151-.06-1.7-3.425.113-.03-.416,3.455-.151-.661-1.058-.901.038-.12-2.494-1.081-.151.09-1.247.811-.567-.451-2.985-4.626-.869-1.322.151-3.695-1.096.781-2.305-1.051-.302-4.927-3.854-.991-.567-1.953-.189.661,2.494.3,2.607-1.592-.68-.811.718-2.614-3.06.03,1.851-1.442-.831-1.772,1.133-1.352,1.511-3.154-.113-1.682-.567.421-2.72-2.764-.718-.391-1.096-1.893-6.801-.24.151,1.712,6.763-2.523-1.133-.27-3.892h-.451l.24,3.589-.931-.34-.24-3.212-.511.038.21,2.947-.751-.265-.15-1.927-2.553.076-.811.567.21,4.383.511.491,3.695-.151,2.193,1.247,1.472,2.456-1.592.302.21,1.587.991.718.39,1.927.961,1.133,4.206,1.058,2.493,1.133.931-2.267,1.983-.831,1.832.529.601-1.322,1.502.34,1.983,1.889-.751,1.7,2.043.416-.15,1.738,1.682,1.851,1.472-3.136.541.265-1.442,3.174.631.793,1.983-3.967,1.081.982-1.983,3.967.781.718,1.983-3.967.751.68-.631,2.872,1.021.567-.09,1.36,2.373,1.889.601,2.267-1.532,2.985-1.592.378-1.382-2.078-1.021-.831-1.622,2.229-1.202-.416-1.051,1.247-2.343-.113,1.051-2.116-.871-.378-1.322,2.872-7.06-3.174-4.296-1.058,1.622,2.758-.811.416-3.184-5.365-2.013,1.889,3.935,4.043-.18.189-4.025-4.005-.451.378,2.463,2.607-.39.302-2.493-2.456-1.202,1.889-1.622.265,2.854,3.249-1.021.718-1.322,2.909-2.884,1.096.06-1.625-.841-.982-1.622-.151-.841-3.174-1.832-.793-1.652.793-1.802-1.096v-1.7l-1.622.113-1.172-.869-.691-2.607,1.081-.189.18-1.625-1.232-2.078-.03-3.4.601-2.645-1.742-1.474-.21-.945-1.712.793.27.756-1.923,4.572-3.695-3.325-.21.227,2.824,3.06.451,1.209,3.004,1.625-2.854,1.851-2.614,4.987-.901,2.72-.691.491-.15,1.625,1.863.68.511,1.36,1.923.907,2.073,2.078,5.317-.491,2.854-.831,1.772.945.33,1.285,1.111,1.058,2.403,4.647-.15,2.04.391.982-1.953,2.191-.721,2.002-1.292,5.667-2.253,2.871-1.262,1.247-98.022-53.803-.15-125.439,57.708-.038h16.883l117.879.038-.09,87.694ZM207.844,221.669l-22.56-26.675-6.669-3.665,2.163-2.267,1.622-2.229.571-1.285,1.111-.529.931-3.589.18-1.7.931-1.171,1.802,1.285,1.112,3.136,1.562-1.02,1.832.793,1.622-.34,1.712.265.361-1.738,2.163-3.74,1.021.038-.21,1.511,1.112.151-1.292,1.851.36.604,3.124.453,2.043-1.285.901.302.571,1.851.871-1.927-.3-1.36-.871-.756.691-1.247-.781-.68-.691-2.758v-3.778l1.352-1.096,6.939.038,5.527,2.72-2.193,3.476.511.378,1.802-.378-1.262,2.985.811.453,1.983-2.72,3.605,1.814,1.802,1.662,1.802,1.096,1.021,1.398-.391,2.154,1.592-.416.661,1.738,2.103-.793,2.583,2.531.961,3.929,1.742,2.796,1.983-.378,1.472,1.738.24.945-.36,1.7-1.502.34-.03,1.322-2.553.529-.24.567.781,3.74-2.523,3.514-1.502-.756-1.202-1.398-2.433-1.285-1.712-.227-1.442.34-2.343,1.322-2.253.831-2.373-2.002.27-.831-.631-3.854-.871-.869-1.081.642.781,1.436.03,2.456-1.142,1.662,1.562,1.474.12,3.249.571,1.851.871,1.247.24,1.927-1.442.491.15,1.133,1.142,2.645-2.193-.038-.601-.718-1.742.982-1.712.151-.571.756-1.893.265-2.553,2.343-1.262-1.511ZM232.237,220.989l1.622.076,2.253-.529,1.442.869,1.292-.831,3.815.113,1.292-.378.781-1.662,2.643-.453,2.043-.68,1.232.34.541,1.02.33,3.212-1.412,2.494.781,1.587,1.232.945,3.004.378,6.489-5.138.18.416-1.953,1.511-.541,2.078.781.982,3.845-.869.991-.529,2.373-2.305,1.412,2.229-.15,1.209.811,1.02-1.352,2.947-16.973,13.224-29.44-11.222-1.923-1.285-.03-.907.901-1.096,3.034.491,1.322-.227,2.283-2.343.721-1.511-1.472-2.418.18-2.418.601-3.023-1.412-1.209,1.442-.378,2.644,1.927,2.343,2.343ZM217.847,222.576l-.3,2.078-1.051,2.72-1.262,1.02.541,2.758-6.188-7.405,1.081-1.247,2.433.151,2.343-1.02,1.983.189.421.756Z"/>
  </g>
</svg>