<?xml version="1.0" encoding="UTF-8"?>
<svg id="balto-co" xmlns="http://www.w3.org/2000/svg" viewBox="0 0 348.713 249.709">
  <defs>
    <style>
      .cls-1 {
        fill: #fff;
        fill-rule: evenodd;
      }
    </style>
  </defs>
  <g id="Baltimore">
    <path class="cls-1" d="M211.441,93.595l.03-.013h.02l.06-.013h.03l.08.063v.013l.04.075.02.063.01.038.02.025.02.038-.01.025v.05l.04.063.1.113.04.05.01.038.01.063.04.301-.01.038.02.063.05.1.02.038.04.075.07.314.04.113.02.025.04.1.02.113.05.088.01.013.01.013.07.025.229.063.04.013.08.025.279.138.05.025.05.013.11.05.07.013.05-.013.1-.088.05-.063.01-.013.1-.088.06-.025.09-.05.08-.063.279-.188.02-.013.199-.038h.04l.01.013.03.025h.05l.11.038h.02l.03.025.04.013.11.025.12-.013.179.038h.199l.04.013.09.025.03.013.16.013.08.025.04.013.05.025.09.05.15.075.05.025.04.025.04.038.03.025.02.013.05.05.07.05.05.013h.04l.04-.013.04-.025.02-.038.07-.088.06-.05.04-.038.11-.075.04-.038.01-.025.01-.025.01-.075.03-.1.06-.201.02-.05.05-.05.05-.05.12-.176.09-.063.03-.013.05-.013h.05l.02-.013.13-.163.07-.05.01-.013.13.013.11.025.07.038.02.075.01.088v.013l-.01.125.01.038.01.038.02.025.03.013h.15l.03-.013.04.025.04.063v.138l.03.113.01.038.03.025.11.075.06.013.03.013.1.063.11.063.07.013.259.038h.08l.1.013.07.063.09.038h.11l.09-.013.02-.025h.06l.12.05.16.113.03.025.04.075.04.05.03.075.01.013.11.088.06.038.06.025.05.013.05.025.04.013.04.013.219.151.01.013.16.075.05.038.209.125.05.038.04.038.09.188.01.025.01.113.01.1.01.075.01.038.01.013.02.025.11.151.08.125.16.138.04.013.02-.013h.02l.06-.05.04-.013.08-.013h.11l.13.013h.04l.07-.013.11.025.1.038.01.013.06.038.04.038.03.013.03.013h.03l.06.013.239.125.03.013h.13l.04.013.05.013.03.013.03.013.07.063.04.05.04.038.13.226.04.05.05.038.07.1.06.176v.151l-.01.025-.05.063-.01.025-.12.276-.02.025-.06.088-.02.088v.05l.01.038.02.038.03.038.05.075.06.063.06.063.03.038.03.025.1-.025.11-.05.11-.075.05-.038.05-.038.14-.138v-.013l.03-.1.04-.138.09-.201.02-.038.03-.075.04-.226.08-.163.09-.088.16-.063h.03l.03.013.03.013.09.038.02.013.08.05.269.163.09.063.11.075.16.075.12.038.05.038.03.013.07.063.03.038v.013l-.01.013-.03.025-.04.038v.038l.05.025.02.025.12.1.03.038.05.088.01.025.02.038.01.063.01.013.02.038h.01l.03.038.18.238v.013l.05.1.03.025.09.088.01.013h.09l.239.05.03.025.08.063.09.063h.02l.03.013.04.013h.06l.06-.013h.03l.03-.025.07-.063h.02l.05.025.03.013.04.038.16.125.12.075.06.038.08.063.11.063.03.013.03.013.08.013.07.013.09-.013h.03l.1-.038.11-.05.08.013h.01l.04.013.02.013.03.025.02.025.11.125.07.088.17.188.06.176.05.038.07.013.09.013h.02l.02.013.1.075.07.063.01.038.01.038.03.075.02.038.04.1-.02.176-.05.163-.03.163-.01.113-.02.213v.063l.01.013.01.088.05.088.179.1.04.013.17-.05.15-.1.05-.013.08-.013h.07l.06.013.04-.013.14-.1.18-.138.04-.013.07-.013.199.038.04.013.08.038.08.05.229.163.1.125.07.05.389.113h.06l.13.025h.04l.04-.013.06-.05.1-.075.09-.1.249-.201.04-.025.409-.188.13-.05.1-.025.17-.013h.179l.05.013.09.025h.01l.04.013.04.038.179.213.06.063.299.251.12.138.259.263.12.113.17.125.08.05.289.151.06.038.14.163.04.075.05.088.08.138.06.063.03.025.1.075.06.05.01.013.02.013.06.063.04.038h.01l.05.05.04.025.03.013.07.025.02.013.06.025.1.038.439.075.04.013.13.1.15.113.12.038.13.038h.04l.08-.013.08-.025.01-.013.05-.05.02-.063v-.038l.02-.088.01-.063.03-.125.02-.226.01-.138.03-.138.05-.138.05-.1.11-.075.13-.063.09-.038.09-.013.15-.038h.03l.06-.038.04-.1.01-.038.02-.075.04-.088.11-.125.03-.013h.02l.07.013.05.038.01.025.01.025.01.113.15.176.14.063.04.013.04.025.269.163.09.05.189.125.04.075.01.075-.01.038-.04.05-.02.038-.01.05.02.301.06.163.04.025h.01l.03-.013.06.013h.06l.07.025.02.013.03.013.249.151.02.038v.075l-.08.138-.06.075-.13.226-.08.125-.07.063-.289.74.289.125.14.414-.439.201-.269.84-.519.514.12.753-.578-.025-.06.627.179,1.242.229.188.768-.163.429-.075.03.013.509.815.06.326.628,1.166-.08.401.379.439.479.025.708.803.369.615.519-.013.439-.452.329.339h1.047l.768-.113.349.138.17.564.688.401.08.715-.09.815.399.288.578-.941.808.238.479.414.06.627.279.753.648.426,1.147.05.479.59.548.489.439.903-.12.715.329.502.15.564.848.213.449-.088.12.376v1.279l-.818.727.678,1.054.768.288.519.339.588.803.02.364.299.577.509.401-.279.602-.03.953.189,1.079-.1.552.509.502.329.978-.339.903-.798,1.091-.199.464.249.288.02.84-.12.665.219.376.608-.025.279.263.519.151.259.452.289.075.18.389.379.301.259.966.12.753.329.213.15.426.02.966-.479.727.16.364-.06.916-.319,1.217.269.59,1.905.288.319.715-1.336-.301-2.204.1-1.057.163-1.406.401-.997.514-.529-.075-1.177-.552-.319-.326-.239-.627.658-1.392.02-.69-.209-.677-.539-.627-.947-.213-.419-.326-.758.389-1.197-.439-.549-.276-.658-.125-1.466-.765-.588-.652-.658-.376-.349-.05-1.586.552-.828.113-.848-.188-1.416-.188-1.306-.627-.449-.452-.439-.151-.379-.376-1.276-.778-.678-.79-.658-.514-.888-.514-.509-.891-.249-.84-.369-.564-.858-.577-.519-.251-1.695-.502-.718-.025-1.067-.176-.888-.263-.638.201-.449.514-.479.339-.648.276-.249.978-.519.627-.429.038-.898-.226-.429.188-.259.389.11.916.598,1.631.03.527-.219.364-.858.351-.558-.088-1.376-.075-1.077.025-.558-.351-.588-.665-.908-.577-.419.1-.259.339-.16.602-.239.251-.538.176-.758-.238-.409-.276-.548-.1-.878-.426-1.137-.163-.798-.414-.598-.176-.628-.928-.289-.79-.499-.765-.489-.527-.459-.063-1.097.314-.548.376-1.107.577-.638.615-.399.891-.189.213-2.214,1.279-.459-.288-.319-.489-.728-.84-.768-.527-.249-.74.15-.878.189.038.718-1.003.539-1.33.529-.828-.868.163-.209-.64-.578-.414-.299-.602.06-.276-.329-.364-.748-.364-.848-.151-.748.05-.548.176-.549.753-.678-.138-.11-.715.399-1.066.09-.903.638-.426.459-.753.479-.426.529-.263.07-.288-.439-.314.369-.339.758-.238.02-.238-.768-.1.05-.527-.189-.577.339-.301.239-.464.658-.176.1-.414-.868-.063-.08-.238.419-.577.389-.251.17-.489-.289-.226-.798.376-.598.715-.419.176.03.514-.219.163.14.477-.469.514.189.376-.269.627-.439.489-.439-.025-.409-.326-.279.401.229.778-.768.288-.319-.301-.239.263-.987.013.469-.878-.459-.64.429-.351.09-.351.349-.276.07-.376.628-.627-.369-.489-.339.564-.868.778-.319.514-.399.339-.1.652-.459.163-.249-.263.399-.978.349-.226-.299-.878-.529-1.016-.15-.552-.439.489.01.539-.678.05.16-.414-.259-.163-.319-.878-.379.828-.1.803-.13.151.708.64.608-.1.289.163-.15.452-.339.389-.359-.238-1.326-.364-.07-.79-.598.038-.02-.615-.17-.238.1-.514-.389-.1.07-.452-.578-.627-.449-.941-.16-.627.259-.564.798-.84.648-.013.499-.489.06-.652-.479-.765-.469-.276.04-.577h-.459l.259-.753-.199-.64-.259-.326-.509-.941-.259-.803-.947-.615-.06-.288-.618-.314-.678.088-1.127.251-.718-.063-.319-.615-.758-.238-.08.238.519.727-.16.364h-.917l-.548.113-1.725-.439-.219-.188-.987.025-.698-.088-.199-.176-.449.59-.638-.251-.15-.615-.698-.665-.359-.74-.588-1.844-.479-.865-.04-.74-.229-.314-.13-.727.898-.226.349-.314-.14-.263-.558-.201-.648.013-.558-.577-.249-.05-.349.401.01-1.392.409-.364,1.137-.753.219-.351-.09-1.029.08-.514.349-.916.06-.414-.14-.803-.548-.59-.608-.238-.977-.803-.309-.452-.329-.778-.598-.615-.878-.477-.219-.677.1-.916-.11-.376-.529-.59-.449-.326-.618-.213-.379-.426-.18-.615-.309-.502.14-.552-.12-.376-.369-.351.14-.477,1.177-1.179.419-.577.06-.452-.279-.702-.558-.916-.568-1.342.18-.865.668-.326.758-.69.927-.652.07-.351-.289-.351.12-.552.419-.251.469-.013,1.675.778.598.426.389-.075.12-.389-.15-.464.738-.339,1.546-.953,1.217-.201.588.138.419-.176.16-.828-.14-.539-.439-.464-.499-.05-.459-.213-.977.088-.588.276-1.227-.276-.339-.251-.349-.778.17-.351.738-.113.568-.213.818-.025.329-.489-1.745-2.095-.07-.514.489-.477.678.426.14.326,1.047.063.209.226.429-.125.509-.351.189-.426-.07-.539-.219-.439-.429-.376-1.197-.477-.519-1.016-1.067-.978-.389-.539-.449-.928-.748-.84-.309-.615-.01-.677-.369-.263-.239-.464-.838-.615-.479-1.041-.878-1.066-.319-.138-1.436,1.392-.758-.176-.927-.865-.15-.288.01-.891-.668-.953-.339-.615-.439-1.304-.738-.351-.509.113-.09.326.329.74-.399.477-.588-.727-.329.013-.289.715-.329.138-.798-.213-.878.702-.778.201-.738-.803-.718-.088-.967.213-.359.552-.698.176-.908-.401-.369.163.519,2.759-.369.05-.519-.251-.927-.828-.309-.753-.967-1.054.01-.778-.718-.665-.608-.677-.558-.464-.588-.326-.359.163-1.047-.013-.568.326-.529.514-.429.125-.12.389.469.439-.229.314-.389-.251-1.765-1.505-.469-.552-.13-.477-.489-.326-.249-.891-.239-.314-.658-.426-.12-.201-1.167-.213.17-.564.578-.364-1.227-.176.209.502-.608.364-.279-.113-.638.238-.818.84-.199-.075-.339-.778-.04-1.631-.369-.176-.638-1.029-.588-.364.1-.489.389-.263-.11-.301.179-.439.838-.439-.179-.276.578-.464.319-.803.369-.351.449-.916-.189-.075-.369.69-.588.401-.309.426-.04.364-.568.376-.489.64-.199-.213-.539.401-.05.891-.179.088-.568-.891-.648-.301-.519-.075.03-.364-.429-.151.02-1.38-.578-.991-.219.201-.668-.151-.209-.314.09-.351.588-.401-.878-.364.1.389-.429.602-.319-.013-.249-.941.14-.376.489-.502-.179-.251.608-.627.219-.452-.09-.665.568-.514-1.117.013.229.389-.259.426-.359.226-.14.74-.638-.326-.249.263-.469-.489-.06.527.18,1.317-.01,1.041-.16.125-1.237-.74-.429.038-.369-.238.269-.564-.409-.865-.688-.364-.598-.602-1.047-.464-.399-.74.648-.263.658.1.299-.088.409-.778.628-.401.499-.652-.11-.376.409-.602-.03-.339.987-1.016-.519-.263-.329.464-.539.489-.668-.226-.489-.439-.03-.64.359-.326-.299-.238-.319.464-.249-.263-.259-1.041-.808-.865-.608-.138-.07-.401-.459-.69-.469-.439-.449-.213-.259-1.38-.638-.326-.249.326.668.138.09.953.329.853.818.426.07.389.459.74.588.339-.199,1.217.449.753.738.903.04.301.419.665-.349.314-.349-.464-.299-.113.13.828.469.677-.858.213-.439-.414-.429,1.003-.16.113-.13.903.409.778-.269.351-.439-.176-.04-.364-.439.125-.419-.665-.429-.276-.977-.226.229.452.578-.025.329.251.239.477.668.84-.439.213-1.127-.251-.319.928-.269.176-.558-.025.07-.414-.469-1.267-.608-.238-.07.364.608.376.04.702-.359.828.319.188.289.502.778-.288.449-.389.548-.916.409.477.219-.238.728-.213.339.527.977-1.154.748.727.728.188.239.627.469.753-.249.602.329.1.15-.364,1.147.602.299.238.668.226.1.502.359-.226.618.063.259.201.14.991.658.401-.12-.502.13-.464.399-.113.808.464.359.652-.499.59-.957-.1.16.74.02.916.469.063.02.489.768.075.239-.715.588-.125.449-.401.509.489-.399.891.359,1.041-.269.05-.339-.414-.539.276-.489-.151-.299-.414-.648.502-.598.326-.908.013-.618-.151-.409-.364-.409-1.129-.209.615h-.299l-.888-.376-.778-.527-.808-.1-1.047.251-.578.301-.688-.113.14-.702.01-.765-.11-.665-1.147-.276-.279.038-1.207-.113-.648.627-.359-.075-.03.452h.539v.577l.429.088.12.288-.469.853-.539.389-.927.238-.04.401.289.176.249-.452.957-.577.489-.514.269-.527.03-.489-.369-.376v-.364l.608-.088,1.167.351.479-.201.05,1.041-.648.602-.12.426.688.477,1.645.038.628-.414.379-.063.189-.426.838.502.678.527.05.815.539.326-.09.665.449.075.409.339,1.257.251.04.489.469-.1.409.1.269.439-.449.527.927-.251.439-1.091.608.113.359.502.219.803.539-.414-.329-.326.14-.414-.249-.702.768-.439.898.263-.419-.753.219-.477-.07-1.003.179-.151.848.276.08.314.708.865-.1.389.219.364-.12.489.529,1.179.389.301.957-.038.568-.677,1.007-.063.868.364,1.077.59-.449.552-.539.176-.299.539.04.464.479.213.06.251-.738.464-.279-.063-.519-.564.16-.502-.279-.314-1.267-.414-.688-.125-.878.201-.658-.063-.529.088-.688.753-.01.539.798-.878.678.063.429-.226.628.038.658-.113,1.207.401-.239.439.678,1.029.369.301.748-.113.997-.727.08-.364.449-.339h.977l.229-.276.937.966,1.576,1.242.548-.163-.529-.727.548-.326.708-.665.399-.176.858.075.558-.176.489.314.798.727.359.464.688.552-.05.702.229.389.798.828.279.702.957.865.868.288.13-.727-.209-.59-.309-1.518.12-.201.888.364.658.025.588-.602.828-.288h.788l.628.727.299.138.658-.188.937-.74.768.213.389-.251.259-.615.179-.013.678.74.459-.401-.309-.84.09-.339.379-.088.708.301.628,1.706.618.815.239.615-.05.64.15.263.898.903.748.276.389-.251,1.187-1.217.269.113.788.991.469,1.029.369.414.459.238.309.539.369.226-.02.564.369.778.519.502.967,1.706,1.107,1.041.309.702.289.401,1.147.439.399.326.279.552-.15.727-.389.326-.519.151-.189-.201-.917-.025-.209-.351-.618-.464-.688.577-.03.226.329.652,1.107,1.267.409.64-.299.238-.997.05-1.147.301-.18.414.289.677.429.401,1.396.301.519-.263.828-.063.469.188.499.025.489.477.11.615-.09.564-.189.151-1.057-.063-.658.063-1.247.627-.698.489-.688.301.07.665-.359.276-.728-.514-.379-.125-.917-.514-.429-.088-.568.075-.409.665.349.615-.07.263-.888.527-.738.727-.588.276-.399.527.08.539.519,1.179.848,1.518-.05.79-.349.426-.927.828-.459.815.479.615-.08.803.678,1.342.329.276.658.176.778.828.08.351-.1.966.11.527,1.516,1.041.469,1.141.858.903.838.389.439.326.309.727.01.665-.429,1.029.01,1.543-.259.364-.997.502-.359.314-.219.615.13.615-.229.652-.03.602.189.414-.07.489.389.163.499-.038.439.163.299.351.06.514.419,1.48-.957-.163-1.097-.389-.698.075-.509-.176-.828.414-.489-.226-.16-.276-.967.288-.13.84.429.025.738-.753.489.226.399-.063.489-.326.588.176.509-.075,1.047.389.519.025.927.288.459,1.643.638.778.219.765.608.715-.17,1.794.439-.69.1-.828.628-.627.399-.163,1.576.163,1.845.489.618.075.838-.176.778.176.708.339.16.226.927.727.818-.389.688-.088.239.113.01,1.405.07.652-.489.138-.239.401.219.288.499.151.359.376-.13.539-.568-.075-.389-.201-.688.489.339.226-.04.778-.189.853.249.665.11.665.289.552-.209.351.519.803.608.514-.04.389.14.69.389.514-.209.389-.489-.364-.369-.013-.977-.815-.519.414.02.803.818.151-.07.452-.409.426.888-.125v-.288l.618-.088.598,1.079-.509.916.07.727-.648.176.16.276,1.346-.514.189-.577.479.389-.927.765-.16.351.449.627.269-.351.688.251.598-.514.758.05.349-.113.578-.652.249-.088.558.865.189.489.778.602-.957.038-.509-.527-.09.502-.389.176-.269-.326-.469-.201-.179.163.259.64-.289.452-.618.226-.05.351.658.025.628-.138.189.188-.558.803-.429.151-.389-.075-.598.163.03.326.329.238-.01.376-.608.213-.429-.314-.389-1.016-.578-.038-.997.138-.249-.238-.758.1-.818-.125-.02.226,1.197.288.379-.013,1.117.414.339.251.369.828-.439.125v.351l-.499.301-.688.05-.499-.652-.469-.339-.219-.376-.917-.527.05.339.509.314.16.314.758.702-.01.552-.509.426-.509-.113-.449.276.937.163v.276l-1.027.941.11.276,1.127-.59.259-.916.529.238.189-.527.529-.013.568.502.489.753.329-.314-.389-.401-.179-.577.17-.326.698-.1.748.1.01-.564.339.013.369-.514.199.865.219.075.648-1.229.628-.452-.469-.276-.01-.414.788-.176.409.201.369-.539.429-.301h.369l.189-.276.937-.263.568-.765.349-.803.758-.288-.299.702-.13,1.003.249,1.016.598.414.678.125.429-.314.578-.903.668-.176.588.238.529.539.519.301.17.376-.15.477-.12,1.217-.838-.401.379.665.449.113.189.376-.13.414.219,1.166-.17.527.02.916.299.552.519-.025.838.464.698.966.459.213,2.483-1.417.359-.966.309-.401.718-.502.947-.452.309-.276.947-.263.548.038.768.903.449,1.154.778,1.016.838.301.479.263.748.05,1.316.514.509.088.459.326.219-.088.519.251.728-.251.429-1.003.309-.188.648.276.798.865.927.502.908-.075.788.025,1.107.176,1.057-.489.199-.665-.15-.539-.509-1.304-.07-1.016.439-.351.349-.05.509.213.698-.113.429-.502.179-.865.209-.276.947-.464.788-.727,1.685.288.668.201.798.05,1.436.439.558.263.868.64.539,1.166.14.489.628.727.748.401.828.765.429.514.618.326,1.167.828.399.163.449.426,1.097.577.539.188h.878l1.127.201,1.526-.288.898-.364.798.364.578.627,1.506.828.688.163.489.238,1.366.477.509-.339.379.263,1.366.339.329.577.13.652-.03.502-.568,1.079-.08.464.239.59.548.477,1.187.502.379.013.688-.351,1.436-.364,1.296-.213.748-.05,2.493.151.768.176.718.276.389.552.179.916.01.928-.509.815-.379-.452.349-.865.02-.602-.209-.276-.538.138-1.077-.564-.349-.038-.12.351-.379.288-.648-.113-.17-.401-.329.213.329.564.329,1.442.349.539.299.138.598-.038,1.426-.301-.289.426-.339.176-.648.828-.17.916-.349,1.304-.818.753.08.226-.828.84-.519-.075-.758.125-.249.364-1.326-.627-.868.426h-.828l-.189-.301-.568.276h-.848l-.568.201-.748-.276-.399-.702-.349-.125-.409-.514-.459-.176-.399.276-1.257-.201-.459-.301-1.975-.288-.439-.188h-.549l-.858.59-.628-.088-.459.376.668.201.608-.351.369.138-.469.615.768.075.648-.125.758.013.449.452.808.088-.11.364-.439.151.469.702.788-.138,1.436.038-.16-1.267.359.05.598-.138-.05.59-.299.176-.06.426.269.665.289.188h.558l.698.439.509.176,1.436-.038.908-.502.229.539.878.013.07.514,1.097-.426.239.276.678.376.588.213.189.464-.09.79-.349.74.818.602-.319-.941.259-.288.12-.602.409-.05.539.426.379.038.349.326.917.238-.239-.527-.648-.226-.249-.577-.708-.251-.08-.602-.309-.125.698-1.217,1.386.314,1.027.125.598-.238.429-1.43.568-.226.778.552.638-.088.219-.201.199.865.568,1.279.489.426,1.007.088.648-.188.578-.013.16.251.688.276.728-.038.349.213-.568,1.267-.17.677-.01.966.369.439-.219,1.794-.409.878-.499.364-.977.226.09.702.628.878.389.978.389.464.648,1.33.808,1.38.189,1.079.688,1.518,1.276,1.618.06.389-1.416.439.09-1.204-.209-.489-.299.088-.469-.489-.01-.351-.339-.163-.668.251-.618-.163-.219-.226-.758-.038-.15-.376-.628-.038-.16.627-.658.452-.199-.627-.319-.201-.14-1.116-.259-.326.558-1.116-.738-.389-.429.376-.01.527-.349.1-.219.389-.608-.251-.499-.69-.279-.702.02-.389.269-.376-.03-.765-.509-.088.279-.891-.419-.59-.349-.916-.409-.151-.04.464.479.339-.05.552.349.351-.07.414-.788,1.254-.578-.213-.12-.201-.628.564-.578.351-.399-.376-.339.251.229.652.229.113.1.677.698-.151-.09.59.738.201-.08.288.509.514-.05.414.519.376,1.187-.288.499-.201.209.426-.558.941.329.339-.16.464.568.702-.299.351-.419-.339-.379.063-1.227-.339-.379.038-1.187-.577-.259-.376-.868-.288.07-.527-.289-.138-.249-.514-1.017-.414-.269.201-.399-.163-.519.201-.339-.326-.539-.188-.538-.828-.429-.1-.808-.552.04.389.758.439.189.778-.489-.075-.229.452.768.063.539.502.459-.1.898.176.309-.075.738.426-.349.502.02.314-.309.314.08.326.728-.489.04.477.349.288.14.364.369.351.588.213-.229,1.079-.828-.05-.618.339-.269-.677-.329-.226-.199.477.319.1.538.64.788-.226.329.376.429-.088.06-.263.429-.251.14-.426.788-.151.568.74-.249.602.718.226.369.64-.199.953-.878.878-.06.376-.339.138-.489-.088-.15-.376-.927-.452-.319-.326-.249.477.11.339.499.288-.18.627-.898.1-.249.238-.638-.552-.519-.276-.758-.577-.199-.715-.429.314-.698-.125-.728-.263-.229-.602-.768-.151-.09.288.16.477.309.201.189.464.259.201.638-.025.16.339-.229.263-.529.201-.229.339-.349.038-.499-.326-.17.125-.858-.201.229.439,1.027.552.509.702.538-.815.798-.389.14-.301.818.113.519.326.608.941.269.138-.349.477.848-.163.618-.351.499-.514.259-.05.638.439-.598.389.578.564.449-.201.289.151-.11.376-.439.364-1.077.176-.429-.113-.509.238-.369.439-.838.288.09.188.868-.301.568-.376,1.187,1.003.618-.426.409.113.429-.238.12.376-.499.502-.1.702-.219.314-.798.69-.359.439-.02.452-.728.564-.449.489-1.725,1.166-.718.063-.838.251-.13-.803.11-1.304.09-.125,1.007.063.329-.389-.07-.84-.429-.288.269-.376.13-.564-.269-.815-.379.025-.489-.502-.319.477.369.339.04.326-.289.201-1.446.088-.189-.314.259-.213-.09-1.819-.409.213-.15.59-.778.013-.459,1.217-.409.063.289.452.499.201-.489.577-.409.828-.199-.727-1.037-1.618-.768.075-.08.201-.658.339-.06-.59.249-.966.259-.176.728-.063.429-.991.369-.326-.05-.426-.678.151-.379-.452.12-.464-.219-.439-.17-1.166.499-.527-.199-.414-.02-.539-.748-.439.539-.69-.15-.326.269-1.756-.469.389-.269.878.07.878-.529.577-.349-.138-.409-1.242.04-.314.409-.615-.03-.677.568-.176.239-.564-.03-.665-.558.514-.1.351-.469.301-.07.615-.598.665-.259-.163-.17-.602-.399.803.189.753.608.828.13.464.319.201.379.564.708.314-.13.627.349.727-.01.326-.439.702-.02.477-.608.564-.409.188-.828,1.242-.09-.376-.379-.602-.409-.314.13-.765-.369-.489-.449.013-.588-.226-.399-.401.04-.539-.748.088.499,1.129.279.151.439.702.648.652-.219.966.409.577.389.138.429.765-.179.376-.379-.276-.289-.69-.748-.615-.359-.79-1.057-.527h-.449l-.479-.301-.419-.615-.748-.853.11-.351.439-.351-.11-.276-.469.351-.399-.05-.229-.577-.359-.301.05-.439-.249-.414.359-.301.568-.05-.14-.364.658-.615-.15-.589-.259.1-1.067,1.016-.539.163-.189.477-.967-.013,1.237.652.04.376-.499.652.439-.05.289.778.329.163.698.878-.578.288-.469-.151h-.828l-.259-.151-.399-.727-.229.351-.349-.615-.369.063-.16-.577-.409.075-.558-.753-.02-.865-.15-.577-.519-.213-.459-.652-.249-.025-.06.69.748.539.409,1.166v.74l.628.953.608.301.489.564.479.163.15.64-1.177.163-.11.389-.469-.088-.688-.414-.439-.652-.379.113.628,1.229.329.188.309.452.957-.364-.02.815.359.188.199-.364.539.038-.14-.452.179-.376.319-.075.429.326.409.075.459-.238.598-.59.309-.151.459.439-.14.426,1.147-.063.908.527-.15.527-.299.426-.02.364.289.502-.359.038-.728.389-.179-.715-.249.238-.179.891-1.207-.201.239.326-.15.339-.838.176.09.426-.529.389-.02.314.848-.439-.04-.238.898.025.399-.477.499.025.399.64.339-.715.389.201.269-.301.339.075.369-.527.748.063-.09.878-.758,1.066-.519.301-.02.59.678-.552.578.426-.01-.991.708-.176-.11-.314.578-1.179.798.163.568,1.166-.07.401-.618.1.339.351.319-.276.818.176.778-.063,1.077.489.299.389-.209.339.11.351.449.038.369.74-.17.891-.379.326-.04.326.209.489-.539-.013-.399-.263-.14-.615-.638-.364-.209.426.359.151.269.941-.519.125-.539.464-.469-.815.179-.74-.399-.125-.598-.828-.07.84.399.464-.13,1.029-1.067.452-.718-.577-.13-.502-.399.251.02.514.768.878.02.251-.987.113-.519.564.558.151.309-.351,1.217-.038.09-.326.578-.276.479.477-.628,1.079.529-.075.259-.414.359-.063.12-.665.728-.151.808-.502.419.251.439.063-.01.477.808-.351.219.401.449-.84-.479-.188-.05-.364.389-.426-.419-.627.628.1.199.351-.229.74.329.452.947.276.349-.151.778-.013.638-.213.898-.088.588.176.509.727-.06.226-.718-.213-.12.715-.359.351.479.351.02.452.299.263.1.539-.14.564-.529.702-.529-.201-.17-.339.429-.477-.429-.389.15-.276-.529-.426-.16.665-.708.314-1.147-.05-.249.389-.13.577-.558.251-.16-.527.03-.489.259-.263-.09-.339-.399-.113-.02.477-.429.426-.618-.502-.15.514.16.351.459.288-.489.314-.259.615.06.301,1.027-.038-.01.527-.768-.025.269.865-.379-.013-.359.389-.479-.025.239.828-.239.953.439.05.08-.351.588-.539.578-.326.598-.665.339.176.05.539-.13.464-.668.665-.519,1.003-.499.602-.219.577-.509.213-.04.489.199.163-.668.953-.499.426.13.84.219.627.339.577.578.702-.1.251-1.027-.339.249-.602-.299-.301-.349-.025-.688-.79-.12-.314-.558-.213-.299.339,1.167.778-.03.276.349.276-.249.727.249.489-.469.301-.469-.201-.509-.539-.509-.125-.728.113-.618.464-.668-.627-.409-.163-.539-.452-.469-.702-.808-.627-.947-.514-.469-.013-1.217.389-.848-.263-.947.464-.199-.564.14-.627-.12-1.794-.449-.452-.678-.151.678-.928.09-.916.449-1.706-.399-.853v-.84l-.179-.539.289-1.656-.229-.251-.299-1.016.03-.464h.339l.16.351.688.188.17-.213-.698-.539.329-1.054.708-.238.718.251.459-.088-.03-.314-.439-.025-.279-.251.479-1.242-.818.828-.199-.426-.1-.815-.588-.452.319.978-.1.426.189.376-.13.401-.947-.213.399.452-.189.527-.329.426-.618-.088-.778.364-.558-.251-1.117-.903-1.356.351-.818-.865-.189-.414-.389.075-.838-.966-1.296-.652-.578-.489.189-.564.399-.088.768-.527.06-.79.239-.502.568-.326.16-.452,1.037-.038-.179-.276-.549.05.219-.464-.189-.364-.828.803-.429,1.041-.309.088-.419.865-.608.213-.479-.226.429-.778-.07-.489-.309-.502-.588-.464-.419-.803-.688-.414.379.991-.11.163,1.326,1.593-.588.665.349.514.189.677-.598.389.01-.79-.11-.577-.429-.74-.08-.389-1.157-.602-1.047-.088-.598-.251-.219-.552-.908-.828-.379-.1-1.446.602-1.127-.251-.06-.439-.808-.251-.05-.502.977-1.605.389-.326-.678-.891.06-.351.389-.176-.05-.765.1-.69-.499-.1-.07.727-.558.64.259.188-.12.589-.379.314-.189.539-.369.464.269.778-.548-.113-1.027-.778-.578.025-.439.288-.529.853-.399-.075-.01,1.129-.858-.753-.648-.414-.977-.464-.329.201-.558.025-1.037-.301-.808-.527-.479-.1-.399.564-1.047.05-.708-.125-.419.351-1.566.615-.219-.063.03-29.112-39.132-.013h-5.605l-19.157.013.05,41.642,32.54,17.861-1.147,1.405-.878-.502-.529-.1.1.489.509-.125.718.364-1.456,2.019-.389.226-.598.778-.229.615-.339.514-.558.288-.738.151-1.067-.075-.558-.151-.808-.702-.539-.778-.768-.514-.738-.238-.738-.05-1.217-.401-2.244-.477-1.037.025-.748.138-1.326.527-.718.514-.798.778-.997.828-.299.364-.628,1.003-.917.69-1.007.088-.459-.05-1.007-.489h-.778l-1.207.652-.888.84-.539.276-.01.64.219.552-.917.59-.718-.038-.509-.376-.449-.1-.558-.577-.259-1.392.01-.803-.239-.226-1.007-.201-.319.151-1.047-.276-1.097-1.405-.379-.163-1.017-.176-.509-.176-.638-.84-.269-.213-.509-.05-.768-.263-.698.151-.768-.665-.927-.176-.788-.263-1.077-.464-.299-.401-.459-1.003-.439-.502-.868-.665-.578-.903-.539-.276-.878-1.543-.828-.765-.778-.514-.239-.038-.858.201-.558-.05-.798.326-.279-.125-.239-.577.369-.715.08-.414-.249-.414-1.237-.314-.429-.351-.658-.803-.888-.69-.947-.188-.638.063-.798-.176-.239-.201-.588-.891-.738-.665-.798-.489-.568-.753-1.037-.677-.648-.226-.289-.364.12-.615-.16-.715.349-.477,1.077-.627.299-.502.319-.991.02-.715.469-.753.339-1.003.399-.677.09-2.107-.13-1.417.189-.615.987-.878.598-.038.678-.339-.06-.564-.289-.527-.768-.251-1.107-.778-.818-.176-.269-.226-.389-.803-.558-.502-.529-.201-.947.276-.399-.276-.269-.665.339-.389.539-.151.558-1.769-.15-.903-.668-.778-.499-.263-.608-.125-.319.088-.808-.376-1.127-.414-.588.088-1.147.602-.858-.414-.199-.665-.319-.151-.698.176-.199.602-.529.753.239.339-.539.201-.439-.464-1.187-1.944-.449-.251-.698-.013-.469.188-1.017.978-.269.452-.189.715-.359.79-.558.314-.509-.376.219-1.192-.329-.351-.598.125-1.127-.013-.279-.075-.908-1.016-.848-.013-.369.188-.409.753-.927.088-.459-.489-.439-.226-.259-.627-.14-1.656-.808-1.091-1.865-2.132-.479-.414-1.117-.389-.738.176-.349-.176-.798-.138-.618.138-.319-.263-.14-.452-.539-.74-.339-.314.309-.464.479-.025.219-.288.05-.865-.439-.803-.548-.339-.229-.439-.239-.991-.957-1.417.18-.439.548.151-.11-.74.14-1.254-.199-.715.07-.414.449-.075,1.446.351.479-.376.02-.364-.419-.376-2.054-.891-.499-.778-.05-.276.369-.326.927-.201.13-.151-.758-.84-.658.74-.598-.013-.548-.314-.369-.715-.15-1.029-.199-.364-.578-.263-.15-.878-.349-.966.05-.665-.13-.351.359-1.292-.15-.426-.389.263-.14-.778.339-.151.509-.64.329-.151.509.314.389-.038-.05-.464.369-.364.399-.113-.429-.426-.15-.702.898.314.598-.238.588.251.249-.727-.369-.326.17-.226.598.276.808.552-.469-.853-.439-.263-.03-.79-.618.464-.09-.978-.18-.627-.519-.263-.389-.401.937-.038.798.075.668-.439-.558-.439-.539.251-.878-.251.289-.69.698-.577.848.113-.269-.753.289-1.129.339-.351.708-.163-.449-.477.359-.314.209.326.738.464.439-.013.409.878.828.038.219-.288-1.017-.489.1-1.154-.449.339-.319-.364-.1-.489-.548.389-.578-.263-.718.238-.16-.464-.309-.276-.259.803-.419.364-.828-.815.06-.527.219-.489.379-.314-.279-.339.309-.389.888-.038.259.828.209-.464.608.176.15-.351.768.188.339-.652-.319-.263.409-.84.868-.602-.529-.263-.299.339-.439.201-.279.577-.598-.188-.01-.891.229-.326.997-.69-.529-.063-.409-.263-.14-.803-.219.038-.09.815-.389-.038-.798.263-.259-.138-.1-.677-.499.188-.16-.552.329-.602.219-1.079-.738.314h-.808l.17.59-.319.426-.419-.339.07,1.091-.1.263-.469.138-.319-.652.329-.514-.788.151-.449-.401.189-.652-.519-.301.12-.301-1.037.063-.678.276-.14-.301.13-.539.698-.251-.459-.401.12-.452-.08-.489.888.326.229-.226.239-.74-.289-.088-.349-.765.13-.477.997.025.1-.163.838-.489.219.339.469-.038-.249-.589.219-.163.947.1.399.188.319-.452-.908-.364-.12-.376-.429-.163-.987.125-.698-.339.339-.188.788-.075.229.188.688.151.529-.188.409-1.029.379-.389.758-.326-.03-.301.608-.602.319-.765.648-.502-.598-.1.1-.502-.618.263-.409-.138-.568-.652-.688.464-.399-.05-.529-.452.269-.665.539-.025.189-.213.738.05.11-.452-.738.176-.419.226-.648-.1-.289.527-.1.489-.289.527.229.125.259.727-.369.251-.349-.125-.259-.439-.479-.1-.738-.426-.708-.602.179-.238,1.037-.1.778.314.319-.188.01-.452-.439-.74-.818-.59-.738-.401v-.151l.957-.176.618-.477.11-.502.548-.677.239-.489-.269-.941.708-.502.449-.075-.12-.539.319-.063-.349-.652.15-.301-.14-.376.249-.627.838-.063.16-.226.768-.176.539-.401.16-.452-.449-.527.01-.477.229-.176.808-.226,1.117-.075.519-.765.409-.238.05-1.442.16-.351-.499-.677.06-.238-.509-.865,2.942-10.987,3.241-12.355,3.55-12.756,3.67-12.279,3.381-12.543,3.67-12.467,3.52-12.304,4.169-15.264,20.992-.075,25.689-.1h30.446l.249,6.522.07,2.948.06.314.1,3.161.08,5.23.499,16.506.17,2.709.209,9.721.439.84-.08,1.242.449.414.289.527-.219.414.03.539.399,1.33-.03.564.359.865.349.288.17.439-.279.552.199.514.369.238.578.113.249.326.319.84.04.59.588.226.02.339h.658l.838.464.688.226.14.828.329.753-.07.288.439.853-.05.389.16.677.329.539-.199.79.07.514.898.025.389.602-.229.778.179.414-.03.828.309.314.379.903.539.301.14.715-.11.176.269.84.539.213.788-.138.199,1.555-.17.376.409.778-.399.326-.628.013-.219.414-.02.715.18.351h.718l.04.426-.179,1.982.11.765.598.339.957-.038.229.627.509,1.016.489.238.648.05.18.176-.219.665.07.276.967-.088.399.201-.06.615.259,1.091.648.226-.15,1.292.269.151.359-.251.548.088ZM205.578,221.418l.02-27.456.588-.151.578.025.359-.251.529-.778.389-.188,1.047-1.003.608-.188.239-.477.479.063.758.539.977.364.548.013,1.326.276.808.778.229.677.628.176.808-.063,1.476.063.369.452,1.127.401-.01.69.748.401.299.891.568.389.937-.151.209.803.319.665-.608.452-.319.376-.389.138-.359.464,1.097-.339.618-.552.688-.038,1.047.276.598.941.259.038.648,1.856.798.238,1.147.803.808.677.698-.013.369.163.03.364.738.276.898.652-.12.527.499.276,1.865,1.693-.339,1.154-.309-.05-.08-.439-.608.213-.469-.163.03.489.309.251.379,1.292.409.778v.552l-.658,1.091.529.05.1.702.229.439.728.502.319.765.698.765.189.339-.179.389-.299.038-.568.477-.429.025-.17.351-.1.74-.608-.05-.359.188.07.477.758.627.309.013.519-.84.638.339h.279l.429-.477-.02-.702,1.376.477.628.364-.189.326-.778.539-.648,1.079.539.314.339-.426.449.075.758.452.558.05.309.452-.439.577.299.088.359-.715.898.464.529.063.848.69.798.188.808.727.03.539.678.803.399.238,1.077-.314.927.188.469-.1.249.226.977.213.768-.226.848-.59,2.034-2.571.519.201.319.489-.618.301-.618.765-.15.602.369.288-.499.477.249.389.828-.038.279.627-.698.288-1.336.69-.768.226-1.286.702-.179.201-1.207.815-1.316,1.104.01.364-.598.753.06.452-.449.978-.578,1.794-.509,1.016-.648,1.079-1.157.477-.319.263-.519-.201-.329-.364-.578-.238-.399-.715.828-.1.05-.439-.718-.426.229-.188.718.151.04-.489-.419-.815.499-.489-.499-.552-.548.151.11.64-.578.702-.578.151-.209-.602-.489.401.658,1.38-.878-.151-.359-.527-.369.263-.06.364.329.489-.459.1-.269.288.16.351.927-.238.459.025.249.564-1.486.64-.618.176.08.301,1.336-.025.479-.125.439-.401.259.151.12.552-.279.439-.568.527.05.251-1.237,1.856-.778-.063-.519-.314-.519-.489-.898-1.881.319-.953.239-.163.11-.69.309-.702.618-.916.489-.389-.229-1.957-.12-.314.828-.828h.429l-.01.351.568.05.628-.489.389-.063.219-.414-.349-.665-.349.64-.439-.05-.199-.878.269-.602.05-.452.578-.577-.1-.464.499-.213-.509-.426.539-.865-1.187.339.309.602-.319.564-1.047.013-.499.276,1.187.188-.209.59-.319.426.349.125-.12.552-.269.426-.608.226-1.316.188-1.007-.013-.987.125-1.436-.351-.15-.527.788-.564.329-.677-.658-.038-.239-.389-1.267.151.09-.941.459-.64.898-.1.718.063.668-.263-.219-.226-.558.088-.329-.113-.768.013-.299-.288-.748.439-.519-.038-.17.527.379.226-.638.74.17,1.53.598.276.229.489-.598.477.07.652.319.113-.399.765-3.062.314-.02.075,3.091-.301.319,1.003.09.953-.199,1.028.219,1.769-.16.05-.419-.853-1.107.038-1.376.125-1.865.251-1.466.125-.888.138-.09-.201.399-1.029.05-1.091.648-.138,1.097-.64-.04-.401-2.722.276-.239.113-.369.59.209,2.082-.15,1.154-.249-.075-1.067.288-.997-.188-.01.665-1.217-.226-1.037-1.555.189-.627.668-.201-.06-.238-.668.05-.838-.151-.189-1.355.648-.075.1-.426,1.795-.176-.628-.314-1.755.201v-.201l1.496-.163-.03-.238-1.506.176.02-.188,1.037-.138.379-.238-.09-.853.588-1.229-.189-.715-.568-.276-.538-.564.08-.853.678-.677.628.339.937-.577,2.294-.326-1.376-.1-.399.213-.199-.953-.369-.665-.379-1.066.09-.665-.249-.677.459-.79.449-.125.459-1.229.987-1.116.16-.602-.499-.251-.189-.452.339-.59.389.251.788-.038.728-.477.389-.113.359.238.349-.025.419-.376-.558-.489-.04-.276.459-.677.708.213.439-.088.309.452.848.552.189-.163-.499-.539-.269-.05-.199-.502-.848-.251-.18-.702.519-.891,1.057-.276h.499l-.409-.527-.309-.038-.768.364-.229-.715-.249-.364.479-.263.419.439,1.077-.351.977.05-.718-.477-.758.088-.299-.364h-.858l-.13-.615-.558-.213-.14-.652.02-.69.179-.426-.349-.452-.07-.376.15-.514.708-.452.01-.326-.728.314-.459.414-.209-.376.269-.464-.17-.176-.558.916-.329-.138-1.137.176.977.314.259.188.459-.125.319.715-.179.339.229.74-.14.452.369.991.09.79.319.439-.249.426.11.539-.249.276-.489.013-.588-.552-.598-.025-.16-.238.07-.602-.548.414.419.853.339-.063.379.552.648.339.409.025.06.426-.449.314-.598-.163.349.953-.588.564-.848-.314-.15-.326-.947-.113-.758-.514.03-.364-.239-.389-.339-.075-.618-1.304-.578-.489-.688-.151-.239-.69-.239.238.08.815.618.163.369.364.379.025.05.928-.229.301.309.477-.519.439.369.238.937.364.818.088.519.439-.349.477-.658.163-.359.753-.519.188-.519-.426-.489-.05-.359-.314-.209-.552-.299.075.12.727-.608.125-.279-.201-.279-.778.369-.339-.459-.527-.13-.727-.668-.502-.05.426.319.351.14.753.229.364-.199.69-.738-.464-.718-1.166-.03.59.349.941.529.113.229.477-.02.665-.638.251.199.339.539-.1.409-.414.768.138.608-.414.469.464.489.075.509.74-.14.753-.389.477-.409-.151-.718.288-.618-.05-.349-.615-.678.615-.658-.414-.14.251.249.502.658.088.219.176.808.025.339.426-.13.314-.798.276-.239.514.768-.201.339.1-.16.64-.828.702-.08.489.349.326-.279.351-1.017-.1-.578.401-.389.502-.808.64-.309.1-.738.552-.279.339-.638.426-1.107,1.116-.269-.339,1.247-1.154,1.217-1.003.04-.514-.698-.753-.329-.602.1-.489-.02-.815-.14-.288.12-.439-.219-1.894-.189-.226-1.237.452-.279-.59-.618.025-2.174.903ZM266.839,212.249l1.077.125,2.314,1.028.668.426.08.552-.389.577-1.207,2.195-.459.527-1.247.753-4.787,3.086-1.017.615-.987.339-1.097-.025-1.735-.828-.299.163-.758-.715-.459-.652-.06-1.518-.449-1.066.199-.414,1.685.038.648-.552.519-.59,1.266-.276.678-.288,1.835-1.317,1.107-.69.259-.276,1.895-.991.459-.589.259.364ZM268.115,181.808l-.249.088-.04.552.329.803-.07.602.419.226.16-.665.758.038,1.137-.865.389.527.708.564,1.296-.113.708.514.548-.013.389.439-.17.414-.05.665.189.753.678,1.116.888.815-.758.113-.539-.151-.748.088-.967.439-.319.288-.02.602-.529.527-.03.966.279.74.459.439.578.376-.628.426-.409.025-.219-.288v-.865l-.269-.339.07-.477-1.047-.828-.09-.928-.678-.514.209-.477.379.401.349-.163.319-.452-.13-1.003-.349.176-.219.514-1.007-.414-.01-.502-.469-.063-.529.151-.299.351.09.477-.259.163-.11.439.289.953-.459.201-.16.514-.289.176-.459-.627.12-.59.578-.502-.02-.464-.419-.314h-.519l-.189-.326-1.107-.389-.279-.389-.229-.64.219-.439.459.376.608.226.179-.351-.189-.389-.539-.364h-.389l-.209-.539.369-.113-.18-.426.11-.389-.608-.364.06-1.204.15-.339.548.389.947-.489.529.05.419-.414.638-1.179.09.828.179.401-.369.426ZM205.598,193.674v-1.229l1.785-.702.588-.376.529.151.449-.063-.818.953-.788.602-.269.452-.469.226-1.007-.013ZM265.383,154.402l-.519.063-.558.577-.299.828-.249-.301.269-1.204.189-.389.568-.426.548-.213.05,1.066ZM254.124,224.554l-.568.564-.618-.339-.09-.314.329-.213.678-.113.987-.401-.718.815ZM263.089,152.195l-.04.577-.419-.226-.419-.426.439-.188.439.263ZM263.538,155.995l-.359-.263-.02-.539.578-.665-.259.978.06.489ZM277.619,188.845l.738.188-.419.339-.319-.527Z"/>
  </g>
</svg>