<?xml version="1.0" encoding="UTF-8"?>
<svg id="carroll" xmlns="http://www.w3.org/2000/svg" viewBox="0 0 348.713 249.709">
  <defs>
    <style>
      .cls-1 {
        fill: #fff;
      }
    </style>
  </defs>
  <g id="Carroll">
    <path class="cls-1" d="M267.733,151.195l-1.451.443.535-.691-.296-.407-.944-.071.014,1.063.366.921,1.127.62.873,1.807-.239,1.222-.563.903h-1l-.521-.39-.648.496-.746-.283-.732.567-.268,1.435.718.709-.056.425-.62.266-.859-.23-.535.089-.732-.372-.423,1.559-.465.39-.254.833.141,1.205-.197.903-.239.266-.887-.319-.479-.62-.606.053-.085-1.169.225-.496-.268-.443-.592-.177-.704-.886-.042-.939-1.014-.142-.155-.496-.761.195-.479-.425-.423-1.47-.704,1.665.423.974,2.042.337.394,1.01-.028.744-.704.319.197,1.063.507.496.113.567,1.253,1.311-.127.425.465.602,1.239.425.676-.159.239.39-.577.478-.366,1.222-1.113.673-1.253.106-.169.638,1.324.921.859.779.366.886-2.113-.478-.831-.443-.042.567-.352.461.338,1.364.718.425.099.709.606-.195.394.425-.338.638h.944l.141.903.451-.39.577.071.732.531.746-.23.901-.638.549-.071.577.301.239.691-.732.585-.859-.053-.38.372-.296,1.541-.732-.372-.423.142-.324-.709-.606.177-.535-.549-1.211.39-.549.425-.437,1.222.535.62.38,1.293-.648.531-.606.089.028-.602-.718.23-.028,1.488.563,1.346-.648.124-1.084,1.63-.549.071-.577-.585-.352-1.045.634-.053v-.425l.563-.691-.662-1.098-.437-.106-.056-.585.268-.709.479-.195-1.268-1.063-.296.213.746.957-.324.744.254,1.098-.155.354-1.014.461.296.425v1.222l.493.868.042.549,1.056.744.732.124-.507.744-.042.461-.549.124.422.62.056,1.24-.127.372.789.248,1.028-.035,1.775-.974.437,1.222.563.602-1.268.461-1.056.018-1.169-.903-.592-.071-.944.514-.521-.177-.563-.886-.07-.85-.296-.159-.437-2.232-.366-1.116-.704.337-.648-.248v-.531l-.563-.071-.211.744-.507.301-1.986-.461-.535-.337-.141-.638-.648-.372-.831-.053-.62.779-.577.266-1.408-.939-.268.549-.606.407h-.789l-1.535-.691-.451-.407-.014-.567-.521-.744-.169-.602-.648.283-.859-.337-.718.868-1.042.124-.704-1.399-.155-1.222.521-.407-.169-.726.38-.319.38-1.134-1.577-.23-.239-.248-.93-.159-.423-.301.31-1.169-.859-.921-.451-.071-.62.425.592.443.437.744-.155.567.394.407.563.142.549.496.592.089.338.531-.662.726-.296,2.356-.676-.195-.746.726-.732.425-1.225.266-.338-.089-.577.709.268.585.479-.797.676.053,1.915-.461.662-.301.493.142.972.709.211.461-.831,1.683.493.266.338-.744,1.887-1.453.718-.053.507.301,1.113.283.746.709.662.407.634.691,1.183-.283,1.028-.053,1,.177.648-.142.253.478.521-.443,1.422-.089,1,.833.986-.053.746.337.493.478-.239.283.831.39.521-.213.648-.62.465.443-.141,1.01.183.62-1.563-.035-1.127.478.465.266,1.113-.159,1.282.301,1.197,1.895-.183.514-.915,1.222.761,1.187.549-1.116.408.266.915-.106.197-.85.859-.425.549.337.38-.213.507.691.944-.035.577-.602-.169-.514,1.014-.159.451.319-.38.673.592.319.085.726.887-.142.366-.567h.606l1.07.478-1.099.673-.577-.124-.085.992.563.868-.873.638-.986-.213-.648-.301-.254.673.338.354.211,1.258.38-.372.958.071-.056.585-.479.797-.676.744.38.709-.437.354-.718-.142-.423-.531-.099-1.081-.437-.39-.028,1.329.197.673-.662.602.225.726.648-.053.437-.514,1.31.833.507.903.451-.283,1.099.319.028.407-.634.602-.465-.833-.901.213-1.014-.106-.493.319-.521-.248-.225.638,1.521.213.437.443-.887,1.063-.803.602.056.337,1.113-.106.042.567-1.507.053.099.443.606.071.211.354-.831,1.01.648.159.676-.23.592.283.451-.567.718.39-1.465,1.683-.577-.071.268,1.346.521.974-.366.567-.944-.779-.606.177-.817-.23-.648-.815.352-.372.69-.142-.563-.602-.465.018-.225-.797-.521-.354.099,2.019-.746.071-.423-.443.113-.496-.704-.035-1.084-.478.141-.443-.831-1.063.366-.638-1.183.053-.028-.974.183-.762-.324-1.895-1.07.461-1.084-.177-.014-.779-.38-.248-.437-.886-.352.071.169.762-.296.779.549.762,1.127.337.817.071.366.496-.056.992-.352.673.141.709-.169.939-.507.549-.563,1.169.761-.283.648-.567.62.035,2.07.939.69.62,1.451,1.027.239.549-1.239.921.38.177,1.268-.39.042.709.535.478-.07.903-.211.425-1.028-.266.113.549,1.648.514.465,1.47.634.425.408.709-.099.585.465,1.506.225,1.098,1.056.691.268,1.541.535,1.151.634.514h1.296l.915-1.01.634,1.187-1.296.266-.577.585.014.337.746,1.205,2,.886,1.479.921-.352.744-1.803-.213-.901-.283-.423.833.282,1.24-.169,1.736-.423.496-.592-.213-.69-1.116-.958-.372-.31.266.141.85-.451-.035-.69-.709.183-.549-.535-.514-.789.39-1.915.567-.958.053-.648.337-.986-.514-.803-1.098-1.606-.089-.662.195-1.451.744-.169.354.099,1.24.38.602-.535.496-1.07-.585-.408-.779-1.451-.39-.437.319-1.211-.035-.465-.283-1.901-.461-1.183-1.045-1.113.283-.817-.425-.31-.567-.915-.744-.775-.974-1.113-.283-1.197-.549-1.253,1.01-1.31-.762-.761-.248-.183-.797-.859-.514-.197.354-.901.089-.577.248-.465.585.38.407-1.253.39-.887-.106-1.253.124-.972.638-1.338-.762-.746-.921-.465-1.116-.423-.372-1.099-.461-.746-.797-.408-.124-1.352.443-.704.514-.352.762-.606-.407-1.338.142-1.563-.018-.704-.762-.718.319-.493.62-1.282-.177-1.268.585-.366.585-.859.177-.366.514-2,1.86-.113.602-.69-.053-.958.354-4.225-.23-1.606,1.045-.648.035-.859.354-.239-.142-1.056.142-1.084-.655-.127.638-.563.886-1.521.319-.535-.142-.183-.443-.93-.585-.239.089-.746.62-1.563-1.541.155-.939-1.422-.709-1.845-.903-1.099-.638-1.07-.443-.761-.425-1.084-1.098-.775-.089-.394.443-.028.053-.028,1.116-.38.337-.521-.053-1.915-.213-1.042-.124-1.76.089-.408-.319-.282-.39-.197-.301-.789-.673-.493-.195-1.648-.106-.31-.337-.901.213-1.225.053-.282-.939-.282-.585-.789-.638-.817.177h-.056l-.859.124-.535-.567-.282-.195-1-.549-.958-.124-.183.195-1.408.053-.493.106-.718.213-.324-.496-1.282-.514-.324.142-1.422-.177-1.042-.443-.831.106-1.352,1.24-1.225.478-1.253-.195-.423.106-.634.142-.521.443-.451-.106-.521-.035h-.113l-.225-.266-.38-.124-.676.585-.845-.159-1.113.514-.225.142-1.282.071v.035l-.099.177-.296.071-.099.035-.521.496-.662.443-1.268.354-1.282.992-1.141.337.211.425-.451.39h-.282l-.718.709-.732.85-.014.478-.549.266-.197.461-.732.833-.549.709-.986.868-.606.071-1.084.372-.732.762-.676.106-.93-.461-.901-.23-1.958-.744-.873-.673-.254-.248-.62-.319-1.07.018-.535-.266-.535-.762-.282.159-.704-.602.662-1.116,1.183-5.101.803-1.948,3.084-3.348-.577-.443.775-.903.493-.903-.084-.266.521-1.399-.141-.407.239-.726-.042-.762.549-2.161.394-1.24.042-.779-.225-1.435,1.507-4.198,1.451-4.358.465-2.427.183-1.771-.563-2.586.084-.992.521-.85,1.07-.797.761-.974,1.408-1.346,1.422-2.108.746-1.559,1.211-1.311.93-2.285.69-1.948,1.746-2.94.197-1.134.69-1.683.577-2.019,1.408-1.771.775-1.169.887-.921.817-1.382-.028-.354-1.31-1.523-.577-1.364.31-2.143.056-2.108.183-1.027.845-1.311-.296-1.878,2.507-3.029,1.197-1.63.746-1.559.211-.797.775-1.488-.38-.779.056-.514-.789-.744-.493-1.24-.901-.602-1.113.159-.493-.833-.521-.142-1.014-.957-.789-1.01-.324-.762-1.479-.407-1.493-1.258-.169-.549-.535-.567-.972-.691-1.197.779-.62-.089-.62-.992-.056-.691-.789-1.346-.676-.779-.113-1.098.352-1.063-.493-1.275-1.338-.85-1.662-.283-1.211.035-1.718-.23-.296-.691.352-.868-.099-1.081-.394-.567-.155-1.24-.042-1.594-.451-.478-1-.567-.845-.106-.423.337-.746-.018-1.07.372-1.408.035-.592-.266-.423-.726-.732.407-.535-.354-.465.177-.859-.407-.324-.868.493-.496-.141-1.134-.324-.337,1.225-1.948-.38-.886-.803-.142-.732-.868.197-1.435.254-.337-.113-.886.676-.496.451-1.24.366-.071-.155-1.01-.394-.709-.563.283-.254-.744-.62-.354-.845-2.161-1.577-.709-1.07.443-.479-.018-.577.478-.718-.159.014-.638-.986-.903-.761-.195.254-1.293-.38-.407.099-.85-1.141-1.134-.732-1.045.014-.354-.915-.833-.423.106-.746-.567-1.591-1.842-.577-.461-.211-1.222-.38-.248-1.563-.39-1.535-.089-1.789.301-.831.39-1.099,1.789-1.31,1.098-.507-.407-1.958-.992-.408-.496-.07-.655,1.113-.23.746-.939-.225-.921-.535-.762-.831-.407-3.704-.106-1.324-.673-.324-.673.761-.62.831-.248,1.056-.089.225-.567-1.662-.673-.746.106-1.521.691-1.141,1.754-.324.337-.493-.195.014-1.523.211-.425-.085-.709-.93-.85-.817-.407-.958-.815-.69-.301-.69-.638-.662-.868-.592-1.541-.338-.514.169-1.116-.577-1.027-1.986-1.01-1.056-.213-.521.071-1.099.85-.817,1.63.465,1.913.859,1.346-.324.301-1.366-.071-.239-.159-.394-.992-.662-1.293-.507-.514-1.859-.744-.197-.921.507-.868-.056-.903-.479-.939-.437-.266h-2.451l-1.099-.407-1.606-.053-1.676-.425-.62.018-.606.655.211.957-.662.514-.859-.124.225-.886-.085-.549-.887-1.169-1.268-1.453-.577-.425-1.62-.337-.718-.372-.549-.585-.972-1.47-.761-.496-1.056-1.382.296-.638,2.62-.797,1.028-1.435-.507-.939-.761-.514-1.338-.177-.423-.195-.535-.726-.803-.691-.761-1.222.014-1.665-.141-.974.113-1.116-.944-.921.07-.762.789-.602,1.239-.354,2.098.549,1.563.638.69.815.056,1.364.31.531,1.127.974.183.744.606.567,1.056.425,1,.177.296-.248,3.803-.159.944.106.732-.159.972-.514.197-.567-1.07-1.488-.577-.567.07-.602.944-1.329.493-.337,1.831-.638.592-.673-.056-.549-1.408-1.789-.662-.585-.014-.62.62-.691.746-1.701,1.76-1.523.887-.301.577-.425.493-.62.169-1.169-.394-1.577-.394-1.081.859-1.134,1.239-.709,2.267.868.69.496.549-.213.099-2.604.282-.354h1.07l.915.407,3.211-1.399.761-.531,1.099-1.364.901-.62.789-.726.408-.833.69-.779.239-1.293-.972-.939.225-2.161-.169-.903-.394-.567-1.282-.673-.775-1.275-.718-.638-.887-.354-.099-.567.352-.797.141-.779.845-.496,1.042-.018,1.155.549,1.38.106,1.169-.106,2.366.655,2.38-.779,2.225-.833.775-.638.761-1.417-.549-1.47-1.479-1.063-1.986-.461-.62-.407-.873-1.01-.254-.585.07-.726.394-.815.606-.425,2.958-.496,1.253-.638.254-.337-.056-.779.338-.567.197-1.594-.577-1.169-.535-.372,7.324.035,93.502-.106,9.38-.195,9.338-.035,18.661-.106h9.394l18.731-.071,18.661-.035,18.703.053,8.915-.053-5.887,21.557-4.972,17.377-5.183,17.607-4.774,17.714-5.183,17.342-5.014,18.015-4.577,17.448-4.155,15.517Z"/>
  </g>
</svg>