<?xml version="1.0" encoding="UTF-8"?>
<svg xmlns="http://www.w3.org/2000/svg" viewBox="0 0 1359.587 670.2">
  <defs>
    <style>
      .cls-1, .cls-2 {
        fill: #fff;
      }

      .cls-2 {
        stroke: #fff;
        stroke-miterlimit: 10;
        stroke-width: 50px;
      }
    </style>
  </defs>
  <g id="Layer_11" data-name="Layer 11">
    <g>
      <path class="cls-1" d="M930.511,444.371h429.076v225.829h-429.076"/>
      <path class="cls-2" d="M930.511,470.428h429.076M1359.587,505.171h-429.076M930.511,539.914h429.076M1359.587,574.657h-429.076M930.511,609.4h429.076M1359.587,644.143h-429.076"/>
      <path class="cls-1" d="M930.511,444.371h171.63v121.6h-171.63"/>
      <g>
        <g id="s18">
          <g id="s9">
            <g id="s5">
              <g id="s4">
                <path id="s" class="cls-1" d="M944.814,449.582l4.084,12.57-10.693-7.769h13.217l-10.693,7.769,4.084-12.57Z"/>
                <path id="s-2" data-name="s" class="cls-1" d="M944.814,473.902l4.084,12.57-10.693-7.769h13.217l-10.693,7.769,4.084-12.57Z"/>
                <path id="s-3" data-name="s" class="cls-1" d="M944.814,498.223l4.084,12.57-10.693-7.769h13.217l-10.693,7.769,4.084-12.57Z"/>
                <path id="s-4" data-name="s" class="cls-1" d="M944.814,522.543l4.084,12.57-10.693-7.769h13.217l-10.693,7.769,4.084-12.57Z"/>
              </g>
              <path id="s-5" data-name="s" class="cls-1" d="M944.814,546.863l4.084,12.57-10.693-7.769h13.217l-10.693,7.769,4.084-12.57Z"/>
            </g>
            <g id="s4-2" data-name="s4">
              <path id="s-6" data-name="s" class="cls-1" d="M959.116,461.742l4.084,12.57-10.693-7.769h13.217l-10.693,7.769,4.084-12.57Z"/>
              <path id="s-7" data-name="s" class="cls-1" d="M959.116,486.063l4.084,12.57-10.693-7.769h13.217l-10.693,7.769,4.084-12.57Z"/>
              <path id="s-8" data-name="s" class="cls-1" d="M959.116,510.383l4.084,12.57-10.693-7.769h13.217l-10.693,7.769,4.084-12.57Z"/>
              <path id="s-9" data-name="s" class="cls-1" d="M959.116,534.703l4.084,12.57-10.693-7.769h13.217l-10.693,7.769,4.084-12.57Z"/>
            </g>
          </g>
          <g id="s9-2" data-name="s9">
            <g id="s5-2" data-name="s5">
              <g id="s4-3" data-name="s4">
                <path id="s-10" data-name="s" class="cls-1" d="M973.419,449.582l4.084,12.57-10.693-7.769h13.217l-10.693,7.769,4.084-12.57Z"/>
                <path id="s-11" data-name="s" class="cls-1" d="M973.419,473.902l4.084,12.57-10.693-7.769h13.217l-10.693,7.769,4.084-12.57Z"/>
                <path id="s-12" data-name="s" class="cls-1" d="M973.419,498.223l4.084,12.57-10.693-7.769h13.217l-10.693,7.769,4.084-12.57Z"/>
                <path id="s-13" data-name="s" class="cls-1" d="M973.419,522.543l4.084,12.57-10.693-7.769h13.217l-10.693,7.769,4.084-12.57Z"/>
              </g>
              <path id="s-14" data-name="s" class="cls-1" d="M973.419,546.863l4.084,12.57-10.693-7.769h13.217l-10.693,7.769,4.084-12.57Z"/>
            </g>
            <g id="s4-4" data-name="s4">
              <path id="s-15" data-name="s" class="cls-1" d="M987.721,461.742l4.084,12.57-10.693-7.769h13.217l-10.693,7.769,4.084-12.57Z"/>
              <path id="s-16" data-name="s" class="cls-1" d="M987.721,486.063l4.084,12.57-10.693-7.769h13.217l-10.693,7.769,4.084-12.57Z"/>
              <path id="s-17" data-name="s" class="cls-1" d="M987.721,510.383l4.084,12.57-10.693-7.769h13.217l-10.693,7.769,4.084-12.57Z"/>
              <path id="s-18" data-name="s" class="cls-1" d="M987.721,534.703l4.084,12.57-10.693-7.769h13.217l-10.693,7.769,4.084-12.57Z"/>
            </g>
          </g>
        </g>
        <g id="s18-2" data-name="s18">
          <g id="s9-3" data-name="s9">
            <g id="s5-3" data-name="s5">
              <g id="s4-5" data-name="s4">
                <path id="s-19" data-name="s" class="cls-1" d="M1002.024,449.582l4.084,12.57-10.693-7.769h13.217l-10.693,7.769,4.084-12.57Z"/>
                <path id="s-20" data-name="s" class="cls-1" d="M1002.024,473.902l4.084,12.57-10.693-7.769h13.217l-10.693,7.769,4.084-12.57Z"/>
                <path id="s-21" data-name="s" class="cls-1" d="M1002.024,498.223l4.084,12.57-10.693-7.769h13.217l-10.693,7.769,4.084-12.57Z"/>
                <path id="s-22" data-name="s" class="cls-1" d="M1002.024,522.543l4.084,12.57-10.693-7.769h13.217l-10.693,7.769,4.084-12.57Z"/>
              </g>
              <path id="s-23" data-name="s" class="cls-1" d="M1002.024,546.863l4.084,12.57-10.693-7.769h13.217l-10.693,7.769,4.084-12.57Z"/>
            </g>
            <g id="s4-6" data-name="s4">
              <path id="s-24" data-name="s" class="cls-1" d="M1016.326,461.742l4.084,12.57-10.693-7.769h13.217l-10.693,7.769,4.084-12.57Z"/>
              <path id="s-25" data-name="s" class="cls-1" d="M1016.326,486.063l4.084,12.57-10.693-7.769h13.217l-10.693,7.769,4.084-12.57Z"/>
              <path id="s-26" data-name="s" class="cls-1" d="M1016.326,510.383l4.084,12.57-10.693-7.769h13.217l-10.693,7.769,4.084-12.57Z"/>
              <path id="s-27" data-name="s" class="cls-1" d="M1016.326,534.703l4.084,12.57-10.693-7.769h13.217l-10.693,7.769,4.084-12.57Z"/>
            </g>
          </g>
          <g id="s9-4" data-name="s9">
            <g id="s5-4" data-name="s5">
              <g id="s4-7" data-name="s4">
                <path id="s-28" data-name="s" class="cls-1" d="M1030.629,449.582l4.084,12.57-10.693-7.769h13.217l-10.693,7.769,4.084-12.57Z"/>
                <path id="s-29" data-name="s" class="cls-1" d="M1030.629,473.902l4.084,12.57-10.693-7.769h13.217l-10.693,7.769,4.084-12.57Z"/>
                <path id="s-30" data-name="s" class="cls-1" d="M1030.629,498.223l4.084,12.57-10.693-7.769h13.217l-10.693,7.769,4.084-12.57Z"/>
                <path id="s-31" data-name="s" class="cls-1" d="M1030.629,522.543l4.084,12.57-10.693-7.769h13.217l-10.693,7.769,4.084-12.57Z"/>
              </g>
              <path id="s-32" data-name="s" class="cls-1" d="M1030.629,546.863l4.084,12.57-10.693-7.769h13.217l-10.693,7.769,4.084-12.57Z"/>
            </g>
            <g id="s4-8" data-name="s4">
              <path id="s-33" data-name="s" class="cls-1" d="M1044.932,461.742l4.084,12.57-10.693-7.769h13.217l-10.693,7.769,4.084-12.57Z"/>
              <path id="s-34" data-name="s" class="cls-1" d="M1044.932,486.063l4.084,12.57-10.693-7.769h13.217l-10.693,7.769,4.084-12.57Z"/>
              <path id="s-35" data-name="s" class="cls-1" d="M1044.932,510.383l4.084,12.57-10.693-7.769h13.217l-10.693,7.769,4.084-12.57Z"/>
              <path id="s-36" data-name="s" class="cls-1" d="M1044.932,534.703l4.084,12.57-10.693-7.769h13.217l-10.693,7.769,4.084-12.57Z"/>
            </g>
          </g>
        </g>
        <g id="s9-5" data-name="s9">
          <g id="s5-5" data-name="s5">
            <g id="s4-9" data-name="s4">
              <path id="s-37" data-name="s" class="cls-1" d="M1059.234,449.582l4.084,12.57-10.693-7.769h13.217l-10.693,7.769,4.084-12.57Z"/>
              <path id="s-38" data-name="s" class="cls-1" d="M1059.234,473.902l4.084,12.57-10.693-7.769h13.217l-10.693,7.769,4.084-12.57Z"/>
              <path id="s-39" data-name="s" class="cls-1" d="M1059.234,498.223l4.084,12.57-10.693-7.769h13.217l-10.693,7.769,4.084-12.57Z"/>
              <path id="s-40" data-name="s" class="cls-1" d="M1059.234,522.543l4.084,12.57-10.693-7.769h13.217l-10.693,7.769,4.084-12.57Z"/>
            </g>
          </g>
          <g id="s4-10" data-name="s4">
            <path id="s-41" data-name="s" class="cls-1" d="M1073.537,461.742l4.084,12.57-10.693-7.769h13.217l-10.693,7.769,4.084-12.57Z"/>
            <path id="s-42" data-name="s" class="cls-1" d="M1073.537,486.063l4.084,12.57-10.693-7.769h13.217l-10.693,7.769,4.084-12.57Z"/>
            <path id="s-43" data-name="s" class="cls-1" d="M1073.537,510.383l4.084,12.57-10.693-7.769h13.217l-10.693,7.769,4.084-12.57Z"/>
            <path id="s-44" data-name="s" class="cls-1" d="M1073.537,534.703l4.084,12.57-10.693-7.769h13.217l-10.693,7.769,4.084-12.57Z"/>
          </g>
        </g>
        <g id="s5-6" data-name="s5">
          <g id="s4-11" data-name="s4">
            <path id="s-45" data-name="s" class="cls-1" d="M1087.839,449.582l4.084,12.57-10.693-7.769h13.217l-10.693,7.769,4.084-12.57Z"/>
            <path id="s-46" data-name="s" class="cls-1" d="M1087.839,473.902l4.084,12.57-10.693-7.769h13.217l-10.693,7.769,4.084-12.57Z"/>
            <path id="s-47" data-name="s" class="cls-1" d="M1087.839,498.223l4.084,12.57-10.693-7.769h13.217l-10.693,7.769,4.084-12.57Z"/>
            <path id="s-48" data-name="s" class="cls-1" d="M1087.839,522.543l4.084,12.57-10.693-7.769h13.217l-10.693,7.769,4.084-12.57Z"/>
          </g>
          <path id="s-49" data-name="s" class="cls-1" d="M1087.839,546.863l4.084,12.57-10.693-7.769h13.217l-10.693,7.769,4.084-12.57Z"/>
        </g>
      </g>
    </g>
  </g>
  <g id="Layer_12" data-name="Layer 12">
    <g>
      <path class="cls-1" d="M339.212,31.728h-99.176s-99.176,0-99.176,0v6.715s0,6.715,0,6.715h99.176s99.176,0,99.176,0v-6.715s0-6.715,0-6.715Z"/>
      <path class="cls-1" d="M129.153,36.67c0,.121-.086.224-.189.224-.086,0-.138.069-.086.155.052.069-.069.62-.293,1.205l-.379,1.05h-1.67c-.913,0-1.705.069-1.773.155-.052.103.275.43.723.74.465.31.844.517.861.482.034-.052.172.086.31.31.155.207.344.344.413.293.086-.034.224.121.327.344.121.258.138.43.034.43s-.155.052-.155.121c.017.086,0,.189-.017.258-.017.086-.052.189-.069.258-.017.086-.172.43-.327.809-.155.362-.241.723-.189.809s0,.155-.103.155c-.121,0-.172.121-.103.258.052.138.017.258-.069.258-.103,0-.172.069-.172.172s.086.172.189.172c.189,0,2.738-1.825,2.961-2.135.103-.138.172-.121.241.017.034.121.189.224.327.224s.293.121.344.258c.069.138.207.258.327.258.103,0,.413.189.672.43s.534.43.603.43c.086,0,.189.121.258.258.103.293.62.362.62.069,0-.086-.069-.121-.172-.069-.086.052-.121,0-.086-.121.052-.121-.138-.913-.43-1.773-.396-1.171-.465-1.567-.31-1.67.121-.086.43-.275.689-.43.275-.172.482-.362.482-.43,0-.069.121-.138.258-.138.155,0,.31-.121.362-.258.069-.138.207-.258.344-.258s.241-.086.241-.172.121-.172.258-.172.258-.086.258-.172-.775-.172-1.963-.172h-1.963s-.189-.534-.189-.534c-.103-.293-.138-.603-.086-.689s0-.155-.103-.155c-.121,0-.172-.121-.103-.258.052-.138.017-.258-.086-.258s-.155-.103-.103-.241c.052-.121,0-.413-.121-.637-.224-.448-.275-.568-.293-.895-.017-.241-.482.723-.499,1.033Z"/>
      <path class="cls-1" d="M107.63,35.516c-.103,0-.172.069-.172.172s.069.172.172.172c.086,0,.172-.086.172-.172,0-.103-.086-.172-.172-.172Z"/>
      <path class="cls-1" d="M41.857,35.516c-.103,0-.172.069-.172.172,0,.086.069.172.172.172.086,0,.172-.086.172-.172s-.086-.172-.172-.172Z"/>
      <path class="cls-1" d="M19.749,35.895c-.034.121-.138.413-.224.654-.103.241-.138.534-.103.637.052.121,0,.224-.103.224s-.138.121-.086.258c.069.138.017.258-.103.258-.103,0-.155.069-.103.155s.017.396-.086.689l-.189.534h-1.963c-1.188,0-1.963.069-1.963.172s.121.172.258.172.258.069.258.172.103.172.241.172.275.121.344.258c.052.138.207.258.362.258.138,0,.258.069.258.138s.207.258.465.43c.275.155.585.344.706.43.155.103.086.499-.31,1.67-.293.861-.482,1.653-.43,1.773.034.121,0,.172-.086.121-.103-.052-.172-.017-.172.069,0,.293.517.224.62-.069.069-.138.172-.258.258-.258.069,0,.344-.189.603-.43s.568-.43.672-.43c.121,0,.258-.121.327-.258.052-.138.207-.258.344-.258s.293-.103.327-.224c.069-.138.138-.155.241-.017.224.31,2.772,2.135,2.961,2.135.103,0,.189-.086.189-.189,0-.103-.121-.138-.275-.086-.258.103-.258.069-.052-.172.189-.241.189-.31.017-.362-.103-.052-.172-.138-.121-.224.052-.069-.052-.43-.207-.792-.155-.379-.31-.723-.327-.809-.017-.069-.052-.172-.069-.258-.017-.069-.034-.172-.017-.258,0-.069-.052-.121-.155-.121s-.086-.172.034-.43c.103-.224.241-.379.327-.344.069.052.258-.086.413-.293.138-.224.275-.362.31-.31.017.034.396-.172.861-.482.448-.31.775-.637.723-.74-.069-.086-.861-.155-1.773-.155h-1.67s-.379-1.05-.379-1.05c-.224-.585-.344-1.136-.293-1.205.052-.086.017-.155-.069-.155s-.241-.31-.362-.706c-.207-.689-.344-.775-.43-.293Z"/>
      <path class="cls-1" d="M85.522,35.946c.069.138.017.258-.103.258s-.172.121-.103.258c.052.138.017.258-.086.258s-.138.069-.086.138c.052.086-.086.672-.275,1.291l-.379,1.154h-1.946c-1.188,0-1.946.069-1.946.172,0,.086.121.172.258.172s.258.069.258.172c0,.086.103.172.224.172s.448.241.723.517c.275.293.603.482.74.43.121-.034.172,0,.121.086-.052.103-.052.172.034.172.069,0,.275.121.43.241.275.207.275.293-.121,1.395-.241.654-.396,1.205-.344,1.257s0,.189-.121.327c-.155.189-.138.31.086.534.172.155.293.189.293.086s.155-.224.344-.275.344-.224.344-.379c0-.155.069-.224.172-.172.086.052.258.017.379-.086,1.36-1.154,1.429-1.171,1.584-.775.052.138.172.258.275.258s.396.189.637.413c.258.241.517.396.585.344.086-.034.224.086.327.275s.258.31.327.258c.086-.052.189.034.258.172.052.138.224.241.396.241.275-.017.275-.034-.017-.103-.241-.069-.275-.121-.103-.224.189-.121.189-.189.017-.413-.138-.155-.172-.275-.086-.275s.052-.069-.086-.155-.241-.396-.241-.689-.086-.482-.172-.413c-.103.069-.121.017-.052-.103.086-.121.034-.448-.086-.74-.207-.499-.189-.551.293-.93.275-.224.603-.413.706-.413.121,0,.224-.069.224-.155,0-.069.31-.362.689-.62.396-.275.637-.551.568-.62-.086-.086-.895-.172-1.825-.189l-1.687-.052-.517-1.532c-.275-.826-.465-1.584-.413-1.653.052-.086-.017-.189-.121-.224-.396-.155-.482-.121-.379.138Z"/>
      <path class="cls-1" d="M63.655,35.791c-.155.052-.241.155-.189.224.034.069-.155.826-.43,1.67l-.482,1.532-1.705.052c-.93.017-1.739.103-1.825.189-.069.069.172.344.568.62.379.258.689.551.689.62s.103.155.207.155c.121,0,.448.189.723.413.482.379.499.43.293.93-.121.293-.172.62-.086.74.069.121.052.172-.052.103-.086-.069-.172.121-.172.413,0,.293-.103.603-.241.689s-.172.155-.086.155.052.121-.086.275c-.172.224-.172.293.017.413.172.103.138.155-.103.224-.293.069-.293.086-.017.103.172,0,.344-.103.396-.241.069-.138.172-.224.258-.172.069.052.224-.069.327-.258s.241-.31.327-.275c.069.052.327-.103.585-.344.241-.224.534-.413.637-.413s.224-.121.275-.258c.155-.396.224-.379,1.584.775.121.103.275.155.362.103s.189.052.241.241.207.344.362.344.275.086.275.207c0,.138.103.103.293-.069.224-.224.241-.344.086-.534-.121-.138-.172-.275-.121-.327s-.103-.62-.344-1.274c-.396-1.102-.413-1.205-.138-1.412.155-.103.362-.207.448-.207.069,0,.086-.069.034-.172-.052-.086,0-.121.121-.086.138.052.465-.138.74-.43.275-.275.603-.517.723-.517s.224-.086.224-.172c0-.103.121-.172.258-.172s.258-.086.258-.172c0-.103-.758-.172-1.946-.172h-1.946s-.379-1.154-.379-1.154c-.189-.62-.327-1.205-.275-1.291.052-.069.017-.138-.086-.138s-.138-.121-.086-.258c.069-.138.017-.258-.103-.258s-.172-.121-.103-.258c.103-.293.069-.31-.31-.155Z"/>
      <path class="cls-1" d="M107.682,36.032c-.241,0-.396.224-.62.895-.155.482-.224.964-.172,1.05.069.103.017.121-.121.034-.172-.103-.207-.069-.121.172.069.155.034.413-.069.534-.103.138-.138.241-.052.241s.034.086-.103.172-1.016.172-1.928.172c-1.584,0-2.256.207-1.567.465.172.069.499.293.74.517s.517.396.62.396c.121,0,.258.121.31.275.069.155.155.241.207.189.138-.121.758.517.758.792,0,.121-.121.379-.258.568-.138.207-.189.413-.138.482.052.052.017.103-.103.103s-.172.069-.121.155-.017.482-.155.878-.224.792-.172.861c.052.086-.017.172-.121.224-.121.034-.172.138-.086.207.069.086.224.034.344-.103.224-.293,1.429-1.188,1.567-1.188.052,0,.293-.189.551-.43.534-.482.964-.551,1.274-.172.121.138.327.258.448.258.138,0,.241.069.241.172,0,.086.086.172.172.172.103,0,.396.224.654.482.689.706.999.775.981.224,0-.241-.052-.482-.103-.534-.189-.155-.672-1.756-.568-1.911.052-.086,0-.155-.103-.155-.121,0-.155-.138-.069-.379.121-.396.482-.826.672-.826s2.135-1.446,2.152-1.601c0-.069-.792-.121-1.773-.121-.964,0-1.877-.086-2.015-.172s-.207-.172-.138-.172c.103,0-.172-.981-.499-1.722-.052-.138-.121-.31-.121-.379-.017-.052-.069-.155-.138-.224s-.069-.224-.017-.362c.052-.155-.034-.241-.241-.241Z"/>
      <path class="cls-1" d="M41.806,36.032c-.207,0-.293.086-.241.241.052.138.052.293-.017.362s-.121.172-.138.224c0,.069-.069.241-.121.379-.327.74-.603,1.722-.499,1.722.069,0,0,.086-.138.172s-1.05.172-2.032.172c-.964,0-1.756.052-1.756.121.017.155,1.963,1.601,2.152,1.601s.551.43.672.826c.086.241.052.379-.069.379-.103,0-.155.069-.103.155.103.155-.396,1.773-.585,1.911-.138.086.103.861.258.861.052,0,.327-.241.603-.517.275-.293.585-.517.689-.517.086,0,.172-.086.172-.172,0-.103.103-.172.241-.172.121,0,.327-.121.448-.258.31-.379.74-.31,1.274.172.258.241.499.43.551.43.138,0,1.343.895,1.567,1.188.121.138.275.189.344.103.086-.069.034-.172-.086-.207-.103-.052-.172-.138-.121-.224.052-.069-.034-.465-.172-.861s-.207-.792-.155-.878,0-.155-.103-.155-.155-.069-.086-.155c.052-.086.017-.207-.069-.258-.344-.224-.362-.964-.034-1.291.189-.189.379-.293.43-.241s.138-.034.207-.189c.052-.155.189-.275.31-.275.103,0,.379-.172.62-.396s.568-.448.74-.517c.689-.258.017-.465-1.567-.465-.913,0-1.791-.086-1.928-.172s-.189-.172-.103-.172.052-.103-.052-.241c-.103-.121-.138-.379-.069-.534.086-.241.052-.275-.121-.172-.138.086-.189.069-.121-.034.052-.086-.017-.568-.172-1.05-.224-.672-.379-.895-.62-.895Z"/>
      <path class="cls-1" d="M118.632,45.02c-.138.052-.224.207-.189.379.034.155-.034.275-.121.275-.103,0-.138.121-.086.258.069.138.017.258-.103.258-.103,0-.155.069-.103.138.052.086-.017.344-.155.603s-.189.465-.138.465,0,.103-.103.224c-.103.138-.138.293-.069.344.052.069.017.121-.086.121s-.155.121-.103.258c.086.224-.207.258-2.015.258h-2.101s.413.396.413.396c.224.224.482.379.551.327.069-.034.275.121.465.344s.327.344.344.275c0-.052.172.034.379.224.224.172.568.465.792.62.379.31.396.327.121.964-.155.362-.224.723-.172.809.069.103.017.172-.086.172-.121,0-.172.121-.103.258.052.138.034.258-.052.258-.172,0-.585,1.377-.465,1.515.052.052.275-.103.499-.327.43-.448.826-.723,1.498-1.068.224-.103.603-.379.826-.585l.396-.362.499.517c.275.275.568.465.672.413.086-.069.207.052.275.241s.172.31.241.275c.052-.052.379.155.689.43.603.517,1.068.689.706.241-.121-.138-.155-.258-.086-.258s.034-.121-.086-.258-.155-.258-.086-.258.034-.121-.086-.258-.155-.258-.086-.258.034-.103-.069-.224c-.103-.138-.155-.275-.103-.327s-.017-.413-.172-.809c-.293-.826-.155-1.205.585-1.532.241-.103.706-.448.999-.723.31-.293.568-.482.568-.413s.155-.017.344-.189.31-.344.258-.396c-.034-.034-.861-.069-1.842-.052s-1.86-.034-1.963-.103c-.241-.172-.947-2.29-.826-2.479.052-.086,0-.155-.103-.155-.121,0-.172-.121-.103-.258.052-.138.017-.258-.086-.258s-.121-.086-.052-.189c.069-.121.017-.172-.121-.121Z"/>
      <path class="cls-1" d="M96.507,45.468c-.138.31-.189.654-.138.758.069.103.052.138-.069.069-.103-.052-.224.103-.293.413-.069.275-.172.517-.224.517-.069,0-.138.189-.138.43-.069.964-.086.964-2.135.93-1.05-.017-1.946.017-1.997.069-.121.103,1.739,1.498,1.997,1.498.086,0,.172.069.172.172,0,.086.103.172.241.172s.293.138.379.293c.189.448.207,1.085.017,1.085-.086,0-.121.121-.052.258.052.138.017.258-.086.258s-.138.069-.069.155c.052.086,0,.224-.103.275-.086.069-.138.224-.086.344.052.138,0,.258-.086.293-.103.034-.207.275-.207.534-.017.258-.086.465-.172.465-.069,0-.121.069-.121.172,0,.275.31.207.689-.172.189-.189.344-.31.344-.258s.155-.069.344-.258.43-.344.534-.344c.086,0,.121-.069.069-.172s.017-.121.155-.069c.155.069.31-.017.379-.172.052-.155.207-.275.344-.275s.241-.121.241-.258c0-.362.155-.327.637.189.224.241.465.413.517.362.052-.069.241.069.413.275s.31.31.327.241c0-.069.189.052.413.293.224.258.482.448.585.448s.207.103.258.207c.034.121.138.155.224.086s.069-.189-.034-.258-.172-.275-.189-.465c0-.189-.207-.947-.448-1.687l-.43-1.326.706-.499c.396-.275.895-.654,1.085-.844.207-.207.43-.31.482-.258.103.103.792-.517.792-.723,0-.052-.895-.086-1.997-.086-1.274,0-1.946-.069-1.877-.172.052-.103.034-.172-.052-.172-.207,0-.551-1.171-.43-1.481.052-.138,0-.241-.121-.241-.103,0-.138-.086-.086-.172.052-.103.017-.172-.086-.172s-.138-.086-.086-.172c.052-.103.052-.275-.034-.396-.069-.103-.138-.258-.155-.344-.017-.069-.034-.172-.069-.258-.017-.069-.138.138-.275.448Z"/>
      <path class="cls-1" d="M82.664,44.986c-.103,0-.172.069-.172.172,0,.086.069.172.172.172.086,0,.172-.086.172-.172,0-.103-.086-.172-.172-.172Z"/>
      <path class="cls-1" d="M74.744,44.986c-.103,0-.172.069-.172.172s.069.172.172.172c.086,0,.172-.086.172-.172s-.086-.172-.172-.172Z"/>
      <path class="cls-1" d="M66.823,44.986c-.103,0-.172.069-.172.172s.069.172.172.172c.086,0,.172-.086.172-.172s-.086-.172-.172-.172Z"/>
      <path class="cls-1" d="M52.687,45.089c-.086.052-.121.155-.069.241s0,.207-.103.258c-.086.069-.138.224-.086.362s.017.241-.086.241-.121.069-.069.172c.052.086.017.172-.086.172-.121,0-.172.103-.121.241.121.31-.224,1.481-.43,1.481-.086,0-.103.069-.052.172.069.103-.637.172-1.997.172h-2.101s.482.448.482.448c.258.241.499.396.551.344s.258.069.465.275c.189.189.689.568,1.085.844l.706.499-.43,1.326c-.241.74-.448,1.498-.448,1.687-.017.189-.086.396-.189.465s-.121.189-.034.258.189.034.224-.086c.052-.103.155-.207.258-.207s.362-.189.585-.448c.224-.241.413-.362.413-.293.017.069.155-.034.327-.241s.362-.344.413-.275c.052.052.293-.121.517-.362.482-.517.637-.551.637-.172,0,.138.069.224.155.155.103-.052.258.069.362.258.121.224.293.327.448.275s.207-.017.155.069c-.052.103-.017.172.069.172.103,0,.344.155.534.344s.344.31.344.258c0-.052.155.069.344.258.379.379.689.448.689.172,0-.103-.052-.172-.138-.172-.069,0-.138-.207-.155-.465,0-.258-.103-.499-.207-.534-.086-.034-.138-.155-.086-.293.052-.121,0-.275-.086-.344-.103-.052-.155-.189-.103-.275.069-.086.034-.155-.069-.155s-.138-.121-.086-.258c.069-.138.034-.258-.052-.258-.189,0-.172-.637.017-1.085.086-.155.241-.293.379-.293s.241-.086.241-.172c0-.103.086-.172.172-.172.258,0,2.118-1.395,1.997-1.498-.052-.052-.947-.086-1.997-.069-2.049.034-2.066.034-2.135-.93,0-.241-.069-.43-.138-.43-.052,0-.155-.241-.224-.517-.069-.31-.189-.465-.293-.413-.103.069-.138.034-.086-.052.069-.103.034-.43-.069-.723s-.258-.482-.344-.43Z"/>
      <path class="cls-1" d="M30.752,45.158c.052.086.034.172-.069.172s-.138.121-.086.258c.069.138.034.258-.052.258s-.155.138-.172.293c-.086.93-.155,1.257-.258,1.257-.052,0-.155.224-.224.499-.138.654-.362.723-2.324.706-.895-.017-1.705-.017-1.791-.017-.086.017-.017.172.155.362s.344.31.396.275c.034-.052.31.138.62.43.293.275.74.603.981.706.74.327.878.706.585,1.532-.155.396-.224.758-.172.809s0,.189-.103.327c-.103.121-.138.224-.069.224s.034.121-.086.258-.155.258-.086.258.034.121-.086.258-.155.258-.086.258.034.121-.086.258c-.344.413.069.293.62-.172.275-.241.585-.43.706-.43.103,0,.258-.155.31-.344.069-.189.189-.31.275-.241.086.052.379-.138.654-.43l.499-.534.413.396c.224.207.603.482.826.585.672.344,1.068.62,1.498,1.068.224.224.448.379.499.327.121-.138-.293-1.515-.465-1.515-.086,0-.103-.121-.052-.258.069-.138.017-.258-.103-.258-.103,0-.155-.069-.086-.172.052-.086-.017-.448-.172-.809-.275-.637-.258-.654.121-.964.224-.155.568-.448.775-.62.224-.189.396-.275.396-.224.017.069.155-.052.344-.275s.396-.379.465-.344c.069.052.327-.103.551-.327l.413-.396h-2.101c-1.808,0-2.101-.034-2.015-.258.052-.138,0-.258-.103-.258s-.138-.052-.086-.121c.069-.052.034-.207-.069-.344-.103-.121-.155-.224-.103-.224s0-.207-.138-.465-.207-.517-.155-.603c.052-.069,0-.138-.103-.138-.121,0-.172-.121-.103-.258.052-.138.017-.258-.086-.258s-.155-.103-.103-.241.052-.293,0-.344c-.172-.172-.43-.121-.31.069Z"/>
      <path class="cls-1" d="M74.744,45.502c-.293,0-1.119,2.135-.947,2.411.069.103.017.172-.069.172-.103,0-.172.103-.155.207.034.172-.448.224-1.928.258-1.24.017-1.997.086-2.032.207-.034.103.086.241.258.31.172.052.379.224.448.344.086.121.189.189.258.155.069-.052.482.224.895.603.43.362.861.672.981.672.103,0,.172.172.138.379-.086.723-.293,1.343-.448,1.343-.086,0-.103.121-.052.258.069.138.017.258-.086.258s-.138.121-.086.258c.069.138.017.258-.086.258-.155,0-.155.086-.017.344.241.448.517.43,1.068-.069.241-.241.482-.379.551-.327.052.052.138-.034.207-.189.052-.155.189-.275.293-.275s.327-.121.499-.293c.293-.258.327-.258.62,0,.172.172.396.293.499.293s.241.121.293.275c.069.155.155.241.224.189.052-.069.31.103.551.362.258.258.585.448.758.413s.275.034.258.138c-.034.121.052.258.172.293.189.069.207.017.034-.293-.103-.207-.155-.482-.103-.62s.017-.241-.086-.241-.155-.121-.086-.258c.052-.138.017-.258-.086-.258s-.155-.121-.086-.258c.052-.138,0-.258-.103-.258s-.138-.052-.086-.121c.069-.052.034-.207-.052-.327-.224-.241-.379-1.309-.189-1.205.069.052.241-.052.396-.207.379-.413,1.377-1.154,1.55-1.154.086,0,.207-.086.275-.189s.258-.241.43-.293c.172-.069.293-.207.258-.31-.034-.121-.792-.189-2.032-.207-1.481-.034-1.963-.086-1.946-.258.034-.103-.034-.207-.138-.207-.086,0-.138-.069-.069-.172.052-.086-.086-.672-.293-1.291-.258-.706-.482-1.119-.654-1.119Z"/>
      <path class="cls-1" d="M107.733,54.284c-.052,0-.138.069-.189.172-.052.086-.017.172.069.172.103,0,.189-.086.189-.172s-.034-.172-.069-.172Z"/>
      <path class="cls-1" d="M71.627,54.473c-.172.275-.069.396.172.241.103-.052.138-.189.086-.293-.069-.103-.155-.086-.258.052Z"/>
      <path class="cls-1" d="M41.754,54.284c-.034,0-.069.069-.069.172,0,.086.086.172.189.172.086,0,.121-.086.069-.172-.052-.103-.138-.172-.189-.172Z"/>
      <path class="cls-1" d="M129.669,54.49c-.241.069-1.257,2.841-1.119,3.065.155.258-.465.344-2.342.344-1.033,0-1.877.052-1.877.103,0,.207.499.585.775.585.155,0,.241.069.172.155-.052.086.069.207.258.275.189.052.344.189.344.275s.155.155.362.155c.189,0,.293.086.241.172-.052.103.069.241.293.327.534.207.895.637.672.775-.103.069-.138.224-.069.362.052.138,0,.258-.103.258s-.138.121-.086.258c.069.138.017.258-.103.258-.103,0-.155.069-.086.155.052.086,0,.224-.103.275-.086.069-.138.241-.086.379.069.155.034.189-.103.121-.121-.086-.155-.034-.086.155.052.155.017.31-.103.344-.155.052-.121.172.069.379.258.275.31.258.758-.155.258-.241.534-.448.62-.448.069,0,.396-.241.706-.517.654-.603,1.257-.672,1.515-.155.121.189.241.31.293.258.052-.034.293.103.534.344.258.224.551.413.672.413s.224.069.224.172c0,.172.672.585.792.465.034-.034-.086-.517-.275-1.068-.189-.534-.293-1.05-.241-1.136s.017-.155-.069-.155-.224-.275-.327-.603c-.189-.585-.172-.62.517-1.154.396-.31.74-.62.775-.689.034-.086.155-.138.258-.138.121,0,.413-.189.672-.413.241-.241.499-.379.551-.327.052.069.103-.017.103-.172,0-.155-.052-.275-.138-.275-.069.017-.947.017-1.963,0l-1.825-.017-.172-.499c-.103-.275-.138-.551-.086-.603.069-.052.017-.103-.103-.103s-.189-.121-.138-.258c.069-.138.034-.293-.052-.344s-.121-.207-.052-.344c.052-.138,0-.258-.121-.258-.103,0-.155-.069-.086-.155.052-.086.017-.207-.069-.275-.103-.052-.121-.224-.069-.379.069-.172.034-.241-.121-.189Z"/>
      <path class="cls-1" d="M85.522,54.697c.052.138,0,.293-.086.362-.103.052-.155.189-.103.275.069.086.017.155-.086.155s-.155.069-.103.138c.121.207-.448,1.928-.62,1.928-.086,0-.103.069-.052.172.069.103-.603.172-1.877.172-1.756,0-1.997.034-1.997.293,0,.155.052.241.103.172.052-.052.189-.034.31.069.103.086.465.396.792.672s.654.517.74.517c.069,0,.344.207.637.448l.499.448-.344.93c-.189.517-.293,1.016-.224,1.119.086.138.052.155-.103.069-.172-.103-.207-.069-.121.138.052.172.052.293-.034.293-.189,0-.362.844-.189.947.069.034.275-.069.448-.224.172-.172.465-.362.62-.43.172-.052.31-.189.31-.293,0-.086.121-.172.258-.172s.258-.052.258-.138c0-.069.275-.275.603-.448l.585-.327.964.654c.517.362.947.723.947.809,0,.069.155.138.362.138.189,0,.31.069.258.155-.103.138.585.413.723.275.034-.034-.034-.241-.155-.465-.121-.207-.241-.448-.258-.534-.017-.069-.052-.172-.069-.258-.017-.069-.034-.172-.017-.258,0-.069-.069-.121-.172-.121s-.155-.121-.086-.258c.052-.138.034-.258-.034-.258s-.138-.207-.155-.448c0-.258-.103-.517-.207-.585-.224-.138.465-1.033.809-1.033.121,0,.207-.086.207-.172,0-.103.086-.172.172-.172.189,0,.482-.224,1.033-.758.189-.189.344-.275.344-.207,0,.086.121.052.258-.069s.258-.275.258-.344-.878-.138-1.928-.155c-1.068-.017-1.997-.086-2.049-.155-.069-.069-.327-.775-.585-1.584s-.517-1.515-.551-1.601c-.138-.224-.396-.121-.293.121Z"/>
      <path class="cls-1" d="M63.896,54.456c-.138,0-.568,1.05-1.033,2.497-.121.379-.258.74-.327.809-.052.069-.981.138-2.049.155-1.05.017-1.928.086-1.928.155s.121.224.258.344.258.155.258.069c0-.069.155.017.344.207.551.534.844.758,1.033.758.086,0,.172.069.172.172s.086.172.207.172c.344,0,1.033.895.809,1.033-.103.069-.207.327-.207.585-.017.241-.086.448-.172.448-.069,0-.103.052-.103.121.017.086,0,.189-.017.258-.017.086-.069.207-.086.31-.017.086-.069.207-.086.258s-.052.138-.069.207c-.017.086-.138.327-.258.534-.121.224-.189.43-.155.465.138.138.826-.138.723-.275-.052-.086.069-.155.258-.155.207,0,.362-.069.362-.138,0-.086.43-.448.947-.809l.964-.654.585.327c.327.172.603.379.603.448,0,.086.121.138.258.138s.258.086.258.172c0,.103.138.241.293.293.172.069.465.258.637.43.172.155.379.258.448.224.172-.103,0-.947-.189-.947-.086,0-.086-.121-.034-.293.086-.207.052-.241-.121-.138-.155.086-.189.069-.103-.069.069-.103-.034-.603-.224-1.119l-.344-.93.499-.448c.293-.241.568-.448.637-.448.086,0,.413-.241.74-.517s.689-.585.792-.672c.121-.103.258-.121.31-.069.052.069.103-.017.103-.172,0-.258-.241-.293-1.997-.293-1.274,0-1.946-.069-1.877-.172.052-.103.034-.172-.052-.172-.172,0-.74-1.722-.62-1.928.052-.069,0-.138-.103-.138s-.155-.069-.086-.155c.052-.086,0-.224-.103-.275-.086-.069-.138-.224-.086-.362s.017-.241-.069-.241Z"/>
      <path class="cls-1" d="M19.801,54.456c-.103,0-.155.121-.103.258.069.138.034.293-.069.344-.086.069-.121.189-.069.275.069.086.017.155-.086.155-.121,0-.172.121-.121.258.069.138.034.293-.052.344s-.121.207-.052.344c.052.138-.017.258-.138.258s-.172.052-.103.103c.052.052.017.327-.086.603l-.172.499-1.825.017c-1.016.017-1.894.017-1.98,0-.069,0-.121.121-.121.275,0,.155.052.241.103.172.052-.052.31.086.551.327.258.224.551.413.672.413.103,0,.224.052.258.138.017.069.379.379.775.689.689.534.706.568.517,1.154-.103.327-.241.603-.327.603s-.121.069-.069.155-.052.603-.241,1.136c-.189.551-.31,1.033-.275,1.068.121.121.792-.293.792-.465,0-.103.103-.172.224-.172s.413-.189.672-.413c.241-.241.482-.379.534-.344.052.052.172-.069.293-.258.258-.517.861-.448,1.515.155.31.275.637.517.706.517.086,0,.362.207.62.448.448.413.499.43.758.155.189-.207.224-.327.069-.379-.121-.034-.155-.189-.103-.344.069-.189.034-.241-.086-.155-.138.069-.172.034-.103-.121.052-.138,0-.31-.086-.379-.103-.052-.155-.189-.103-.275.069-.086.017-.155-.086-.155-.121,0-.172-.121-.103-.258.052-.138.017-.258-.086-.258s-.155-.121-.103-.258c.069-.138.034-.293-.069-.362-.224-.138.31-.758.654-.758.121,0,.275-.121.327-.258.069-.138.189-.258.275-.258.103,0,.362-.189.585-.43s.482-.43.585-.43c.207,0,.689-.413.689-.585,0-.052-.844-.103-1.877-.103-1.877,0-2.497-.086-2.342-.344.069-.103-.362-1.55-.861-2.893-.034-.103-.155-.207-.275-.207Z"/>
      <path class="cls-1" d="M107.699,54.869c-.31.052-1.016,1.567-.844,1.842.069.086.034.155-.069.155s-.138.121-.086.258c.069.138.017.258-.086.258s-.172.103-.155.207c.034.172-.465.241-1.928.31-1.085.052-1.963.138-1.946.207.034.086.052.224.052.327,0,.086.069.121.172.069.086-.052.379.086.637.327.258.258.568.448.672.448.121,0,.258.121.31.275.069.155.155.241.207.189.052-.034.293.103.534.327.344.327.413.499.31.913-.069.293-.172.534-.224.534-.069,0-.138.207-.155.448,0,.258-.086.499-.172.568-.069.052-.155.172-.155.275-.017.086-.086.344-.138.551-.103.31-.052.362.344.31.241-.017.517-.155.603-.275.086-.138.155-.172.155-.086,0,.086.121.052.258-.069s.207-.275.155-.362.034-.155.189-.155.482-.189.74-.43c.551-.517.654-.534.878-.103.103.172.413.413.706.534.275.121.517.275.517.362s.121.155.258.155.258.069.258.155.224.275.517.43c.275.138.517.172.517.086s-.086-.155-.172-.155c-.121,0-.121-.103-.017-.327.103-.172.121-.379.052-.448-.069-.052-.138-.172-.138-.224-.017-.069-.086-.31-.172-.551-.069-.241-.103-.465-.086-.499.034-.034-.052-.121-.172-.207-.379-.224-.258-1.136.207-1.515.224-.189.517-.344.637-.362.121,0,.172-.086.121-.172-.052-.103.052-.172.241-.172.207,0,.362-.069.362-.155s.275-.327.603-.534.603-.448.603-.534c0-.086-.93-.155-2.066-.155s-2.049-.052-2.032-.138c.086-.241-.585-2.445-.723-2.359-.086.052-.103-.069-.052-.241.069-.241,0-.327-.224-.293Z"/>
      <path class="cls-1" d="M41.565,55.179c.052.172.034.275-.052.224-.138-.086-.809,2.118-.723,2.359.017.086-.895.138-2.032.138s-2.066.069-2.066.155c0,.086.275.327.603.534s.603.448.603.534.155.155.362.155c.189,0,.293.069.241.172-.052.086,0,.172.121.172.534.017,1.532,1.377.999,1.377-.103,0-.155.069-.103.155s-.034.448-.189.809c-.155.379-.293.723-.293.792-.017.052-.069.172-.138.224-.189.189.172.775.482.775.138,0,.293-.121.344-.258.069-.138.207-.258.344-.258s.241-.069.241-.155c0-.086.155-.207.327-.275.172-.052.517-.293.758-.534q.448-.43.878-.121c.241.172.448.362.448.43,0,.086.155.138.362.138.189,0,.31.069.258.155s.017.241.155.362.258.155.258.069.069-.052.155.086c.086.121.362.258.603.275.396.052.448,0,.344-.31-.052-.207-.121-.465-.138-.551,0-.103-.086-.224-.155-.275-.086-.069-.172-.31-.172-.568-.017-.241-.086-.448-.155-.448-.052,0-.155-.241-.224-.534-.103-.413-.034-.585.31-.913.241-.224.482-.362.534-.327.052.052.138-.034.207-.189.052-.155.189-.275.31-.275.103,0,.413-.189.672-.448.258-.241.551-.379.637-.327.103.052.172.017.172-.069,0-.103.017-.241.034-.327.034-.069-.844-.155-1.928-.207-1.464-.069-1.963-.138-1.946-.31.034-.103-.034-.207-.138-.207s-.155-.121-.086-.258c.052-.138.034-.258-.034-.258s-.138-.172-.155-.396c0-.207-.138-.654-.293-.999-.258-.637-.895-.895-.74-.293Z"/>
      <path class="cls-1" d="M339.212,58.416h-99.176s-99.176,0-99.176,0v6.715s0,6.715,0,6.715h99.176s99.176,0,99.176,0v-6.715s0-6.715,0-6.715Z"/>
      <path class="cls-1" d="M126.398,63.753c-.103,0-.172.034-.172.069,0,.052.069.138.172.189.086.052.172.017.172-.069,0-.103-.086-.189-.172-.189Z"/>
      <path class="cls-1" d="M104.617,63.857c-.138.069-.258.138-.258.172s.121.069.258.069.258-.069.258-.172c0-.086-.121-.121-.258-.069Z"/>
      <path class="cls-1" d="M96.352,64.976c.069.086.017.155-.069.155-.103,0-.189.069-.189.172,0,.086-.155.585-.362,1.119l-.344.947h-1.98c-1.825,0-2.445.172-1.618.43.31.103.809.465,1.532,1.136.172.138.379.241.482.207s.241.086.31.275c.052.207.172.362.241.362s.138.224.138.517c0,.275-.069.517-.155.517s-.103.069-.052.172c.052.086.017.172-.086.172s-.138.086-.086.172c.069.103.017.293-.086.43-.121.138-.155.258-.069.258s.052.069-.052.138c-.121.069-.241.327-.258.551-.034.241-.138.482-.224.551-.103.086-.052.138.121.138.155,0,.396-.121.551-.258.138-.138.31-.258.396-.258.069,0,.327-.172.568-.396s.568-.448.723-.517c.172-.052.31-.172.31-.275,0-.275.689-.344.93-.086.138.138.327.241.43.241s.189.086.189.172c0,.103.138.224.293.293.172.052.517.293.792.534.413.396.499.413.723.189.241-.224.207-.396-.189-1.532-.241-.706-.517-1.326-.603-1.377-.172-.121.43-.689.706-.689.103,0,.224-.121.275-.258.069-.138.172-.258.258-.258s.344-.172.568-.362c.241-.207.603-.465.809-.568.379-.189.672-.654.379-.603-.069.017-.964.017-1.98,0l-1.825-.017-.138-.568c-.069-.293-.121-.603-.103-.689.017-.069-.052-.121-.155-.121s-.155-.121-.086-.258c.052-.138.017-.258-.069-.258s-.121-.121-.069-.258c.069-.138.017-.258-.103-.258-.103,0-.155-.069-.086-.155.052-.086,0-.224-.103-.275-.086-.069-.138-.224-.086-.344.034-.121.034-.275-.034-.344-.155-.155-.585.913-.465,1.136Z"/>
      <path class="cls-1" d="M74.744,63.753c-.103,0-.172.069-.172.172s.069.172.172.172c.086,0,.172-.086.172-.172,0-.103-.086-.172-.172-.172Z"/>
      <path class="cls-1" d="M52.687,63.84c-.069.052-.103.207-.052.327.052.138,0,.293-.086.362-.103.052-.155.189-.103.275.069.086.017.155-.086.155-.121,0-.172.121-.103.258.052.138.034.258-.052.258s-.138.103-.138.207c.017.121-.086.551-.207.947l-.241.74-1.825.017c-.999.017-1.894.017-1.963,0-.293-.052,0,.413.379.603.207.103.568.362.809.568.224.189.499.362.585.362.103,0,.172.069.172.155s.293.327.637.534.551.43.465.482c-.103.069-.396.689-.637,1.395-.362.964-.43,1.326-.275,1.498.258.327.344.31.844-.155.241-.224.568-.448.723-.517.172-.052.31-.189.31-.293,0-.086.086-.172.189-.172s.293-.121.43-.258c.275-.258.758-.172.981.207.069.121.207.224.31.224.086,0,.379.189.637.43s.534.43.603.43c.086,0,.258.121.396.258.155.138.396.258.551.258.172,0,.224-.052.121-.138-.103-.069-.189-.31-.224-.551-.017-.224-.138-.482-.258-.551-.103-.069-.138-.138-.052-.138s.052-.121-.069-.258c-.103-.138-.155-.327-.086-.43.052-.086.017-.172-.086-.172s-.138-.086-.086-.172c.052-.103.034-.172-.052-.172s-.155-.241-.155-.517c0-.293.069-.517.138-.517s.189-.155.241-.344c.069-.189.172-.31.258-.258s.31-.034.499-.207c.74-.689,1.24-1.068,1.567-1.171.826-.258.207-.43-1.618-.43h-1.98s-.344-.947-.344-.947c-.207-.534-.362-1.033-.362-1.119s-.086-.172-.189-.172c-.086,0-.138-.069-.086-.155s.017-.396-.086-.689-.258-.499-.344-.448Z"/>
      <path class="cls-1" d="M44.612,63.926c0,.086.138.172.293.172.258,0,.275-.034.052-.172-.327-.207-.344-.207-.344,0Z"/>
      <path class="cls-1" d="M38.93,63.753c-.103,0-.172.069-.172.172s.069.172.172.172c.086,0,.172-.086.172-.172,0-.103-.086-.172-.172-.172Z"/>
      <path class="cls-1" d="M23.107,63.753c-.103,0-.189.069-.189.172,0,.086.034.172.069.172.052,0,.138-.086.189-.172.052-.103.017-.172-.069-.172Z"/>
      <path class="cls-1" d="M118.357,64.184c0,.43-.62,2.324-.758,2.324-.086,0-.103.121-.052.258.069.138.017.258-.103.258-.103,0-.138.069-.086.172.069.103-.568.172-1.773.172-1.033,0-1.911.052-1.98.103-.155.155.362.62.551.499.086-.052.207.069.275.258.052.189.224.344.362.344s.241.069.241.172c0,.086.086.172.172.172.103,0,.275.086.396.172.121.103.379.327.585.499l.379.31-.327.878c-.189.482-.293,1.016-.224,1.171.069.189.034.258-.069.189s-.241.069-.293.293-.155.534-.207.689c-.155.396.379.344.792-.069.189-.189.413-.344.499-.344s.189-.121.258-.258c.052-.138.207-.258.362-.258.138,0,.258-.086.258-.172,0-.103.121-.172.258-.172.121,0,.31-.121.396-.275.121-.224.224-.224.603-.052.258.121.465.275.465.362s.121.138.258.138.258.069.258.138c0,.172,1.481,1.24,1.722,1.24.086,0,.103-.172.069-.396-.052-.207-.103-.482-.103-.603-.017-.103-.086-.207-.172-.207s-.121-.069-.069-.155c.052-.069-.069-.603-.275-1.171l-.379-1.016.379-.379c.207-.207.379-.344.379-.293,0,.138.93-.482,1.085-.723.069-.121.258-.224.396-.224s.224-.069.172-.155.086-.207.327-.258c.93-.241.344-.413-1.498-.43-1.068-.017-1.963-.069-1.997-.103-.172-.172-.878-2.393-.792-2.531.052-.069,0-.138-.103-.138-.121,0-.172-.103-.121-.241s.017-.293-.103-.344c-.344-.138-.413-.121-.413.155Z"/>
      <path class="cls-1" d="M30.717,64.27c-.052.189-.172.344-.258.344s-.121.069-.069.138c.086.138-.62,2.359-.792,2.531-.034.034-.93.086-1.997.103-1.842.017-2.428.189-1.498.43.241.052.379.172.327.258s.034.155.172.155.327.103.396.224c.155.241,1.085.861,1.085.723,0-.052.172.086.379.293l.379.379-.379,1.016c-.207.568-.327,1.102-.275,1.171.052.086.017.155-.069.155s-.155.103-.172.207c0,.121-.052.396-.103.603-.034.224-.017.396.069.396.241,0,1.722-1.068,1.722-1.24,0-.069.086-.138.172-.138.103,0,.344-.155.551-.344.448-.413.792-.448.93-.086.069.138.207.258.344.258s.241.069.241.172.121.172.258.172c.155,0,.31.121.362.258.069.138.172.258.258.258s.31.155.499.344c.482.482.913.465.758-.052-.052-.207-.172-.396-.258-.43-.069-.034-.086-.172-.034-.327.086-.207.052-.241-.121-.138s-.207.069-.121-.155c.069-.155-.034-.689-.224-1.171l-.327-.878.379-.31c.207-.172.465-.396.585-.499.121-.086.293-.172.396-.172.086,0,.172-.086.172-.172s.103-.172.241-.172.31-.155.362-.344c.069-.189.189-.31.275-.258.189.121.706-.344.551-.499-.069-.052-.947-.103-1.98-.103-1.205,0-1.842-.069-1.773-.172.052-.103.017-.172-.086-.172-.121,0-.172-.121-.103-.258.052-.138.034-.258-.052-.258-.138,0-.758-1.894-.758-2.324,0-.379-.31-.31-.413.086Z"/>
      <path class="cls-1" d="M74.744,64.27c-.275,0-.344.069-.275.258.052.138.034.258-.034.258-.189,0-.758,1.705-.637,1.894.052.103.017.172-.086.172s-.155.069-.103.155c.172.275-.396.362-2.238.362-.981,0-1.791.052-1.791.121.017.258.861.758,1.085.637.103-.069.155-.069.086.017-.103.121.654.861.895.861.034,0,.275.207.534.465.241.258.499.413.568.344s-.034.344-.258.913c-.207.568-.448,1.068-.534,1.085-.069.034-.103.121-.052.207s.017.344-.069.568c-.121.31-.121.465.034.534.121.034.069.086-.103.086-.155.017-.293.103-.293.207,0,.241.999-.327,1.584-.93.258-.258.482-.413.482-.344,0,.069.103.017.224-.121s.379-.362.603-.482c.413-.224.93-.052,1.36.482.121.138.224.189.224.121s.224.086.482.344c.585.603,1.584,1.171,1.584.93,0-.103-.138-.189-.31-.207-.155,0-.207-.052-.086-.086.155-.069.155-.224.034-.534-.086-.224-.121-.482-.069-.568s.017-.172-.052-.207c-.086-.017-.327-.517-.534-1.085-.224-.568-.327-.981-.258-.913s.327-.086.568-.344c.258-.258.534-.499.62-.534.396-.138.93-.672.809-.792-.069-.086-.017-.086.086-.017.224.121,1.068-.379,1.085-.637,0-.069-.809-.121-1.791-.121-1.842,0-2.411-.086-2.238-.362.052-.086,0-.155-.103-.155s-.138-.069-.086-.172c.121-.189-.448-1.894-.637-1.894-.069,0-.086-.121-.034-.258.069-.189,0-.258-.275-.258Z"/>
      <path class="cls-1" d="M99.71,73.137c-.103.052-.172.189-.172.275,0,.103.069.121.172.069.086-.052.172-.189.172-.275,0-.103-.086-.121-.172-.069Z"/>
      <path class="cls-1" d="M49.623,73.137c-.034.052.017.189.121.293.121.121.207.138.207.034,0-.103-.052-.241-.121-.293-.052-.069-.155-.086-.207-.034Z"/>
      <path class="cls-1" d="M129.325,73.499c0,.155-.189.826-.43,1.498-.241.654-.396,1.24-.362,1.291.052.034-.017.189-.155.31-.172.172-.758.241-2.169.241-1.687,0-1.894.034-1.705.258.121.138.31.258.413.258.121,0,.396.189.62.43.207.224.465.379.534.327.086-.052.155-.017.155.086,0,.086.31.362.706.585.448.275.637.465.499.551-.103.069-.155.224-.103.362.052.121.017.275-.086.327-.086.069-.121.172-.069.258s.017.189-.086.258-.138.172-.086.258.017.189-.086.258-.138.172-.086.258.017.189-.069.258c-.103.052-.138.207-.069.344.052.138.017.258-.069.258s-.155.207-.172.465c0,.275.017.344.069.172.034-.155.224-.293.413-.293.172,0,.327-.086.327-.172,0-.103.121-.172.258-.172s.258-.069.258-.155.155-.189.344-.241.344-.207.344-.362c0-.172.103-.224.258-.172.138.069.258.017.258-.069,0-.344.706-.413,1.05-.103.172.155.327.224.327.155,0-.069.241.103.517.413.293.293.603.499.672.448.086-.052.207.034.258.189.069.189.224.241.465.189.258-.069.327-.034.258.155-.052.138-.017.241.069.241.241,0,.224-.138-.172-1.171-.189-.499-.31-.981-.258-1.085.069-.086.034-.155-.052-.155-.103,0-.224-.189-.275-.413s-.155-.534-.207-.689c-.069-.172-.017-.275.155-.275.138,0,.293-.069.327-.138.069-.189,1.877-1.498,2.238-1.636.172-.052.31-.189.31-.293,0-.103-.74-.172-1.98-.172-1.636,0-1.98-.052-1.997-.258-.052-.482-.069-.568-.189-.689-.069-.069-.069-.224-.017-.362s0-.241-.121-.241c-.103,0-.155-.069-.103-.138.052-.086-.017-.344-.155-.603-.121-.241-.189-.482-.121-.534.052-.052,0-.103-.121-.103s-.189-.103-.138-.241.052-.293,0-.344c-.207-.189-.396-.103-.396.172Z"/>
      <path class="cls-1" d="M107.647,73.223c-.103,0-.172.052-.155.121.017.086-.069.362-.189.654-.121.275-.241.689-.241.895-.017.189-.103.327-.189.258-.086-.052-.121.034-.052.189.069.172.034.293-.069.293s-.155.121-.086.258c.052.138.034.258-.052.258s-.138.138-.121.293c.017.275-.189.31-1.756.362-1.136.034-1.756.121-1.756.241,0,.241.809.999.93.878.052-.052.138.034.207.189.052.155.172.275.258.275.155,0,.379.155.947.672.258.224.207.999-.069,1.222-.069.052-.155.275-.189.517-.017.241-.103.465-.172.517-.052.052-.121.207-.121.344-.052.585-.172.947-.327,1.068-.103.086-.103.138.034.138.103,0,.31-.121.465-.258.138-.138.379-.258.517-.258.155,0,.275-.121.275-.275,0-.138.069-.224.155-.155.086.052.275-.069.413-.258.121-.189.275-.31.327-.258s.224-.069.396-.258.379-.344.465-.344c.207,0,2.083,1.257,2.238,1.498.086.103.31.155.517.103.327-.069.344-.052.138.103-.327.224-.017.241.344.017.207-.121.207-.172.017-.172-.121,0-.189-.103-.121-.258.052-.138.017-.258-.086-.258s-.155-.103-.103-.241.052-.275-.017-.31c-.086-.034-.293-.499-.499-1.033-.189-.551-.293-.947-.207-.895s.155-.034.155-.172c0-.155.069-.275.155-.275s.275-.103.396-.224c.121-.103.413-.31.672-.43.241-.121.689-.482,1.016-.775l.585-.551-1.618-.034c-1.825-.052-2.462-.155-2.324-.379.103-.172-.603-2.135-.809-2.221-.069-.034-.069-.172-.017-.31s0-.241-.103-.241-.138-.121-.086-.258c.069-.138.017-.258-.086-.258Z"/>
      <path class="cls-1" d="M41.84,73.223c-.103,0-.155.121-.086.258.052.138.017.258-.086.258s-.155.103-.103.241.052.275-.017.31c-.207.086-.913,2.049-.809,2.221.138.224-.499.327-2.324.379l-1.636.034.517.482c.293.275.74.603,1.033.758.275.155.603.379.74.499.121.138.31.241.396.241s.155.121.155.275c0,.138.069.224.155.172s-.017.344-.207.895c-.207.534-.413.999-.499,1.033-.069.034-.069.172-.017.31s0,.241-.103.241-.138.121-.086.258c.069.155,0,.258-.121.258-.172.017-.138.069.052.189.327.189.999-.069.999-.362,0-.103.069-.172.172-.172.086,0,.568-.275,1.033-.62q.861-.62,1.343-.31c.258.172.482.275.499.224.034-.034.172.103.31.327.155.207.362.344.448.293.086-.069.155.017.155.155,0,.155.121.275.275.275.138,0,.379.121.517.258.155.138.362.258.465.258.138,0,.138-.052.034-.138-.155-.121-.275-.482-.327-1.068,0-.138-.069-.293-.121-.344-.069-.052-.155-.275-.172-.517-.034-.241-.121-.465-.189-.517-.293-.224-.327-.999-.052-1.222.138-.138.379-.344.517-.465.121-.103.31-.207.396-.207.103,0,.224-.121.275-.275.052-.138.172-.207.275-.155.086.052.172.017.172-.086,0-.086.275-.31.603-.465.568-.275.792-.568.43-.568-.103,0-.172.103-.172.207,0,.172-.034.172-.138.017-.086-.138-.74-.224-1.842-.258-1.515-.052-1.722-.086-1.705-.362.017-.155-.034-.293-.121-.293s-.103-.121-.052-.258c.069-.138.017-.258-.086-.258s-.138-.121-.069-.293c.069-.155.034-.241-.052-.189-.086.069-.172-.069-.189-.258,0-.207-.121-.62-.241-.895-.121-.293-.207-.568-.189-.654.017-.069-.052-.121-.155-.121Z"/>
      <path class="cls-1" d="M19.939,73.275c-.103.034-.189.189-.155.362.034.155-.052.275-.155.275-.121,0-.172.052-.121.103.069.052,0,.293-.121.534-.138.258-.207.517-.155.603.052.069,0,.138-.103.138-.121,0-.172.103-.121.241s.052.293-.017.362c-.121.121-.138.207-.189.689-.017.207-.362.258-1.997.258-1.24,0-1.98.069-1.98.172,0,.103.138.241.293.293.379.138,2.187,1.446,2.256,1.636.034.069.172.138.31.138.31,0,.344-.138-.362,1.877-.672,1.928-.672,1.911-.43,1.911.086,0,.121-.103.069-.241-.069-.189,0-.224.258-.155.241.052.396,0,.465-.189.052-.155.172-.241.258-.189.069.052.379-.155.672-.448.275-.31.517-.482.517-.413,0,.069.155,0,.327-.155.344-.31,1.05-.241,1.05.103,0,.086.103.138.241.086s.275.034.327.258c.052.189.172.293.275.224.103-.052.241.017.293.155.052.155.207.275.344.275s.241.069.241.172c0,.086.155.172.327.172.189,0,.379.138.413.293.052.172.069.103.069-.172-.017-.258-.086-.465-.172-.465s-.121-.121-.069-.258c.069-.138.034-.293-.069-.344-.086-.069-.121-.172-.069-.258s.017-.189-.086-.258-.138-.172-.086-.258.017-.189-.086-.258-.138-.172-.086-.258.017-.189-.069-.258c-.103-.052-.138-.207-.086-.327.052-.138,0-.293-.103-.362-.138-.086.052-.275.499-.551.396-.224.706-.499.706-.585,0-.103.069-.138.155-.086.069.052.327-.103.534-.327.224-.241.499-.43.62-.43.103,0,.293-.121.413-.258.189-.224-.017-.258-1.705-.258-1.412,0-1.997-.069-2.169-.241-.138-.121-.207-.275-.155-.31.034-.052-.121-.637-.362-1.291-.241-.672-.43-1.343-.43-1.515,0-.155-.103-.258-.224-.207Z"/>
      <path class="cls-1" d="M85.763,73.568c-.241,0-.482.413-.396.654.086.189.052.224-.103.121-.172-.086-.189-.034-.103.241.069.207.034.362-.069.362s-.172.052-.155.121c.069.275-.241,1.257-.379,1.257-.086,0-.121.121-.069.258.086.224-.189.258-1.928.258l-2.049.017.603.482c.327.275.654.465.706.43.069-.034.155.103.207.293.052.207.172.31.293.241.103-.069.379.086.603.327s.551.448.706.448c.207,0,.241.069.121.207-.258.344-.74,1.877-.637,2.049.052.086,0,.155-.103.155-.121,0-.172.121-.103.258.052.138.017.258-.086.258s-.155.103-.103.241.017.293-.103.327-.155.138-.086.207.344-.034.62-.241c.293-.207.603-.362.689-.362.103,0,.241-.155.293-.362.069-.189.155-.31.207-.258s.344-.103.672-.344c.551-.43,1.274-.465,1.274-.052,0,.086.121.155.258.155.155,0,.31.121.362.258.069.138.172.224.258.172.069-.052.224.052.327.241.121.224.275.31.465.241.172-.069.241-.034.172.069-.103.172.706.654.861.499.052-.034-.017-.258-.138-.482-.121-.207-.207-.448-.189-.534.017-.069-.052-.121-.155-.121s-.155-.121-.086-.258c.052-.138.017-.258-.086-.258s-.155-.121-.086-.258c.052-.138.034-.258-.034-.258s-.138-.138-.155-.31c0-.155-.069-.551-.138-.861-.103-.413-.069-.551.103-.551.138,0,.482-.207.758-.482.275-.258.517-.43.534-.379s.258-.121.534-.362.637-.499.826-.603c.241-.103-.258-.172-1.67-.207l-2.015-.052-.293-.93c-.172-.517-.379-.878-.465-.826-.103.052-.121.017-.052-.103.069-.103.034-.465-.086-.792s-.275-.603-.327-.603Z"/>
      <path class="cls-1" d="M63.724,73.568c-.189,0-.534,1.205-.413,1.395.069.121.052.155-.052.103-.086-.052-.293.31-.465.826l-.293.93-2.015.052c-1.412.034-1.911.103-1.67.207.189.103.551.362.826.603s.551.448.603.43c.069,0,.31.172.551.396s.534.396.672.396c.172,0,.207.138.103.551-.069.31-.138.706-.138.861-.017.172-.086.31-.155.31s-.086.121-.034.258c.069.138.017.258-.086.258s-.138.121-.086.258c.069.138.017.258-.086.258s-.172.052-.155.121c.017.086-.069.327-.189.534-.121.224-.189.448-.138.482.138.138.981-.31.878-.465-.052-.086.034-.103.172-.052.155.052.327-.052.448-.275.103-.189.258-.31.327-.258.086.052.189-.034.258-.172.052-.138.207-.258.362-.258.138,0,.258-.069.258-.155,0-.413.723-.379,1.274.052.327.241.62.396.672.344s.138.069.207.258c.052.207.189.362.293.362.086,0,.396.155.689.362.275.207.551.31.62.241s.034-.172-.086-.207-.155-.189-.103-.327,0-.241-.103-.241-.138-.121-.086-.258c.069-.138.017-.258-.103-.258-.103,0-.155-.069-.103-.155.103-.172-.379-1.705-.637-2.049-.121-.138-.086-.207.121-.207.155,0,.482-.207.706-.448s.499-.396.603-.327c.121.069.241-.034.293-.241.052-.189.138-.327.207-.293.052.034.379-.155.706-.43l.603-.482-2.049-.017c-1.739,0-2.015-.034-1.928-.258.052-.138.017-.258-.069-.258-.138,0-.448-.981-.379-1.257.017-.069-.052-.121-.155-.121s-.138-.155-.069-.362c.086-.275.069-.327-.103-.241-.155.103-.189.069-.103-.121.052-.155,0-.362-.103-.465s-.241-.189-.293-.189Z"/>
      <path class="cls-1" d="M102.637,76.839c-.103,0-.172.069-.172.172,0,.086.069.172.172.172.086,0,.172-.086.172-.172,0-.103-.086-.172-.172-.172Z"/>
      <path class="cls-1" d="M118.546,82.521c-.189,0-.258.103-.189.344.052.189.034.344-.052.344-.069,0-.121.103-.103.207.034.344-.637,2.376-.792,2.376-.069,0-.086.121-.034.258.086.207-.224.258-1.946.293-1.412.034-1.928.103-1.687.207.189.086.413.258.482.396.069.121.207.224.31.224.086,0,.379.189.637.43s.568.396.672.344c.121-.034.224.034.224.189,0,.138.103.293.241.344.224.086.224.189,0,.809-.138.396-.258.878-.275,1.102-.034.224-.086.396-.155.396-.207,0-.275.844-.086,1.05.138.155.121.172-.121.103-.155-.069-.293-.034-.293.052,0,.31.465.172.947-.275.258-.241.499-.396.551-.344.034.034.31-.172.585-.448.275-.293.499-.465.499-.379,0,.086.121.017.241-.155.207-.258.31-.275.603-.121.207.103.362.258.362.344s.121.121.258.069c.138-.069.258-.034.258.052,0,.275,1.515,1.257,1.773,1.154.224-.086.224-.155.034-.534-.138-.258-.207-.517-.155-.603.052-.069,0-.138-.103-.138s-.138-.086-.086-.172c.121-.189-.258-1.377-.448-1.377-.258,0,.069-.689.379-.775.172-.069.327-.189.327-.275s.086-.155.189-.155.275-.103.396-.224c.224-.207.654-.517,1.119-.792.534-.344-.052-.534-1.636-.534-.947,0-1.636-.069-1.653-.172,0-.103-.017-.275-.034-.396-.017-.103-.069-.241-.121-.293-.207-.172-.654-1.773-.551-1.946.069-.103.017-.121-.121-.034-.172.103-.207.069-.121-.138.069-.172.034-.293-.069-.293s-.155-.121-.086-.258c.052-.155,0-.258-.172-.258Z"/>
      <path class="cls-1" d="M74.744,82.521c-.138,0-.224.362-.155.792,0,.069-.069.172-.155.224-.103.052-.207.293-.224.534-.034.241-.138.482-.207.534-.086.069-.172.31-.172.568-.017.241-.103.448-.172.448-.086,0-.086.086-.017.189.224.362-.362.499-2.238.499h-1.877s.758.551.758.551c.413.293.775.603.809.689.034.069.172.138.31.138s.293.121.344.258c.069.138.189.258.31.258.103,0,.293.155.396.327.172.293.121.637-.379,2.118-.31.964-.551,1.808-.499,1.842.034.034.069-.017.069-.121s.121-.207.258-.207c.155,0,.31-.121.362-.258.069-.138.172-.258.258-.258.155,0,.362-.138.93-.654.121-.103.31-.207.396-.207.103,0,.224-.121.275-.275.052-.138.172-.224.258-.172.086.069.207,0,.258-.103.086-.189.121-.189.207,0,.052.103.172.172.258.103.086-.052.207.034.258.172.052.155.172.275.275.275.086,0,.275.103.396.207.568.517.775.654.93.654.086,0,.189.121.258.258.052.138.207.258.362.258.138,0,.258.086.258.207,0,.103.052.155.103.103s-.034-.396-.172-.74c-.155-.344-.241-.706-.189-.775.052-.086.034-.172-.034-.207-.086-.017-.275-.465-.43-.981-.224-.723-.241-.981-.086-1.24.103-.172.293-.327.396-.327.121,0,.241-.121.31-.258.052-.138.207-.258.344-.258s.275-.069.31-.138c.017-.086.396-.396.809-.689l.758-.551h-1.877c-1.877,0-2.462-.138-2.238-.499.069-.103.052-.189-.052-.189s-.138-.121-.086-.258c.069-.138.017-.258-.086-.258s-.138-.121-.086-.258c.069-.138.034-.258-.052-.258s-.172-.207-.189-.465-.121-.517-.224-.585c-.103-.052-.172-.155-.172-.224.017-.052.017-.258.017-.448,0-.189-.086-.344-.172-.344Z"/>
      <path class="cls-1" d="M30.941,82.521c-.172,0-.224.103-.172.258.069.138.017.258-.086.258s-.138.121-.069.293c.086.207.052.241-.121.138-.138-.086-.189-.069-.121.034.103.172-.344,1.773-.551,1.946-.052.052-.103.189-.121.293-.017.121-.034.293-.052.396,0,.103-.689.172-1.636.172-1.584,0-2.169.189-1.636.534.465.275.895.585,1.119.792.121.121.293.224.396.224s.189.069.189.155.155.207.327.275c.31.086.637.775.379.775-.189,0-.568,1.188-.448,1.377.052.086.017.172-.103.172s-.155.052-.103.121c.069.052.034.207-.069.344-.103.121-.138.224-.069.224s.034.103-.069.241c-.155.189-.138.258.086.344.275.103,1.791-.861,1.791-1.154,0-.086.121-.121.258-.052.138.052.258.017.258-.069s.155-.241.362-.344c.293-.155.396-.138.603.121.121.172.241.241.241.155s.224.086.499.379c.275.275.551.482.585.448.052-.052.293.103.551.344.482.448.947.585.947.275,0-.086-.138-.121-.31-.052-.224.069-.241.052-.103-.103.189-.207.121-1.05-.086-1.05-.069,0-.121-.172-.155-.396-.017-.207-.121-.689-.258-1.05-.207-.62-.207-.706.086-.999.172-.172.362-.31.448-.31.069,0,.327-.189.585-.43s.551-.43.637-.43c.103,0,.241-.103.31-.224.069-.138.293-.31.482-.396.241-.103-.275-.172-1.687-.207-1.67-.034-2.032-.086-1.963-.293.052-.121.034-.258-.034-.293-.189-.069-.895-2.221-.775-2.393.052-.086.017-.155-.069-.155-.103,0-.138-.155-.086-.344.069-.241,0-.344-.189-.344Z"/>
      <path class="cls-1" d="M95.922,84.622l-.568,1.687h-1.618c-1.171,0-1.601.052-1.601.207,0,.293.275.706.396.62.052-.017.293.121.534.327.258.224.517.396.603.396s.189.121.258.258c.052.138.224.258.362.258.224,0,.258.103.189.465-.069.275-.155.706-.207.999-.052.275-.172.603-.275.723s-.121.224-.034.224c.069,0,.052.086-.052.189s-.155.31-.103.43c.052.138-.017.241-.138.241-.155,0-.138.069.069.189.362.207.878.069.723-.189-.052-.086.017-.172.172-.172s.448-.189.672-.43.499-.43.603-.43.241-.121.293-.258c.138-.327.482-.327.758,0,.121.138.275.207.362.155s.155,0,.155.103.138.241.293.293c.172.069.499.293.74.517.43.396.93.517,1.085.258.103-.138-.74-2.686-.947-2.875-.069-.069.327-.413.861-.775s1.136-.809,1.326-.981c.189-.189.499-.396.689-.499.241-.103-.241-.172-1.653-.207l-2.015-.052-.224-.809c-.121-.448-.207-.913-.189-1.05.034-.138-.017-.172-.138-.103-.155.086-.172.017-.086-.241.069-.207.034-.362-.069-.362s-.172-.052-.155-.138c.017-.069-.034-.31-.103-.534-.189-.551-.31-.344-.964,1.567Z"/>
      <path class="cls-1" d="M52.842,82.607l-.189.43c-.086.241-.155.482-.155.551.017.086-.052.138-.155.138s-.138.155-.069.362c.086.258.069.327-.086.241-.121-.069-.172-.034-.138.103.017.138-.069.603-.189,1.05l-.241.826-1.825.017c-.999.017-1.894.017-1.963,0-.086-.017-.103.052-.034.155.052.086.189.172.275.172s.344.155.551.362c.207.189.826.654,1.36.999.534.362.913.723.844.809-.224.241-1.257,3.358-1.171,3.461.052.052.189.034.293-.034.155-.103.155-.172-.017-.275s-.138-.155.155-.155c.362,0,.499-.069,1.119-.62.121-.086.344-.224.499-.293.172-.052.31-.189.31-.293,0-.103.069-.155.155-.103s.241-.017.362-.155c.275-.327.62-.327.758,0,.052.138.189.258.293.258s.379.189.603.43.517.43.672.43.224.086.172.172c-.155.258.362.396.723.189.207-.121.224-.189.069-.189-.121,0-.189-.103-.138-.241.052-.121,0-.327-.103-.43s-.121-.189-.052-.189c.086,0,.069-.103-.034-.224s-.224-.448-.275-.723c-.052-.293-.138-.723-.207-.999-.069-.362-.034-.465.189-.465.138,0,.31-.121.362-.258.069-.138.172-.258.258-.258s.344-.172.603-.396c.241-.207.482-.344.534-.327.121.086.396-.327.396-.62,0-.155-.43-.207-1.601-.207h-1.618s-.482-1.429-.482-1.429c-.258-.775-.551-1.601-.654-1.842l-.155-.43Z"/>
      <path class="cls-1" d="M339.212,85.104h-99.176s-99.176,0-99.176,0v6.801s0,6.801,0,6.801h99.176s99.176,0,99.176,0v-6.801s0-6.801,0-6.801Z"/>
      <path class="cls-1" d="M91.721,86.326c-.189-.017-.293.034-.224.086.052.052.207.069.327.017.138-.052.086-.103-.103-.103Z"/>
      <path class="cls-1" d="M57.801,86.326c-.189-.017-.293.034-.224.086.052.052.207.069.327.017.138-.052.086-.103-.103-.103Z"/>
      <path class="cls-1" d="M25.845,86.309c-.103,0-.172.034-.172.069,0,.052.069.138.172.189.086.052.172.017.172-.069,0-.103-.086-.189-.172-.189Z"/>
      <path class="cls-1" d="M129.566,91.819c-.034,0-.189.43-.344.947-.172.517-.379.947-.448.947-.086,0-.121.069-.069.155s-.017.482-.155.878-.207.792-.155.895c.069.103-.689.138-1.98.103-1.154-.034-2.083,0-2.083.069s.103.138.241.138c.121,0,.43.189.689.43s.499.43.551.43c.034,0,.396.241.809.534.74.534,1.136,1.016.826,1.016-.103,0-.138.121-.086.258.069.138.017.258-.121.258-.121,0-.172.052-.121.103.069.052,0,.293-.121.534-.138.258-.207.517-.155.603.052.069,0,.138-.103.138-.121,0-.155.138-.086.344.052.189.052.344-.034.344-.069,0-.155.207-.172.465q-.017.482.258.121c.172-.189.362-.379.465-.413.379-.121,1.464-.913,1.464-1.05,0-.086.086-.155.189-.155s.31-.121.465-.275c.241-.258.293-.258.465,0,.121.155.293.275.413.275.103,0,.189.069.189.172s.121.172.258.172c.155,0,.31.121.362.258.069.138.207.258.344.258s.241.086.241.172c0,.103.172.241.379.327.62.241.689-.172.224-1.464-.534-1.498-.637-2.135-.379-2.032.121.034.465-.155.775-.448.31-.275.637-.517.74-.517.086,0,.155-.086.155-.172s.121-.172.258-.172.258-.069.258-.155.155-.224.344-.275c.775-.241.241-.344-1.636-.293-1.963.052-1.98.052-1.997-.344-.017-.224-.017-.448,0-.534,0-.069-.069-.121-.172-.121s-.155-.121-.086-.258c.052-.138.017-.258-.086-.258s-.155-.121-.086-.258c.052-.138.017-.258-.069-.258s-.121-.121-.069-.258c.069-.138.017-.258-.086-.258s-.241-.31-.293-.689c-.069-.379-.138-.689-.172-.689Z"/>
      <path class="cls-1" d="M107.475,91.905c-.034.052.017.189.121.293.121.121.207.138.207.034s-.052-.241-.121-.293c-.052-.069-.155-.086-.207-.034Z"/>
      <path class="cls-1" d="M99.624,91.922c-.138.069-.207.172-.155.258.138.241.413.172.413-.103,0-.155-.103-.207-.258-.155Z"/>
      <path class="cls-1" d="M85.78,91.819c-.241,0-.362.258-.448.895-.034.31-.241,1.136-.465,1.825l-.396,1.257-1.946-.052c-1.825-.052-2.359.052-1.584.293.189.052.344.189.344.275s.121.155.258.155.258.069.258.172c0,.086.258.293.551.448.31.155.637.396.706.517.069.138.258.241.379.241.31,0,.344-.189-.258,1.618-.293.844-.482,1.584-.43,1.618.052.052,0,.189-.103.327-.155.172-.138.224.086.224.155,0,.327-.121.379-.258.069-.138.207-.258.344-.258s.241-.086.241-.172c0-.103.121-.172.258-.172.155,0,.31-.121.362-.258.069-.138.207-.258.344-.258.121,0,.293-.103.362-.241.241-.413.964-.396,1.429.017.241.224.482.396.551.396.086,0,.293.138.465.293,1.102,1.016,1.567,1.291,1.567.913,0-.103-.121-.172-.275-.172-.241,0-.241-.052-.069-.258.155-.189.155-.258.017-.258-.121,0-.172-.069-.103-.155.052-.086,0-.224-.103-.275-.086-.069-.138-.224-.086-.362s.017-.241-.069-.241c-.103,0-.172-.241-.172-.517,0-.293-.069-.517-.138-.517-.121,0-.138-.396-.052-1.154,0-.121.121-.172.258-.121.121.052.275-.034.327-.172.069-.155.224-.275.379-.275.138,0,.258-.086.258-.172s.103-.172.241-.172.293-.155.362-.344c.052-.189.172-.327.258-.293.069.017.138-.052.155-.138.017-.103-.654-.189-1.584-.224l-1.618-.052-.327-.93c-.172-.517-.379-.947-.448-.947s-.086-.103-.034-.224c.034-.121-.034-.517-.189-.861-.155-.362-.224-.723-.172-.809.069-.103.034-.172-.069-.172Z"/>
      <path class="cls-1" d="M63.707,91.819c-.103,0-.138.069-.069.172.052.086-.017.448-.172.809-.155.344-.224.74-.189.861.052.121.034.224-.034.224s-.275.43-.448.947l-.327.93-1.618.052c-.93.034-1.601.121-1.584.224.017.086.086.155.155.138.086-.034.207.103.258.293.069.189.224.344.362.344s.241.069.241.172c0,.086.121.172.258.172.155,0,.31.121.379.275.052.138.207.224.327.172.138-.052.241,0,.258.121,0,.121.034.413.052.672.017.275-.017.482-.086.482s-.121.207-.121.465c0,.258-.069.499-.172.534s-.155.155-.103.293c.052.121,0,.275-.086.344-.103.052-.155.189-.103.275.069.086.034.155-.069.155s-.138.121-.086.258c.069.138.017.258-.086.258s-.189.069-.189.172c0,.258.31.207.672-.138.654-.585,1.257-1.068,1.36-1.068.069,0,.31-.172.551-.396.465-.413,1.188-.43,1.429-.017.069.138.241.241.362.241.138,0,.275.121.344.258.052.138.207.258.362.258.138,0,.258.069.258.172,0,.086.103.172.241.172s.275.121.344.258c.052.138.224.258.379.258.224,0,.241-.052.086-.224-.103-.138-.155-.275-.103-.327.052-.034-.138-.758-.413-1.601-.482-1.429-.534-1.946-.189-1.722.086.052.207-.017.293-.138.069-.138.396-.379.689-.534.31-.155.568-.362.568-.448,0-.103.121-.172.258-.172s.258-.069.258-.155c0-.086.155-.224.344-.275.775-.241.241-.344-1.584-.293l-1.946.052-.396-1.257c-.224-.689-.43-1.515-.465-1.825s-.121-.637-.172-.723c-.052-.103-.189-.172-.275-.172Z"/>
      <path class="cls-1" d="M41.857,91.905c-.103.052-.172.189-.172.275s.069.121.172.069c.086-.052.172-.189.172-.275,0-.103-.086-.121-.172-.069Z"/>
      <path class="cls-1" d="M19.818,92.077c-.069.189-.103.396-.052.465.034.086-.017.138-.121.138s-.155.069-.086.155c.052.086,0,.224-.103.275-.086.069-.138.224-.086.362s.017.241-.069.241-.121.121-.069.258c.069.138.017.258-.086.258s-.138.121-.086.258c.069.138.017.258-.086.258s-.172.052-.172.121c.017.086.017.31,0,.534-.017.396-.034.396-1.997.344-1.877-.052-2.411.052-1.636.293.189.052.344.189.344.275,0,.086.121.155.258.155s.258.069.258.172c0,.086.069.172.155.172.103,0,.43.241.74.517.31.293.654.482.775.448.258-.103.155.534-.379,2.032-.465,1.291-.396,1.705.207,1.464.224-.086.396-.224.396-.327s.103-.172.241-.172.275-.121.344-.258c.052-.138.207-.258.362-.258.138,0,.258-.086.258-.172,0-.103.086-.172.189-.172.121,0,.293-.121.413-.275.172-.258.224-.258.465,0,.155.155.362.275.465.275s.189.069.189.155c0,.138,1.343,1.102,1.55,1.119.052,0,.207.155.379.344q.275.362.258-.121c-.017-.258-.103-.465-.172-.465-.086,0-.086-.155-.034-.344.069-.207.034-.344-.086-.344-.103,0-.155-.069-.103-.138.052-.086-.017-.344-.155-.603-.121-.241-.189-.482-.121-.534.052-.052,0-.103-.121-.103-.138,0-.189-.121-.121-.258.052-.138.017-.258-.086-.258-.31,0,.086-.482.826-1.016.413-.293.775-.534.809-.534.052,0,.293-.189.551-.43s.568-.43.689-.43c.138,0,.241-.052.241-.138,0-.069-.93-.103-2.083-.069-1.291.034-2.049,0-1.98-.103.052-.103-.017-.499-.155-.895s-.207-.792-.155-.878.017-.155-.069-.155c-.069,0-.293-.448-.465-.999-.241-.775-.327-.913-.43-.637Z"/>
      <path class="cls-1" d="M121.749,91.991c-.103,0-.172.069-.172.172,0,.086.069.172.172.172.086,0,.172-.086.172-.172,0-.103-.086-.172-.172-.172Z"/>
      <path class="cls-1" d="M93.615,91.991c-.155,0-.275.069-.275.172,0,.086.069.172.155.172.103,0,.224-.086.275-.172.052-.103-.017-.172-.155-.172Z"/>
      <path class="cls-1" d="M55.873,91.991c-.138,0-.207.069-.155.172.052.086.172.172.275.172.086,0,.155-.086.155-.172s-.121-.172-.275-.172Z"/>
      <path class="cls-1" d="M27.739,91.991c-.103,0-.172.069-.172.172,0,.086.069.172.172.172.086,0,.172-.086.172-.172,0-.103-.086-.172-.172-.172Z"/>
      <path class="cls-1" d="M107.423,92.335c-.103,0-.379.895-.396,1.291,0,.086-.052.207-.121.258-.052.052-.155.43-.224.861-.069.413-.155.826-.189.895-.052.086-.964.138-2.015.138h-1.928s.517.43.517.43c.275.224.603.413.706.43.121,0,.258.121.31.275.069.155.224.241.379.172.138-.052.224-.034.172.052-.052.069.138.31.413.517.43.31.499.448.413.844-.069.258-.207.517-.31.585s-.121.138-.034.138.052.103-.052.224c-.103.138-.155.275-.103.327.052.034-.069.499-.258,1.016-.396,1.085-.396,1.016-.172,1.016.086,0,.172-.121.172-.275,0-.138.069-.224.155-.172s.241-.017.362-.155.327-.258.448-.258c.138,0,.241-.086.241-.172s.121-.172.258-.172.258-.069.258-.155c0-.258,1.102-.878,1.274-.706.069.069.258.103.413.052.172-.069.224-.034.138.086-.069.121-.034.207.069.207.121,0,.499.224.861.517.344.275.689.465.758.396.052-.052.103.017.103.189,0,.172.086.241.189.172.103-.052.258-.017.327.103.086.138.155.121.224-.086.069-.155.052-.224-.052-.172s-.189-.052-.207-.241c0-.207-.017-.465-.034-.585-.017-.103-.069-.241-.121-.293-.155-.138-.844-2.256-.689-2.169.069.052.379-.138.689-.413.31-.293.62-.517.723-.517.086,0,.155-.086.155-.172,0-.103.103-.172.207-.172.121-.017.448-.207.74-.43l.517-.43h-1.825c-1.842,0-2.29-.138-2.101-.654.086-.189.052-.224-.121-.121-.138.086-.189.069-.121-.034.138-.224-.241-1.429-.43-1.429-.086,0-.103-.086-.052-.172.069-.103.017-.293-.086-.43-.121-.138-.155-.258-.069-.258s.034-.086-.103-.172-.31-.172-.379-.172Z"/>
      <path class="cls-1" d="M42.064,92.335c-.189,0-.654.344-.482.344.086,0,.052.121-.069.258-.103.138-.155.327-.086.43.052.086.034.172-.052.172-.189,0-.568,1.205-.43,1.429.069.103.017.121-.121.034-.172-.103-.207-.069-.121.121.189.517-.258.654-2.118.654h-1.808s.517.43.517.43c.275.224.62.413.723.43.121,0,.224.069.224.172s.069.172.155.172c.103,0,.413.224.723.517.31.275.62.465.689.413.155-.086-.534,2.032-.689,2.169-.052.052-.103.189-.121.293-.017.121-.034.379-.052.585,0,.189-.086.293-.189.241-.103-.069-.121.017-.052.189.069.189.138.224.189.103.034-.121.172-.207.31-.207s.241-.086.241-.207c0-.103.052-.138.103-.086.069.069.413-.121.758-.396.362-.293.74-.517.861-.517.103,0,.138-.086.069-.207-.086-.121-.034-.155.138-.086.155.052.344.017.43-.069.121-.121.258-.103.413.052.138.138.379.293.534.362.172.052.31.189.31.293s.121.172.258.172.258.069.258.172.103.172.241.172c.121,0,.327.121.448.258s.275.207.362.155.155.034.155.172c0,.155.069.275.172.275.224,0,.224.069-.172-1.016-.207-.499-.31-.964-.275-1.016.052-.052.017-.189-.086-.327-.103-.121-.138-.224-.052-.224s.069-.069-.034-.138-.241-.327-.31-.585c-.086-.396-.017-.534.413-.844.275-.207.465-.448.413-.517-.052-.086.034-.103.172-.052.155.069.31-.017.379-.172.052-.155.189-.275.31-.275.103-.017.413-.207.706-.43l.517-.43h-1.808c-.999,0-1.894-.069-2.015-.138-.103-.069-.241-.465-.31-.895s-.172-.809-.224-.861c-.069-.052-.121-.172-.121-.258,0-.103-.069-.43-.155-.74-.069-.293-.189-.551-.241-.551Z"/>
      <path class="cls-1" d="M132.665,101.34c-.052.052-.069.207-.017.327.052.138.103.086.103-.103.017-.189-.034-.293-.086-.224Z"/>
      <path class="cls-1" d="M118.581,101.34c-.103.034-.172.207-.172.362.017.155-.034.275-.138.275-.086,0-.103.086-.052.172.069.103-.086.603-.31,1.102-.241.517-.396.964-.362,1.016.052.034,0,.275-.086.534-.172.448-.207.448-1.825.448-1.584,0-1.773.052-1.498.43.155.207,1.05.758,1.446.895.155.034.31.241.362.413.052.189.155.327.241.31.344-.069.362.069.052.981-.189.534-.293,1.033-.241,1.119s.017.155-.069.155c-.327,0-.413.895-.138,1.188.258.241.275.241.275-.034,0-.172.138-.293.344-.293.189,0,.344-.086.344-.172s.086-.172.172-.172c.103,0,.413-.241.689-.517.293-.293.517-.482.517-.413,0,.052.121,0,.275-.121.241-.189.31-.172.499.086.138.172.31.258.413.189.103-.052.189.017.189.155,0,.138.155.31.344.362s.344.189.344.275c0,.086.121.155.258.155s.258.069.258.172c0,.086.189.155.413.138.362-.034.396-.086.258-.448-.086-.224-.121-.482-.052-.568.052-.086,0-.155-.103-.155s-.155-.069-.103-.138c.052-.086-.034-.534-.172-.999-.155-.551-.189-.861-.069-.895.086-.034.138-.138.069-.224-.052-.086-.017-.155.069-.155.069,0,.723-.413,1.446-.913l1.291-.895-1.911.052-1.911.069-.603-1.791c-.327-.981-.585-1.877-.568-1.997,0-.121-.069-.189-.189-.155Z"/>
      <path class="cls-1" d="M96.111,102.873c-.017.172-.103.31-.207.31-.086,0-.138.069-.086.155s-.017.482-.155.878-.207.809-.155.895c.069.103-.637.155-1.963.103-1.86-.052-2.015-.034-1.687.207.189.138.396.224.43.189.034-.017.138.069.224.224s.275.275.396.275c.138,0,.258.069.258.172,0,.086.103.172.224.172s.31.155.43.344c.121.207.293.31.379.258.189-.121.189-.103.258.723.034.362-.017.517-.138.448-.103-.069-.138,0-.069.172s.034.293-.069.293-.155.103-.103.241.017.275-.069.31-.207.293-.241.568c-.034.293-.069.551-.086.603-.034.052-.034.155-.017.241s-.069.224-.189.293c-.172.121-.155.155.052.155.155,0,.344-.121.396-.275.069-.155.155-.241.224-.189.155.155.585-.224.465-.413-.052-.086.017-.103.138-.069.138.052.413-.103.62-.344s.482-.43.62-.43.344-.138.448-.31c.138-.207.224-.224.275-.086.052.121.172.224.275.224.207,0,1.377.861,1.567,1.154.069.121.241.172.362.121.155-.052.293.052.362.258.103.362.603.517.603.189,0-.103-.086-.172-.189-.172s-.155-.121-.086-.258c.052-.138.017-.258-.086-.258s-.138-.069-.069-.155c.052-.086-.103-.723-.327-1.429l-.413-1.257.465-.379c.241-.207.551-.379.654-.396.121,0,.224-.121.224-.275,0-.155.086-.241.207-.207.189.069.999-.568.999-.775,0-.069-.74-.138-1.67-.155l-1.653-.052-.396-1.171c-.207-.637-.344-1.154-.293-1.154s0-.103-.103-.224c-.103-.138-.138-.293-.086-.344s.034-.207-.034-.327c-.086-.121-.155-.275-.172-.362-.017-.069-.034-.172-.052-.258-.069-.189-.672,1.205-.689,1.55Z"/>
      <path class="cls-1" d="M74.744,101.289c-.103,0-.172.069-.172.172,0,.086.069.172.172.172.086,0,.172-.086.172-.172,0-.103-.086-.172-.172-.172Z"/>
      <path class="cls-1" d="M52.774,101.323c-.052.069-.069.138-.034.189.017.034-.052.189-.189.362-.138.155-.189.327-.138.396.069.052.034.207-.069.344-.103.121-.155.224-.103.224s-.086.517-.293,1.154l-.396,1.171-1.653.052c-.93.017-1.67.086-1.67.155,0,.207.809.844.999.775.121-.034.207.052.207.207,0,.155.103.275.207.275.121.017.43.189.672.396l.465.379-.413,1.257c-.224.706-.379,1.343-.327,1.429.069.086.034.155-.069.155s-.138.121-.086.258c.069.138.017.258-.086.258s-.189.069-.189.172c0,.327.499.172.603-.189.069-.207.207-.31.362-.258.121.052.293,0,.362-.121.189-.293,1.36-1.154,1.567-1.154.103,0,.224-.103.275-.224.052-.138.138-.121.275.086.103.172.31.31.448.31s.413.189.62.43.482.396.62.344c.121-.034.189-.017.138.069s.017.241.155.362.258.155.258.086.155,0,.344.172.396.258.465.207c.052-.069.017-.121-.103-.121s-.189-.103-.138-.241.052-.293,0-.344c-.069-.052-.138-.31-.155-.568-.034-.258-.138-.499-.224-.534s-.121-.172-.069-.31,0-.241-.103-.241-.138-.121-.069-.293.034-.241-.069-.172c-.121.069-.172-.086-.138-.448.069-.826.069-.844.258-.723.086.052.258-.052.379-.258.121-.189.31-.344.43-.344s.224-.086.224-.172c0-.103.121-.172.258-.172.121,0,.31-.121.396-.275s.224-.275.31-.275.275-.086.43-.207c.224-.138-.207-.172-1.773-.138-1.291.034-2.032,0-1.963-.103.052-.086-.172-.964-.499-1.946s-.603-1.825-.603-1.86-.052-.034-.103.017Z"/>
      <path class="cls-1" d="M30.717,101.495c.017.121-.241,1.016-.568,1.997l-.603,1.791-1.911-.069-1.911-.052,1.291.895c.723.499,1.377.913,1.446.913.086,0,.121.069.069.155-.069.086-.017.189.069.224.121.034.086.344-.069.895-.138.465-.224.913-.172.999.052.069.034.138-.052.138-.069,0-.155.207-.172.448,0,.258-.103.517-.224.585-.103.069.052.121.327.138.293,0,.534-.069.534-.155s.121-.155.258-.155.258-.069.258-.155.155-.224.344-.275.344-.224.344-.362c0-.138.086-.207.189-.155.103.069.275-.017.413-.189.189-.258.258-.275.499-.086.155.121.275.172.275.121s.241.121.517.413c.293.293.603.482.689.43.103-.052.172.017.172.155,0,.155.155.275.344.275.207,0,.344.121.344.293,0,.275.017.275.275.034.275-.293.189-1.188-.138-1.188-.086,0-.121-.069-.069-.155s-.052-.585-.241-1.119c-.31-.913-.293-1.05.052-.981.086.017.189-.121.241-.31.052-.172.207-.379.362-.413.396-.138,1.291-.689,1.446-.895.275-.379.086-.43-1.498-.43-1.601,0-1.653-.017-1.808-.43-.086-.241-.155-.499-.138-.568s-.103-.43-.275-.809-.327-.861-.327-1.068c-.017-.224-.103-.396-.172-.396-.086,0-.086-.086-.034-.172.052-.103.052-.258,0-.344-.155-.241-.396-.207-.379.034Z"/>
      <path class="cls-1" d="M16.788,101.34c-.052.052-.069.207-.017.327.052.138.103.086.103-.103.017-.189-.034-.293-.086-.224Z"/>
      <path class="cls-1" d="M74.296,102.408c-.052.327-.086.654-.069.706.017.069-.069.172-.172.241-.121.069-.224.327-.224.585-.017.241-.086.448-.155.448-.052,0-.069.155-.017.344.121.448-.379.551-2.411.482-1.291-.034-1.601,0-1.464.155.103.121.293.224.413.224.138,0,.241.069.241.172,0,.086.121.172.258.172s.258.069.258.172c0,.086.138.172.327.172s.362.155.413.362.172.327.258.275c.069-.052.241.052.379.224s.293.293.362.241c.069-.034.034.155-.069.448-.103.275-.258.517-.344.517-.069,0-.086.086-.034.172.069.103.017.293-.086.43-.121.138-.172.258-.121.258s-.052.43-.241.981c-.172.534-.293.999-.241,1.05.034.052.121-.052.189-.207.052-.155.207-.275.344-.275.121,0,.293-.138.396-.31.086-.155.224-.258.275-.241.069.034.327-.121.603-.362.258-.241.534-.396.585-.344s.138-.034.207-.189.293-.275.585-.275.517.121.585.275.155.241.207.189.327.103.585.344c.275.241.534.396.585.362.052-.017.224.121.362.344.155.207.344.344.43.293.069-.052.189.034.241.189.069.155.155.258.189.207.052-.052-.069-.534-.258-1.102-.189-.551-.362-1.05-.379-1.102-.017-.138-.172-.568-.413-1.171-.121-.31-.172-.534-.086-.482.069.052.224-.069.362-.241s.31-.275.379-.224c.086.052.207-.069.258-.275s.224-.362.413-.362.327-.086.327-.172c0-.103.121-.172.258-.172s.258-.086.258-.172c0-.103.103-.172.241-.172.121,0,.31-.103.413-.224.138-.155-.172-.189-1.464-.155-2.032.069-2.531-.034-2.411-.482.052-.189.034-.344-.017-.344-.069,0-.138-.207-.155-.448,0-.258-.103-.517-.224-.585-.103-.069-.189-.155-.155-.189.017-.034-.017-.362-.086-.723-.155-.878-.723-.895-.895-.034Z"/>
      <path class="cls-1" d="M113.57,105.077c-.138,0-.258.034-.258.069s.121.103.258.172c.138.052.258.017.258-.069,0-.103-.121-.172-.258-.172Z"/>
      <path class="cls-1" d="M35.917,105.077c-.138,0-.258.069-.258.172,0,.086.121.121.258.069.138-.069.258-.138.258-.172,0-.034-.121-.069-.258-.069Z"/>
      <path class="cls-1" d="M129.48,110.896c-.086.224-.103.499-.034.585.052.103.034.138-.069.086-.086-.052-.31.327-.465.878-.637,1.997-.534,1.928-2.738,1.946-1.05,0-1.825.052-1.687.103s.413.275.62.499.517.413.672.413c.172,0,.241.086.189.172-.052.103.034.224.207.293.43.155,1.567,1.257,1.309,1.257-.121,0-.172.121-.121.258.069.138.034.258-.052.258s-.172.121-.189.258-.052.379-.069.517-.086.258-.172.258-.121.069-.052.155c.052.086,0,.224-.103.275-.086.069-.138.241-.086.379.069.155.034.189-.103.121-.121-.086-.155-.034-.086.138.052.155,0,.362-.103.465s-.138.224-.086.275c.172.172.637-.121.758-.465.052-.189.138-.293.189-.241.121.121,1.601-.947,1.601-1.154,0-.086.103-.121.241-.069s.293-.017.344-.172c.103-.241.138-.241.362.052.138.172.258.258.258.189,0-.069.207.069.465.31s.534.43.603.43.327.189.585.43.585.396.706.362c.121-.052.224.034.241.207,0,.155.034.207.069.121.034-.103-.189-.947-.499-1.894-.551-1.636-.568-2.152-.086-2.152.086,0,.293-.138.465-.31.568-.534,1.326-1.136,1.326-1.068,0,.052.224-.086.499-.31l.499-.379h-1.98c-1.532,0-2.032-.052-2.204-.258-.103-.138-.155-.327-.086-.43.052-.086.017-.172-.086-.172-.121,0-.172-.121-.103-.258.052-.138.017-.258-.086-.258s-.155-.121-.086-.258c.052-.138.034-.258-.052-.258-.069,0-.138-.121-.155-.258s-.052-.379-.069-.517-.086-.258-.172-.258-.138-.103-.121-.224c.017-.103.017-.327,0-.465-.034-.155-.103-.103-.207.138Z"/>
      <path class="cls-1" d="M107.63,110.586c-.241,0-.224.224.034.482.155.155.138.207-.069.207-.275,0-.723.947-.568,1.205.052.086,0,.172-.103.207s-.207.275-.207.534c-.017.258-.103.465-.172.465s-.121.138-.086.293c.052.275-.172.327-1.98.396l-2.049.086.534.379c.275.224.603.396.706.396s.155.069.086.155c-.052.103.189.31.534.465s.654.396.706.534c.052.121.224.224.396.224.275,0,.293.069.121.603-.103.327-.241.603-.31.603-.086,0-.103.121-.052.258.069.138.017.258-.103.258-.103,0-.155.069-.103.138.052.086-.069.568-.258,1.068-.344.895-.344,1.171,0,.964.103-.069.138-.224.086-.362-.069-.155,0-.207.224-.155.172.052.499-.086.74-.327.241-.224.568-.448.74-.517s.258-.189.207-.293c-.052-.086.052-.172.241-.172.207,0,.362-.086.362-.172,0-.379.74-.069,1.326.551.155.155.344.258.43.207.069-.052.189.034.241.172.052.155.172.275.258.275.155,0,.362.155.93.654.379.344.344.017-.155-1.515-.241-.706-.379-1.343-.344-1.412.052-.069.017-.138-.069-.138-.103,0-.138-.172-.069-.379.069-.275.034-.327-.138-.224-.155.086-.189.069-.103-.069.069-.103.189-.155.275-.103s.396-.138.706-.43c.327-.275.672-.517.792-.517s.224-.086.224-.189.052-.138.121-.103c.086.034.362-.155.654-.43l.517-.482h-2.101c-1.808,0-2.101-.034-2.015-.258.069-.138.017-.258-.103-.258-.103,0-.155-.069-.103-.138.086-.155-.413-1.928-.585-2.101-.052-.052-.086-.189-.103-.31-.017-.103-.034-.327-.052-.465,0-.138-.103-.258-.189-.258Z"/>
      <path class="cls-1" d="M41.857,110.586c-.155,0-.189.103-.241.723-.017.121-.052.258-.103.31-.172.172-.672,1.946-.585,2.101.052.069,0,.138-.103.138-.121,0-.172.121-.103.258.086.224-.207.258-2.015.258h-2.101s.517.482.517.482c.293.275.568.465.637.43.086-.034.138.017.138.103,0,.103.103.189.224.189s.465.241.792.517c.31.293.62.482.706.43s.207,0,.275.103c.086.138.052.155-.103.069-.172-.103-.207-.052-.138.224.069.207.034.379-.069.379-.086,0-.121.069-.069.138.034.069-.103.706-.344,1.412-.499,1.532-.534,1.86-.155,1.515.568-.499.775-.654.93-.654.086,0,.207-.121.258-.275.052-.138.172-.224.241-.172.086.052.275-.052.43-.207.585-.62,1.326-.93,1.326-.551,0,.086.155.172.362.172.189,0,.293.086.241.172-.052.103.034.224.207.293s.499.293.74.517c.241.241.568.379.74.327.224-.052.293,0,.224.155-.052.138-.017.293.086.362.344.207.344-.069-.017-.947-.189-.499-.31-.981-.258-1.068.069-.086.017-.155-.086-.155-.121,0-.172-.121-.103-.258.052-.138.034-.258-.052-.258-.069,0-.207-.275-.31-.603-.172-.534-.155-.603.121-.603.172,0,.344-.103.396-.224.052-.138.362-.379.706-.534s.585-.362.534-.465c-.069-.086-.017-.155.086-.155s.43-.172.706-.396l.534-.379-2.049-.086c-1.808-.069-2.032-.121-1.98-.396.034-.155-.017-.293-.086-.293s-.155-.207-.172-.465c0-.258-.103-.499-.207-.534s-.155-.121-.103-.207c.155-.258-.293-1.205-.568-1.205-.207,0-.224-.052-.069-.207.121-.121.207-.275.207-.344,0-.069-.086-.138-.172-.138Z"/>
      <path class="cls-1" d="M19.836,110.741c-.086.138-.121.344-.069.482.052.121.017.224-.069.224s-.172.121-.189.258-.052.379-.069.517-.086.258-.155.258c-.086,0-.103.121-.052.258.069.138.017.258-.086.258s-.138.121-.086.258c.069.138.017.258-.103.258-.103,0-.138.086-.086.172.069.103.017.293-.086.43-.172.207-.672.258-2.204.258-1.963,0-1.98,0-1.567.327.224.172.448.31.499.31.086-.017.844.585,1.412,1.119.172.172.379.31.465.31.482,0,.465.517-.086,2.152-.31.947-.534,1.791-.499,1.894.034.086.069.034.069-.121.017-.172.121-.258.241-.207.121.034.448-.121.706-.362s.517-.43.585-.43.344-.189.603-.43.465-.379.465-.31.121-.017.258-.189c.224-.293.258-.293.362-.052.052.155.207.224.344.172s.241-.017.241.069c0,.086.344.413.775.723s.775.499.775.448c0-.052.189.121.413.379s.482.43.551.344c.069-.069.052-.207-.052-.31s-.155-.31-.103-.465c.069-.172.034-.224-.086-.138-.138.069-.172.034-.103-.121.052-.138,0-.31-.086-.379-.103-.052-.155-.189-.103-.275.069-.086.034-.155-.052-.155s-.155-.121-.172-.258-.052-.379-.069-.517-.103-.258-.189-.258-.121-.121-.052-.258c.052-.138,0-.258-.121-.258-.258,0,.878-1.102,1.309-1.257.172-.069.258-.189.207-.293-.052-.086.052-.172.241-.172.207,0,.362-.069.362-.155,0-.086.155-.224.344-.275.189-.069.31-.172.258-.258s.052-.189.207-.224c.172-.052-.568-.086-1.618-.103-2.204-.017-2.101.052-2.738-1.946-.155-.534-.362-.947-.43-.913-.069.052-.121-.017-.103-.138,0-.103-.017-.362-.034-.551-.017-.275-.052-.293-.172-.103Z"/>
      <path class="cls-1" d="M121.456,110.759c-.224,0-.224.052-.052.258.224.258.603.189.43-.103-.069-.086-.224-.155-.379-.155Z"/>
      <path class="cls-1" d="M115.55,110.759c-.103,0-.172.069-.172.172,0,.086.069.172.172.172.086,0,.172-.086.172-.172s-.086-.172-.172-.172Z"/>
      <path class="cls-1" d="M85.505,111.103c.052.086.017.189-.086.258s-.138.189-.086.275c.069.086.017.155-.086.155-.121,0-.172.121-.103.258.052.138.034.258-.034.258s-.138.241-.155.551c-.017.293-.138.603-.258.689-.121.069-.155.138-.086.138s.052.155-.052.344c-.172.31-.362.344-2.187.344h-1.997s.448.344.448.344c.241.189.517.344.603.344s.207.121.275.258c.052.138.172.258.275.258s.396.189.654.43.551.43.672.43c.379,0,.344.43-.155,1.877-.275.792-.448,1.481-.413,1.532.052.052.017.189-.103.327-.362.448.017.43.499-.017.258-.241.568-.448.689-.448.103,0,.344-.189.534-.43s.413-.43.517-.43.207-.069.241-.155c.086-.224.826-.413.826-.207,0,.103.155.189.344.189s.344.069.344.172c0,.086.121.172.258.172s.258.121.258.258c0,.138.121.258.275.258.138,0,.499.224.792.517.517.534.826.654.826.344,0-.103-.069-.172-.172-.172-.086,0-.121-.121-.069-.258.069-.138.017-.258-.103-.258-.103,0-.155-.069-.086-.155.052-.086,0-.224-.103-.275-.086-.069-.138-.224-.086-.362s.034-.241-.034-.241-.138-.207-.155-.448c0-.258-.086-.499-.172-.568-.293-.207-.034-1.395.31-1.395.155,0,.362-.138.93-.654.121-.103.31-.207.413-.207.086,0,.258-.138.344-.31.103-.155.189-.241.189-.172,0,.086.138,0,.31-.172.275-.275.207-.293-1.67-.379l-1.98-.086-.465-1.515c-.258-.826-.43-1.498-.379-1.498s0-.121-.121-.258c-.207-.258-.603-.189-.43.086Z"/>
      <path class="cls-1" d="M63.638,110.931c-.155.121-.241.258-.189.293.034.034-.155.74-.396,1.567l-.465,1.498-2.015.052c-1.928.052-1.997.052-1.705.362.155.172.344.275.43.241.069-.034.172.052.224.189.052.155.172.275.258.275.155,0,.362.138.93.637.121.121.31.224.396.224.362,0,.62,1.171.327,1.395-.086.069-.172.31-.172.568-.017.241-.086.448-.155.448s-.086.103-.034.241,0,.293-.086.362c-.103.052-.155.189-.103.275.069.086.017.155-.086.155-.121,0-.172.121-.103.258.052.138.017.258-.069.258-.103,0-.172.069-.172.172,0,.293.258.189.861-.344.31-.293.689-.517.809-.517s.224-.121.224-.258c0-.138.121-.258.258-.258s.258-.086.258-.172c0-.103.155-.172.344-.172s.344-.086.344-.189c0-.207.74-.017.826.207.034.086.138.155.241.155s.327.189.517.43.43.43.534.43c.121,0,.43.207.689.448.482.448.861.465.499.017-.121-.138-.155-.275-.103-.327.034-.052-.138-.74-.413-1.532-.499-1.446-.534-1.877-.155-1.877.121,0,.413-.189.672-.43s.551-.43.654-.43.224-.121.275-.258c.069-.138.189-.258.275-.258s.362-.155.603-.344l.448-.344h-1.997c-1.825,0-2.015-.034-2.187-.344-.103-.189-.121-.344-.052-.344s.034-.069-.086-.138c-.121-.086-.241-.396-.258-.689-.017-.31-.086-.551-.155-.551s-.086-.121-.034-.258c.069-.138.017-.258-.086-.258s-.172-.052-.172-.138c.017-.069,0-.172-.017-.258-.052-.138-.121-.396-.155-.568,0-.069-.138-.017-.275.103Z"/>
      <path class="cls-1" d="M33.937,110.759c-.103,0-.172.069-.172.172,0,.086.069.172.172.172.086,0,.172-.086.172-.172,0-.103-.086-.172-.172-.172Z"/>
      <path class="cls-1" d="M27.911,110.776c-.103.052-.189.138-.189.207.017.207.258.155.327-.069.052-.103-.017-.172-.138-.138Z"/>
      <path class="cls-1" d="M339.212,111.964h-99.176s-99.176,0-99.176,0v6.715s0,6.715,0,6.715h99.176s99.176,0,99.176,0v-6.715s0-6.715,0-6.715Z"/>
      <path class="cls-1" d="M339.212,138.652h-165.293s-165.293,0-165.293,0v6.801s0,6.801,0,6.801h165.293s165.293,0,165.293,0v-6.801s0-6.801,0-6.801Z"/>
      <path class="cls-1" d="M339.212,165.512h-165.293s-165.293,0-165.293,0v6.715s0,6.715,0,6.715h165.293s165.293,0,165.293,0v-6.715s0-6.715,0-6.715Z"/>
      <path class="cls-1" d="M339.212,192.2h-165.293s-165.293,0-165.293,0v6.715s0,6.715,0,6.715h165.293s165.293,0,165.293,0v-6.715s0-6.715,0-6.715Z"/>
    </g>
  </g>
</svg>
