<?xml version="1.0" encoding="UTF-8"?>
<svg id="harford" xmlns="http://www.w3.org/2000/svg" viewBox="0 0 348.713 249.709">
  <defs>
    <style>
      .cls-1 {
        fill: #fff;
        fill-rule: evenodd;
      }
    </style>
  </defs>
  <g id="Harford">
    <path class="cls-1" d="M133.564,132.054l-.035-.015-.505.089-.915.192-.258-.221-.211-1.461.07-.738.681.03-.141-.886.598-.605.329-.989.516-.236-.164-.487-.34-.148.34-.871.082-.074.094-.148.153-.266.07-.089.094-.162v-.089l-.023-.044-.293-.177-.035-.015-.023-.015-.082-.03h-.07l-.07-.015-.035.015h-.012l-.047-.03-.07-.192-.023-.354.012-.059.023-.044.047-.059.012-.044-.012-.089-.047-.089-.223-.148-.106-.059-.317-.192-.047-.03-.047-.015-.164-.074-.176-.207-.012-.133-.012-.03-.012-.03-.059-.044-.082-.015h-.023l-.035.015-.129.148-.047.103-.023.089-.012.044-.047.118-.07.044h-.035l-.176.044-.106.015-.106.044-.153.074-.129.089-.059.118-.059.162-.035.162-.012.162-.023.266-.035.148-.012.074-.023.103v.044l-.023.074-.059.059-.012.015-.094.03-.094.015h-.047l-.153-.044-.141-.044-.176-.133-.153-.118-.047-.015-.516-.089-.117-.044-.07-.03-.023-.015-.082-.03-.035-.015-.047-.03-.059-.059h-.012l-.047-.044-.07-.074-.023-.015-.012-.015-.07-.059-.117-.089-.035-.03-.07-.074-.094-.162-.059-.103-.047-.089-.164-.192-.07-.044-.34-.177-.094-.059-.199-.148-.141-.133-.305-.31-.141-.162-.352-.295-.07-.074-.211-.251-.047-.044-.047-.015h-.012l-.106-.03-.059-.015h-.211l-.199.015-.117.03-.153.059-.481.221-.047.03-.293.236-.106.118-.117.089-.07.059-.047.015h-.047l-.153-.03h-.07l-.458-.133-.082-.059-.117-.148-.27-.192-.094-.059-.094-.044-.047-.015-.235-.044-.082.015-.047.015-.211.162-.164.118-.047.015-.07-.015h-.082l-.094.015-.059.015-.176.118-.199.059-.047-.015-.211-.118-.059-.103-.012-.103-.012-.015v-.074l.023-.251.012-.133.035-.192.059-.192.023-.207-.047-.118-.023-.044-.035-.089-.012-.044-.012-.044-.082-.074-.117-.089-.023-.015h-.023l-.106-.015-.082-.015-.059-.044-.07-.207-.199-.221-.082-.103-.129-.148-.023-.03-.035-.03-.023-.015-.047-.015h-.012l-.094-.015-.129.059-.117.044h-.035l-.106.015-.082-.015-.094-.015-.035-.015-.035-.015-.129-.074-.094-.074-.07-.044-.141-.089-.188-.148-.047-.044-.035-.015-.059-.03h-.023l-.082.074-.035.03h-.035l-.07.015h-.07l-.047-.015-.035-.015h-.023l-.106-.074-.094-.074-.035-.03-.282-.059h-.106l-.012-.015-.106-.103-.035-.03-.059-.118v-.015l-.211-.28-.035-.044h-.012l-.023-.044-.012-.015-.012-.074-.023-.044-.012-.03-.059-.103-.035-.044-.141-.118-.023-.03-.059-.03v-.044l.047-.044.035-.03.012-.015v-.015l-.035-.044-.082-.074-.035-.015-.059-.044-.141-.044-.188-.089-.129-.089-.106-.074-.317-.192-.094-.059-.023-.015-.106-.044-.035-.015-.035-.015h-.035l-.188.074-.106.103-.094.192-.047.266-.035.089-.023.044-.106.236-.047.162-.035.118v.015l-.164.162-.059.044-.059.044-.129.089-.129.059-.117.03-.035-.03-.035-.044-.07-.074-.07-.074-.059-.089-.035-.044-.023-.044-.012-.044v-.059l.023-.103.07-.103.023-.03.141-.325.012-.03.059-.074.012-.03v-.177l-.07-.207-.082-.118-.059-.044-.047-.059-.153-.266-.047-.044-.047-.059-.082-.074-.035-.015-.035-.015-.059-.015-.047-.015h-.153l-.035-.015-.282-.148-.07-.015h-.035l-.035-.015-.035-.015-.047-.044-.07-.044-.012-.015-.117-.044-.129-.03-.082.015h-.047l-.153-.015h-.129l-.094.015-.047.015-.07.059h-.023l-.023.015-.047-.015-.188-.162-.094-.148-.129-.177-.023-.03-.012-.015-.012-.044-.012-.089-.012-.118-.012-.133-.012-.03-.106-.221-.047-.044-.059-.044-.246-.148-.059-.044-.188-.089-.012-.015-.258-.177-.047-.015-.047-.015-.059-.03-.059-.015-.07-.03-.07-.044-.129-.103-.012-.015-.035-.089-.047-.059-.047-.089-.035-.03-.188-.133-.141-.059h-.07l-.023.03-.106.015h-.129l-.106-.044-.082-.074-.117-.015h-.094l-.305-.044-.082-.015-.129-.074-.117-.074-.035-.015-.07-.015-.129-.089-.035-.03-.012-.044-.035-.133v-.162l-.047-.074-.047-.03-.035.015h-.176l-.035-.015-.023-.03-.012-.044-.012-.044.012-.148v-.015l-.012-.103-.023-.089-.082-.044-.129-.03-.153-.015-.012.015-.082.059-.153.192-.023.015h-.059l-.059.015-.035.015-.106.074-.141.207-.059.059-.059.059-.023.059-.07.236-.035.118-.012.089-.012.03-.012.03-.047.044-.129.089-.047.044-.07.059-.082.103-.023.044-.047.03-.047.015h-.047l-.059-.015-.082-.059-.059-.059-.023-.015-.035-.03-.047-.044-.047-.03-.059-.03-.176-.089-.106-.059-.059-.03-.047-.015-.094-.03-.188-.015-.035-.015-.106-.03-.047-.015h-.235l-.211-.044-.141.015-.129-.03-.047-.015-.035-.03h-.023l-.129-.044h-.059l-.035-.03-.012-.015h-.047l-.235.044-.023.015-.329.221-.094.074-.106.059-.07.03-.117.103-.012.015-.059.074-.117.103-.059.015-.082-.015-.129-.059-.059-.015-.059-.03-.329-.162-.094-.03-.047-.015-.27-.074-.082-.03-.012-.015-.012-.015-.059-.103-.023-.133-.047-.118-.023-.03-.047-.133-.082-.369-.047-.089-.023-.044-.059-.118-.023-.074.012-.044-.047-.354-.012-.074-.012-.044-.047-.059-.117-.133-.047-.074v-.059l.012-.03-.023-.044-.023-.03-.012-.044-.023-.074-.047-.089v-.015l-.094-.074h-.035l-.07.015h-.023l-.035.015-.645-.103-.422.295-.317-.177.176-1.52-.763-.266-.305-1.284.07-.723-.469-.236-1.138.103-.082-.325.258-.782-.211-.207-.763-.059-.575-.28-.598-1.195-.27-.738-1.127.044-.704-.398-.129-.9.211-2.332-.047-.502h-.845l-.211-.413.023-.841.258-.487.739-.015.469-.384-.481-.915.188-.443-.223-1.83-.927.162-.634-.251-.317-.989.129-.207-.164-.841-.634-.354-.446-1.063-.364-.369.035-.974-.211-.487.27-.915-.458-.708-1.056-.03-.082-.605.235-.93-.387-.635-.188-.797.059-.458-.516-1.004.082-.339-.387-.886-.164-.974-.81-.266-.986-.546h-.774l-.023-.398-.587-.059-.528-1.889-.293-.384-.681-.133-.434-.28-.235-.605.329-.649-.199-.517-.411-.339-.422-1.018.035-.664-.469-1.564-.035-.635.258-.487-.282-.546-.587-.561.094-1.402-.516-1.048-.246-11.438-.199-3.188-.587-19.422-.094-6.154-.117-3.719-.07-.369-.082-3.468-.293-7.674h127.786l7.944-.015-.258.635-.27,2.494.235.089.293.723-.059,1.254.481,1.432.81.989.962,1.845-.246.649-.375.295-.27.708-1.373-.605-.434.03-.34.384.188.767.434.812-.317.251-.95.192-.939-.207-.622.015-.047,1.402.563.044.505.325-.434.635-.786.103-.915-.074-.552.162-.153.295.223.664.692.531-.07.664-.446.354-.904.192-1.455.074-.329-.133.329-.826.023-.753-.188-.886-.223-.295-.481.089-.821.989-.645.059-.411-.679-1.138.354-.833-.192-.552.28.164.325.176,1.402-.962.649.704.133.939-1.609.235-.531.493.266,1.302-.044.434-.192.833-1.033.575-.162.317,1.077-.012.782-.364.886.598.148,2.077-.251.645-.458.07-.738-.516-.339-.282-.398-.059-.561.399-.221.845.074.939-.074.657-.413.012-.28-.505-.487-.587-.103.129-1.077.622.266,1.655.118.692-.502-.164-1.018-.422-.694.645-.177,1.396,1.063.34.413h.88l.61.325,1.044.753.188.487.493.428,1.69,2.11.575.502.669.339.774.738,1.936,1.535,1.15.561.54.428,1.291,1.328.376.62.587.369.962.886.387.472.798,1.417.188.664.422.251.927,1.077.622,1.092.587.797,1.69,1.742.645.502.129.517-.223.502h.751l.27-.782,1.138.384.716.708,1.936.517.915.148,1.138.959.622.679,2.406,3.232.798,1.919.293,2.288.798,4.118.376,1.21.516,1.284.634,1.048.411.177,1.279,1.254.364.812.493,1.742.329.546.563,1.417,1.807,1.579.598.694,1.338.782,2.769,2.125.622.812.939,1.417.552.398v.649l2.03,3.749.692.826,1.08,1.077.211.59.892.886.411.118,1.115,1.535.387.753,1.455,1.284.692,1.254,1.044.517.763.59,1.502,2.627.657,2.671.505,1.166.575,1.018.669.605.434.723.329.812.012.398.493.886.833.945.399.162.035.649-.446.398.164.649.657.074.012,1.697.129.767-.528.044-.774.782-.763.266-1.549.162-.904.207-.505.708-.575,1.122.176.9-.188,1.24-.751.989-.364.945-.587.915-.411.31-.645.059v.93l-.681.162-.211.458.387.635-.282,1.638-.246.561-1.068,1.609-.305.886-.317.502-.211,1.668-1.361,3.527-.892,1.417-.939,1.018-.681,1.801-.27-1.092-.575-.59-.821.576-.376-.767.61-.945.458-.251.364-.487-.023-.649-.939-.148-.246-.236-.774-.177.293-.546-.258-.753-.552-.103-.27-.694-.587-.782-.563.413-.176.472-.845.753.258.812.739.354-.223.561.704,1.033v.458l-1.044,1.195.411.192.141.413-.399.384-.258.812.094.871.305.487.88.369.997.059.575,1.063.692.694.387.826.657.502,1.514.221.469.517-.563.177.082.398-.258,1.063.481-.266.106-.767.774-.767.153-.546.95-1.254.012-.428-.493-.369.211-.782.587-.074.704.62,1.044,1.771,1.044,1.402.751.635.868.517.786.221.622.369.563.59,1.244-.266.563-.413,1.596-.221.587-.192,1.361-.148.763-.177.598.044-.106.517.505.723,1.103.517.798.03.904-.207.516-.295.739.871.329,1.269.094,1.299.293,1.195.563,1.505,1.443,2.406.669,1.432.188.856.54,1.623.376.797v.428l-.598.487-1.76.531-.763.443-.939.826-1.127.856-.27.502-.575.339-.551.59-.54.03-.88.398-.035.31-.915.605-.61-.074-.376-1.417-.446-.354.223-.531-.059-.546.458-.31.598.517.716-.62-.012-.694,1.021.118.845-1.55.352-.443-.645-.428.047-.605.845-.531.352-.044.411-.413.516.295.164.325.563-.074.493.192.505-.192.059-.325-.681-.074-.352-.251-.411.443-.81-.576-.528.472-1.279.561-.293.354-.728-.546.235-.679-.587-.886.023-1.063-.493-.871-.012-1.387.927-.369.434-.649-.164-.546.352-1.284-.692-.266.059-.694.352-.531.34-1.166-.117-.31-.786-.339.598-.517-.657-.133-.563.059.692,1.24-.458.531-.047.62-.399.472-.106.708.469,1.077-.305.295.411,1.048-.669.472v1.919l.434.753-.481.31-.422.664.07.664.246.428-.446.502-.634,1.181-.915-.398-.458.133-.704.945.376.871.012.502-.399.133-.857-.044-.598.295-.821-.649-.329-.664.728-.782.329-.782.786-.738-.399-.708-.399-.325.082-.826.516-.148.469-.413.035-.723.364-.472.575-1.432-.106-.236.399-.974.34-.398.587-1.314-.763.015-.211-.664.469-.974-.141-.753-1.103-.635-.305.295-.704-.325-.117-.856.422-.059-.176-.531-.927.074-1.209.28-.458.413-1.162.015.411.531.422-.059.176.472.669-.103.458.133.117.517-.657.443.164.886.364.502-.634.93-.258.856-.293.413.411.413.141.679-.81,1.284-.317.738.364.694-.329.517.106.531-.34.28-.376,1.004-.892.207-.035-.679-.235-.472-.469-.074.364-1.446-.986.413.54.458-.223.502.434.369-.164.339-.493.044-.716-.339-.317.62-.786.339.035.546.563-.162.282-.605.622.148.376-.413.798-.103.211.664.974.03,1.338.428.07.266.739-.089-.305.561-.704.458-.235,1.151.176.812-.716.576-.258.708-.915.62-.868.133-1.302-.31-.34-.945-.469.044.61.738.27,1.195.622.236.293.413-.505.546-.458-.458-.821-.266-.387-.502-.645.162.059-.531.505-.635-.199-.236.176-1.122-.446-.03-.587.369.587.635-.34,1.092.035.708.61.812-.563.354-.892.354-.27-.428.774-.236-.059-.487-.481-.221-.223-1.21-.751.162-.164.28.258.472-.446.664-.293-.561-.657.177-.868-.207-.364.133-.411-.502-.505.03.833.826.692-.251.458.487.317-.325.34.458.364.103.552-.635.059-.856.54.089.012.649.223.502-.387.221-.059.561.211.221-.047.576-.493-.31-.88.428-.094.664-.868.605-.223.576.833-.118.117-.738.904.059-.27-.635,1.103-.384.094-.413.598.295.141-.546,1.619-1.092.915.561.317.044.516-.649-.035-.841.223-.502.904-.103-.246.915-.012.561.223.31.622.059.305.354-.364.531-1.361.945-1.96,1.077-1.197.443-1.408,1.136-1.385,1.815-.282,1.077-.481.339-.634.694-.446.162-1.138.767-.751.812-.939.723-1.021,1.24-2.053,1.845-.774.354-.962.162-1.021.502-.458.561-.692.458-.681.059-.059-.31-.81-.207-.199.207-.904-.162-.669.295-.246-.546-.692-.177.035.561-1.279.708-.645.812-.094.472-.552.679-.141.797-1.96,2.494-.774,1.461-.387.207-.54.694-.446.945-.164,1.24-.258.546.07.959-.54.826-.047.487-.399.428-.364-.089.153-.767.082-1.107-.211-.886v-.59l-.704-.945.692-1.284.669-.251.27-.812.317-.089.598-.649.634-.384-.129-.384-.657.458-.516.531-.387.074-1.044.812-.422.723-.399.413-.739.28-.716.871-.352-.162-.669.118-.434.546-.434-.133-.505-.723-.528.118-.704-.694-.598-.059-.751.679-.587.162.023.782-.317.428-.458-.62-.082-.605-.598-.221-.235-.487.199-.959-.587.177-.258,1.048-.692-.015-.223-.354-.728-.103-.329-1.21-.364-.517-.845-.472.364-1.254.751-1.122-1.115.871-.657,1.195-.035.472-.399.413-1.209.354-.352.325-.962.443-.352.561-.939-.546-.352.015-.563-.339.129-.443-.681-.708-.293-.531-.035-.605-.364-.694-.399-.31h-.587l-.199-.236-.235-1.432.293-.797,1.103-1.122.035-.502-.376-.531.645-.517.199-.62.411-.679.117-.649-.094-.546.293-.428.997.428.469-.694.387-.339.575-.177.845.354-.153-.472-.915-.074-.821.443-.516.664-.387-.369-.716-.074-.422.192.141.989-.106.576-.563.9-.974.59-.07.664.188.871-.622.576-.645,1.225.293,1.21-.164.443.376,1.446.622-.103.047.797.223.841.798.354-.34.339.411,1.476-.246.561-.728.428-.317.841.587.074.293.384.07.989.657.369v.561l1.103-.354.211.221.739.162-.704-1.018.927-.62-.117-.561.634-.369.117-.369.634-.28.164-.753.845-.074.387.472.669-.605.645-.797.657,1.535,1.408.62.153.443-.411.236.117.487.54-.162.434.295,1.009.369.293.458.246.959.282-.398.657-.428.634-.62.892-.694.411-.605.317.03.164.605.387.664.986.074.458.266.552-.133.493.339.458-.015-.575,1.077-1.619,2.273-1.056,1.21-.54,1.505-.845.812-.821.62-.657.782-.786.192-1.115.605-1.22.398-1.256.62v.428l-1.361.517-.751.148-.505.458-.927.428-.329.458-.434.118-.587.694-.645,1.328-.798.59-.329.576-.458.148-.645-.561-1.115-.487.915-.635-.329-.221-.974-.015-.211-.398-.927-.826.094-.561-.739-.856-.422-.251-.376-.989-.692-.325-1.22-.133-.88.044-1.314.295.012-.753-.27-.649-.082-.649-.364-.561-.634-.28.035-.812.293-.635.305-.03.669.546,1.138-.044,1.138-1.284-.223-.753-.587-.251-.505.044-.434-.635-.939-.974-.387-.251-.728-.162-.258-.266.563-.62.904-.118.786-.767.458-.826.81-.413.645.236-.164-.635-.293-.325-.505.015-.305-.266.305-1.077-.153-.531-1.772.398.563-.974.411-1.004.716-.93.305-1.254.587-1.505.763-1.402.739-1.623.059-.9-.399-1.151,1.091-.443.692-.723.235-.723.798-1.387.845-.782,1.361-1.122.692-.738.54-1.122.868-1.181.293-1.048-.047-.531.728-.93.293-.812-1.256.694-.293-.015-1.033-.797-.528.015-.376-.605-.692-.546-.587-.649.023-.723-.857-.679-.211-.502-.458-.546-.927-.325.293-.369.645-1.402.246-.251.293-1.564.34-.723.317-.31,1.22-2.893.199-.841-.094-.841-.282-.59-.258-.974.305-.649.821-.561.54.31.681-.044.622-.472.293-.62.141-.93.317-.605.094-.561.528-.221-.293-.531.317-.192.117-.635.575-.59.387-1.284-.106-.59.199-1.048-.54-.354-.657,1.491.246.384.012.546-.645.192-.54.989.305.635-.082.974-.282.148-2.617.044-.657.561-.552.708-1.42-.561-.751.31-.329-.207-.88.148-.821-.044-.575.517-.505.074-.587.753.094.605.376.118,1.314-.28.493.487.012.428-.657.443-.54,1.904.329.945-.904.266-.927.856-.587.856-.505.236-.716-.487-.845.015-.798.398-.95-.03-.81.841-.763,1.018-1.326.192-.786-.339-.739-1.491-1.22-.679-1.232-.015-.422.443-1.326.959-.34-.059-.235.59.258.664-.117.502.246.236-.434.443-.622.221-.469-.089-.598-1.048-.223.162.117,1.018.54.531.07.369.481.458.692-.118-.493.664-.939.295-.598.369.023.59.364.959-.023.561,1.432.177.552-.059.857-.871.305-.812.927-1.269.305.059.598-.384.164-.871-.61-.502.129-.561.493-.251.516.221.481-.162.258.487.739.236.199.31,1.901.782.645-.103.587.266.974-1.446.293.03.458.458,1.103.325.962,1.077.657,1.21.129,1.033.375.487-.915,1.594.082.708-.352.487-.692.384,1.173.28.188.369-.352.59-.645,2.243.422,1.358-.422.649-1.091.59-.117,1.328.035,1.063-.223.339-1.267.708-1.291.325-.563.472-.821.221-.669-.103-.634-.753.094-.428-.587-.118-.082.635-.622.753-.446.089-.469-.561-.997.118-.082-.472.458-.458-.469-.207-.364-.458-.246-.841.235-1.018.645-1.004-.258-.03-.81.945-.728.251.282.472-.035.812.164.339-.352.502.023.59-.915-1.166-1.162-.059-.188.384.516.384.293-.148.458.325.728,1.033.117.886-.974.826,1.303-.177.199.413.54-.118.317-.753h.516l.223,1.136.352.428.681-.103.645.428.411-.103.235.472-.153.561.211.354-.023,1.328.258.62.481.664.059.413.645,1.122-.235.28-.634.162-.657.428-.516-.133-.387.266-.739-.945.035-.561-.657-.089-.305-.428-.81-.428-.035-.398-.692.074-.176-.295-1.138-.118.446.694.598.266.153.428-.739.9.458.118.587-.561.622.162.598.945-.282.708.868.369.446.531.481.162.129.354,1.197-.664-.774,1.004-.387.339-.246.649-1.103.723-.282,1.018-.786.856.352.472.469-.059.352-.59.669.531.446.679v.413l-.434.162-1.162,1.004-.516.841-.235.93-.458-.148-.305-.561-.681-.074-.164.753-.516.605-.904-.649-.376.207-.505.93.786.679-.117.826.716.649.751-.561.868.133,1.443.679.481.502.223.886-1.279.31.223.428.387-.03.376-.354,1.889.221,1.126.428.962.251-.552,1.328-.035,1.077.246,1.786.27.708.446.413,1.056.472.364.472.411.133.845-.03-.199.398-.305,1.314.27,1.505.763.871.106.694-.434.384-1.068.428-.153.369-1.631.826-.645.531.117.325-1.009.221.634.635-.211.753-.493.458-.587.236-.305.517-.81.251-1.737,1.594.047.28-.587.546-.223.723.305.841-.364.236.035,1.004.364.413-.059.767-.223.398-.587.28-.563.605-.176,1.151.27.885.164,1.314-.411.266.117.767-.282.472-.129,1.387-.516-.118-.997.059-.552-.089-1.784-.502-.493-.236-1.584-.28.164-.664.681-.531.387-.708.387-.266.188-.531.493-.723.211-.797.047-.723-.188-.354.176-1.092.364-.458-.023-.472.364-.517-.082-.413-.528.074-.399-.295.153-.576-.88-.797-.106-1.269.282-.162-.164-.502-.575-.9-.681-.871-.962-.708-.27-.856.34-.664-.563-2.14.141-.369.176-1.387.434-1.299.587-1.358.563-.871.117-.93-.575-1.225-.528-.487-1.185-.428-.305.103-1.596-.31-1.901-.679-.153-.546-.575-.398-.88-.148-1.819-.074-1.267-.207-.95-.015.598-.605.845-.044,1.138.148.798.354.27-.044,1.537-.959.54-.458.857-.103.364-.458-.141-1.254,1.303-2.937.481-1.756.352-1.033.505-.251-.481-.517-.305-.664-.728-2.45-.845-1.432-.845-.812-1.197-.959-.821-.458-1.455-.369-.505.487-.293-.162-2.546-.546-.786.664-1.326.472-.739-.546-.986.192-.282-.841-.552-.339-.563-.103-1.056.148-1.021-.797-.774.177-.939-1.417.023-.502-.411-.546-1.115.398-.246-.517-.199-.959-.305-2.332-.317-.295.575-1.107-.235-.531.246-.354-1.983-1.314-.129.207-.845-.546-2.969-.753-.023.428.622-.03.786.443.61-.089,1.044.428.481.59.833.295.211.635.411.192-.282.576.317.369-.411.472-.657-.398-.399-.044-1.361-.738v.9l.681-.28.399.148-.023.487-1.232.384-1.655-.192.07.177,1.572.207,1.302-.384.669.089.681.28.728.708.106.708.528,2.169.868.62-.751.28-.34.576-.211-1.092.211-.502-.352-1.668-.364-1.077-.258-.28-.739-.339-.821-.059-1.08.103-1.232-.133-.587-.148-.904-.826-1.22-.221-.728-.015-.376-.472.352-1.55.094-.9-.223-.59.528-.708.047-1.299-.211-.576-.352-.251-.106-.753-.469-1.402-.54-.679-.317-.074-.258-.487-.798-.487-1.115-.472.141-.561-.023-1.063-.317-.546.364-.649.657-.797.505-1.461-.375-1.033-.598-.531.07-1.432-.199-.576.023-1.063.376-.664-.728-.708-.246-.945-.728-.959-.692-.546-.798-.236-.845-1.107.833-.694.153-.354-.023-1.343-.141-.531-.657.103-.845-.251-.164-.649-.399-.531.117-.561-.153-.826-.622-.871-1.009-.945-1.349-.059-.763-.502-.329-.886-.07-.738-.563-.487-.95-.28-.681,1.107-.469-.339.106-.959-.094-.841-.81-.472-.199-.664-.411-.162-.904.133h-1.232l-.387-.398-.516.531-.61.015-.434-.723-.833-.945-.563-.03-.446-.517.094-.472-.739-1.373-.07-.384-.598-.959ZM203.288,237.917l-.716.295-.293-.207-.645.207-.54.413-.317.502.117.959.563.517-.246.295-.88.339-.293.93-.516.428-.34.561-.422.295-.364-.236.293-1.018.364-.797.258-.236-.188-.9v-.723l.176-.812.282-.635.411-.103.446-.428.035-.664.329-.472-.035-1.579,1.209-.207.645-.251.728-.59.469.679.023.635.329,1.004-.681,1.063-.199.738ZM162.465,176.964l1.138-.118.904.251.481.458.446,2.14-.27.886-.27-1.328-.282-.059-.422.443-.329-.354-.352.148-.023.428-.422.177-.692-.266-.305-1.86-.986-1.063,1.385.118ZM278.845,151.609l.387.576.434.354-.458,1.166-.563-.251-.293.635-.598.398.035.472-.61.28v-1.136l-.563-.236.059-.546-.199-.369.199-.339.352-1.225.434-.472.34-.694-.293-.458.446-.133.446.561-.094.974.54.443ZM197.093,156.435l-.364.458-.141.59-.505.723-.34.93-.622.886-.739.28-1.15-.31-.516-1.122.012-.826,1.185-.443.61.162.317.413.469-.679v-.59l.739-.015.469-.472.575.015ZM251.199,64.637l.598.044.563.339.387.487,1.056.797h.34l.704.546.27.708-.035.487-1.49-.635-.786-.945-.352-.266-1.162-.177-.446-.251.082-.738.27-.398ZM162.958,180.122l.528.221-.34.443.07.664-.892.62-.141-1.756.106-.325.669.133ZM255.388,68.785h.329l.669.561,1.126,1.343-1.232-.487-.751-.576-.141-.841ZM194.429,157.66l-.164-.207.481-.753-.246-.59-.012-.679.892-.782-.258,1.343.364.502-1.056,1.166ZM274.468,106.478l.164.753-.516.915-.739.03.364-.59.012-.708.657-.03.059-.369ZM275.172,152.258l.411.915-.422.266-.81-.325.411-.826.411-.03ZM242.187,45.953l-.399-.118-1.173-.723.399-.413.54.31.634.723v.221ZM254.555,68.711l-.751-.266-1.044-.841-.704-.428.047-.413.552.207.258.472.669.605.974.664ZM276.287,154.295l-.376-.28.153-.841.364-.074.094.841-.235.354ZM273.084,128.556l-.458.074-.211-.517.528-.28.141.723Z"/>
  </g>
</svg>