<?xml version="1.0" encoding="UTF-8"?>
<svg id="howard" xmlns="http://www.w3.org/2000/svg" viewBox="0 0 348.713 249.709">
  <defs>
    <style>
      .cls-1 {
        fill: #fff;
      }
    </style>
  </defs>
  <g id="Howard">
    <path class="cls-1" d="M70.971,10.401l.689-.149,1.969-.074.256-.272,1.339.173,1.398.768.394.272.748.792,1.201-.173h.079l1.142-.248,1.102.891.394.817.394,1.312,1.713-.074.63-.297,4.055.891,1.102.941.276.421.394.545.571.446,2.461-.124,1.457.173,2.677.297.728.074.532-.47.039-1.56.039-.074.551-.619,1.083.124,1.516,1.535,1.063.594,1.496.619,1.536.891,2.579,1.263,1.988.99-.217,1.312,2.185,2.154,1.043-.867.335-.124,1.299.817.256.619.748.198,2.126-.446.787-1.238.177-.891,1.516.916,1.476-.198.335.198,1.201-.495.906-.05,2.244-1.461,1.752.124,2.973.025,1.122.297.984-.421,1.536.025.236-1.04,2.618-2.426.886-.916,1.221-.223.295-.817,1.476-.619,1.89.198.807-.842,1.142-.322.571.916,2.126.099,1.496-.272,1.437.718.65-1.287.827-.594,2.323-.495,1.634,1.461,1.437.693.709,1.609,1.142,1.436,1.969,1.04,1.457-.916,4.725-.223-.295-1.411,1.201-.668,1.299-.099.374-.52.768.743.689,1.486.886.099.689.57,1.181.396,1.398-1.387.709.025,1.496.842.866.149.827.569.906,1.411.827.421.532.891,1.063.594,1.811-.297,1.28,1.263,4.134,1.213,1.201-.025.748-.495,1.988.792.315.867.945.792h.846l.807-.941-.65-1.089v-1.535l1.929-1.089,1.083-.322,1.575-.05.768.347,1.24,1.609,1.043.421,1.043-.47,1.181-.074,1.142-.446,2.914-.792.335.421-.217.966,1.457,1.362.492-.297-.079-1.535,1.358.644,1.083,1.931.039.966,1.732,2.179.984,3.169,1.398.99.807,1.609-.177,1.535-1.693.619-.374.495.413.768,1.319,1.585.295,1.114.63.52,1.713-.198,2.028.619,1.575-.272.984.198,1.85,1.287,2.52,2.798,2.638,3.169.118,3.343.728,1.337,1.043.669.512.693,1.083.47.748-.099,1.004-.594.63-1.312,1.496-.297.689.272,1.063,1.486,1.043.545,1.201.124,2.382-.272.295,1.089-.394,1.659.453.817,1.437.049,1.24-1.461.768-2.204.591-.99,1.319-1.288,1.24-.644.768-.05,1.024.47,1.26,1.956,1.221,2.228,1.378.718,1.122-.396-.177-1.585,1.161-2.204,1.339-.025.512,1.51,1.043.693,1.043.124,2.146-.99,1.319-.173,3.406,1.387h1.339l1.555.693.886.743.551,2.179-.669,1.263.02,1.51-.236.619-.965.149-.827.594-.138.644.315,1.114,1.102.792,1.791-.57.866.198,1.339,1.114.512,1.337.965.891,1.811.47,2.067,1.609,1.575.52.236,1.164-.827.768-.374-.297-1.378.718-1.437,1.065-.709,1.288.138,3.664-.177,2.08.039,1.882-1.161,1.981-.748,1.882-.551.842-.177,2.179-.413,1.337-1.713,1.535-1.28.768-.374.545.079,2.228.295,1.263,3.268,1.634,1.752,1.956,1.378.792,1.575,1.56.65,1.238.748.718,1.437.446h2.106l1.417.446,1.358.966,1.575,1.907,3.622,1.461-.217,1.114-.65,1.089.256,1.387.591.569,1.575-.173.728-.371,1.85-.347,1.24.074,2.52,2.03.453.57,1.398,2.6,1.437.941,1.26,2.006,1.358.916.866.99.669,1.659,1.201,1.288,2.697,1.238,1.988.223,1.595.916.886.817,1.162-.47,2.894.941,1.024,1.51,1.831.718.965.099,1.24.545,2.225,2.773,1.811.495.965-.272,1.457.223.689.371.138,2.773.354,1.461.965,1.213,1.122.421,1.083.817,1.299.198,1.319-.792.748.446-.472.99-2.874-.099-.866,1.411-1.063.545-.551.768.079,1.51-.571.594-1.516.594-.295.916.354.966-.256.669-1.378.371-.709.644-1.043.099.157,2.253.177,1.362-1.417,2.699.512,1.188-1.437,1.04-1.575.495-1.024-.173-.295,1.213-1.024.693-.039,1.238.669.569-.984,1.486.059,1.139-.551.495.354.594-.61.347-2.618-.792-.709.198-.354-.644-.787.52-.709-.05-.256.619-.787.371-.63.743-.906.347-1.654,1.04-2.421.768-.571-.446-1.831.396-.551-.074-.571-.05-1.221-.124-1.595,2.575-1.437,1.906-1.161,1.139-1.752,1.337-2.146,1.213-2.205,1.659-1.673,1.758-2.421,3.392-9.745,14.41-1.339,2.674-.492,1.659-.335,2.08-.098,1.956-.295,2.996-.945,2.748-1.575,2.352-1.28,1.312-1.988,1.436-1.85.842-1.634.421-1.831.223-1.831-.099-3.13-.594-2.087.099-1.417.347-2.067.891.138-.891.925-.421.059-.47-1.358-1.436.807-2.798.059-1.213-.394-.718-.02-1.089.374-1.436-.807-.99-1.634-.322-1.969.322-1.181-.322-1.693-.124-1.949.223-.787.322-1.614-.248-.374-1.04.748-2.204-.453-.421-.512,2.971.728.867,1.221.248,2.579-.545,2.48.248,1.004.272,1.555-.322,1.575.198.886,1.139-.394,1.684.335,1.535.02,1.089-.295,1.288-.354.198-.098,1.188,1.339,1.461-.886.768-.197,1.065-3.996,2.006-1.555,1.288-.787,1.164-.512,1.931v2.006l-.374,1.585-.65,1.188-1.634,1.535-1.26.594-2.717.768-2.165,1.065-1.024.768-.512-.693-.157-1.659-.984-.446-1.28-1.065-2.244-.619-1.083-.891-.984.272-2.067-.941-1.004-.025-.827-.743-1.024.223-2.106-.223-1.28.47-.807-.545-3.858-1.263-.532-.421-.433-1.139-1.201-.248-1.772-2.179.886-.941-.591-.594-.709-2.03.079-.941-.394-.817-.551,1.585-1.752-1.857-.433-.693.827-2.377-.394-.124-.374,1.288-.512.371-1.024-.322-.512-.792v-.669l-1.024-1.238.059-2.402-2.106-1.684-1.555.545-.177-1.411-.472-.718.217-1.139-1.083-.173.512,3.565.295.867-.453.495-1.339-.223.118,1.585-.512.495-.591-.867-1.201-.669.354,1.337-.65.792-.965-1.535-1.595-.693.591,1.634.61.644-1.339.173-.453.718-1.831.99-1.536-.099-.453-.718-1.752-.396-1.949-.049-1.673.47-.374-.644.02-1.114-1.004-.768-.394-.867.236-.817-3.721-2.154-1.122-.05-1.043-1.164-.551-.025-.984-1.708.295-.941-1.161-1.089-1.398,1.362-.669-.248-.335-1.312-1.122.099.098.594.827,1.51-1.26.594-.374-.594-.63,2.327-1.536,1.238-.906.371-.492-.569h-.945l-1.752.594-1.378,2.253-1.358.644-2.008-.867-.63-.693-.689-.173-.807-.916-.512.149-2.165-1.139-.157-.941.669-.05.591-1.956,1.319-1.164,1.457.198.433-1.312-.374-.272-.098-1.263-.374-.495.492-.594.827-.049.787-.842-.413-1.164-1.417-1.287-1.752.495-.354.768-.63-.198-1.201.347-1.024-.248-.689-.817-1.575.47-.039-.669-.965-1.51-.709-.396-1.181-.173-1.24.248-1.595-.223-2.047-.792-1.299.074-.787-2.426.098-1.411.413-1.015,1.595-2.946.098-1.213.492-1.139-.217-.669-1.536-1.238-1.634.421-.492-.619-1.024-.099-.571-.545-.866.05-1.102-1.015-1.772-.272-.925-.495-2.579-.149-1.516.173-.748-.297-1.91.322-1.26-1.51-1.516-1.288-.059-1.188,1.614-1.907,1.024-.718-.689-.966-2.973.817-1.417-.149-.571-1.362.236-.371,1.772.198,2.008-.792.61-.52-.394-.718-.807-.025-.984-.446-1.575-.025-2.185-1.164-.63-.891.492-1.263.059-1.882.827-.52.61-1.981.787-1.51.157-1.486-.118-1.164-.551-1.758-1.949-.792-.512-.644-.295-1.114,1.221-.916.394-1.461.847-1.287.945-.57,2.559-.347,1.378-.025,1.043-.52-.354-.545-3.051-.025-1.043.446-3.229-.074.748-1.733-1.122-2.278-1.024-.718.236-.941,1.122-1.238.138-1.04,1.457-.569-.945-.47.63-1.807-.138-1.783-.472-.05-1.004,1.907-.807,2.501-.689,1.312-.335,1.659-1.772-.396-1.201-.891-.059-2.006.669-1.708-1.181.446-1.85-.891-1.614.272-.669-.495.394-.941-.965-.074-1.083-.569.138-1.089-1.083.149-1.811-.718-.335-.371.453-1.015-.079-.916-1.201,1.585-.63-.545-.276-1.139.177-1.783-1.142-1.733,2.047-.891.354-1.733.689-1.139.236-1.015-.63-.223-.65,1.015-.197,1.51-.925.693-.945,1.188-.906.223-.256-.619.118-1.684-.532-.644-.965-.347-1.24-.966-.571-1.337-1.26-1.51-.965-.223-.984-1.436.079-.867-.532-1.015-1.102-.569-.768-1.263-.197-2.006-.886-.272.039,1.362.335,1.684,1.043,1.535-.394.594-1.496.248-1.122-.198-1.654-.842-1.693.47-1.024-.916-.098-.619-1.122-.52-.413.421-1.063-.718.217-3.343-1.791-2.897-1.673-1.411.157-.99-.532-.569-2.441-1.238v-.916l-1.102-.916-.709.074-1.102-.891h-1.516l-.965-.421-.65-1.312-2.244-1.758-1.398-.421-1.654-.173-1.476-.891-2.185-.718-1.043-.025-1.496-.867-1.339-1.089-2.835-.421-1.732-.569-1.713,1.609-.787-.446-2.382.347-1.28-.669-.728.421-2.244-2.748-2.441.569-4.252-1.56-.413.371-2.559-.124-.433-1.436-1.634-.446-.591-1.461.197-2.179.276-.693-.177-1.015-.827-.842-.787-.297.079-1.015-1.201-.223-.079-1.213-1.24-2.154.276-.47-.197-1.758,1.673-1.51-.63-.743-1.102-.446-.295-.669.315-2.03-2.5-.817-.945-2.129-2.914-3.367-2.028-1.089-1.043-1.387-1.654-.916-1.122-.867-1.516-.569-.866-1.758-.945-.966-1.142.594-.532-.47.039-.891-.591-.693-.138-1.288-.787-.99-1.28.099-1.772-1.907-.65-1.758-.217-1.907-.532-1.807-.925-1.089-.236-.693-2.008-2.03-.787-1.51-1.516-1.461-.374-.817-.551-2.525-.669-.966-.807-2.476-.847-.743-.571-1.065-.197-2.228.984-1.486.217-1.114.728-1.015,1.083-.495,1.24-.916.886-.223,8.229-6.636.748,1.065.748.371,1.496-.025.866.446.354.347,1.221.941,2.736,1.04,1.26.322,1.299.644.945-.149,1.024-1.065,1.516-.52.847-.099,1.378-1.213.768-.99,1.024-1.164.276-.644.768-.371.02-.669,1.024-1.188,1.004-.99h.394l.63-.545-.295-.594,1.595-.47,1.791-1.387,1.772-.495.925-.619.728-.693.138-.05.413-.099.138-.248v-.05l1.791-.099.315-.198,1.555-.718,1.181.223.945-.817.532.173.315.371h.157l.728.05.63.149.728-.619.886-.198.591-.149,1.752.272,1.713-.669,1.89-1.733,1.161-.149,1.457.619,1.988.248.453-.198,1.791.718.453.693,1.004-.297Z"/>
  </g>
</svg>