<?xml version="1.0" encoding="UTF-8"?>
<svg id="wicomico" xmlns="http://www.w3.org/2000/svg" viewBox="0 0 348.713 249.709">
  <defs>
    <style>
      .cls-1 {
        fill: #fff;
        fill-rule: evenodd;
      }
    </style>
  </defs>
  <g id="Wicomico">
    <path class="cls-1" d="M325.464,83.131l.283.713.126.376-.157,1.069.598.653,1.07,1.247.157.475v.436l.488.752.094.238.252.436.063.158.189.653.016.079-.016.396-.126.475-.079.436-.157.792-.032.119.11.376.063.356-.236.475.85.851.394.277.126.515.079.634.582,1.247.047.337.331.931-.016,1.406.394,1.188.236.475.299.752.236.475.756.515.834.554.063.04.22.257.488.713.394.416.11.158.189.198.394.574.425.554.063.079.157.317.11.317.032.139.079.317.283.455.157.119.11.238.094.178.063.119.079.317.11.198.016.158.126.257v.02l.189.475.079.198.031.099.142.238.063.099.11.178.063.158.079.139.047.099.016.257v.099l-.016.139.252.475.283,1.386.472,1.346.079.812-.551,1.287.047.673-.079.337-.126.495-.016.693-.331.673-.378.733-.094,1.01-.094.931-.032.059-.504.238-.74,1.327-.457.574-.189.257-.362.99-.016.238-.819,1.426-.268.772-.472.931-.252.475-.945.772-.409.653.472,1.386.22.119,1.134,1.386.094.673-.236,1.109.63.752.551.614.976.713.315.713.535.495.614-.119.331-.02h.63l.803.713.551.812-.094.554.063.653-.032.416.016.594.205.614.126.198.079.178.205.356.047.079.157.416.299,1.109-.047.396.063.515.268.356.252.297.126.139.346.198.362.238.142.139.157.059.126.04.22.04.409-.02.756.158.661.792.331.931-.22.693-.362.495-.394.673-.362.832-.236.396-.236,1.327-.189.277-.74-.02-.205-.04-.472.059-.157.059-.362.356-.173.317-.047.178-.268.436-.268.04h-.724l-.126.04-.142.04-.22.218-.094.376.236.475.157.218.079.218.047.218-.016.317-.079.257-.063.059-.236.317-.488.931v.416l-.047.119-.142.218.126.614-.331.396-.22.317-.126.297-.079.218-.126.297-.11.257-.11.376-.047.634-.126.277-.724,1.188-1.055,1.109-.85.515-1.322.634-.645-.317-.346-.535-.425-.178-.866.416-.756.416-.378.535-.094.198-1.196,1.406-.283.475-.252.02-1.055.733-.11.99.047.515-.032.911-.63,1.109-1.133.812-.535.099-1.385-.257-.472.297-1.511.99-.22-.139-.504-.376-.346-.277-.346.04-.693.337-.771-.416-.362-.04-.488.99v.277l-.031.317.126.574.032,1.307-.362,1.03-.614.535-.22.495.047,1.01-.252.634-1.307.931.11.436.11.337.142.713-.079.733-.079,1.445.173,1.01-.409,1.505-.488.337-.488.554-.268,1.723-.331.337-.189,1.267.126.614-.346.733-.173.297-.708.04-137.149,8.039-.157-.099-.661-.317-1.716-.416-.929-.574-1.826-.396-.819.337-.756-.238-.771-.693-.708-1.346-1.102-.97-.693-1.544-1.039-.95-1.307.238-1.196-.535-2.96.158-.834-.158-.708-.772-.693-.238-2.125-2.475-1.858.079-1.747-.792-.913-.931-2.172-1.525-.756.158-1.826,1.426-1.307.297-1.905,1.663-.551.218-1.212-.158-2.692.495-.819.238-1.464,1.168-.598.119-.598.752-.142.713.299,1.049.425.356.016.653-.771.238-.677,1.366-.425.139-.409.673-.488,1.366-.441.198-.866,1.148-.11,1.109-.551.495-.85,1.327-.457.436.457.416.205.733-.472.891.457.634,1.039.634-.283.931-2.582,1.465-.85-.119-1.354-.832-1.7-.218-.897.396-1.228.772-.394-.099-.189-.733-1.464-.614-1.48.218-.913.594-.645-.079-.708-1.584-1.259-1.584-.236-.772.189-.812.488-.693-.315-1.01-1.086-.673-1.873.535-.394-.792.661-1.267.22-1.148-.85-.634-.771.04-.803-.713-.724-.218-.173-.535-1.165.04-1.952.871-.834.792-.456.812-2.298-.495-.504-.594.22-.772-.252-.851-.551-.752-.661-.396-.756.139-.488,1.01.236,1.643-.425.178-.992-.218.582-1.01.11-.634-.346-1.03-.488-.416-2.11-.515-.834-.832-.787-.277-.063-1.386.992-2.059.441-1.723.016-1.049.268-1.01-1.354-2.218.409-.277-.331-1.109-1.118.277-.63-1.148.425-.772,1.102-1.049.897-.653.992-.436,1.055-.158,1.322-.931.677-.733.866-.376.882-.931.645-1.386-.047-1.683-.346-.832.22-.752,1.559-.891.409.297,2.535.139,1.275-.455,1.007-.871.394-.752-.425-.535.016-1.406-.441-2.138.252-.455.819-.554.897-.158.378-.594.787-.673,1.165-1.921-.079-1.01.362-1.267,1.102-1.426.897-.475,1.574-.178,1.684.515.74.99.787.475,1.338.297.173-.475,1.023-.535.205-1.247.567-.891.913-.04.771.198.913.653,1.196,1.861,1.055.317,1.165-.218,1.307-.99.787-.356,1.039-.178,1.102.059,2.975,1.148,1.716.574,1.039-.178.504-.297,1.905-.099,1.118.218,1.637,1.049.96.792.331-.594,1.291-.752.535-.891.236-1.129.488-.752,1.511-.337.771.257,1.039,1.802-.582.713-.677-.04-.173.752.173.792.677-.475,1.826-.574,1.511-.02.866-.297,1.921-1.228.598-.099.803,1.188.362-.416.945.535h1.149l1.936-.752,1.165.198.645-.475.126-1.228,1.448-.337.031.554,1.307,1.069,1.196.079.047.673.661-.297,1.385.257,1.149.693.819-.079.771.475.22.535,1.952.911-.11.535.504.931.519-.574,1.023-.376-.834-.554-.677.238-.173-1.683-1.008-.198-1.401-1.069-.834-.178-.63.297-.85-.772-1.842-.099-.378-.693-1.637-1.525.346-.653,1.055.475.409-.515-.551-.752-1.196.495-.268.634-.708-.079.771-1.049.708-.396.661.317.157-.594,2.031-1.01,1.149-.178.63-.356,1.228-1.346-.882-.673.094-.792.96-.594.551-.812.331-.04-.11-1.129,1.606-1.782.142-.931.582-.158.645-.594.866-.178,1.354-.693.598-.574.677-.277,1.07,1.168.771.04.787-.792,1.606-.396.598-.436,1.495.099,2.094.495.787.792.236.871,1.181.079.016-.653-.96-.158-1.196-1.109-1.653-.376-2.109-.099-2.251.812-.645.614-.74-.02-1.118-1.148.708-3.208.724-1.366-.598-.099.047-.772.551-.713,1.071-.317.268-.515-.142-.911-.378-.97,1.228-.97.189-.634.803.059.094-.535.85.079.803-1.247.472-.079.488-.634.047-.594-.992.515-.567.931-.645.455-.582-.04-.96.337.504-1.584.425.059.645-.653-.173-.475.771-1.485-.331-.634-.016-.95.456-1.346.488.079.173-.772-.268-.99.283-.396-.472-.693-.519.871.079.614-.771,1.366.252.554-.331.95.032,1.406-.614.634-.268,1.089-.472.416-.157.752-.535.832.063.713-.409.554-.708.337-.598.832.551.911-.016.733-.866,1.643.032,1.426-.645,2.911-.142,1.168-2.487,1.228.047.277-1.496.317-1.322.931-.142.614-.756.772-.866.554-.724.99.189.376-.283.693-.771.772-.913.139-.425.911.535.614-.598.772-.598.257-.409.554-.409-.515-.708.317-.567.574-1.291.257-.787.871-1.354,1.01-1.905-.931-.315.238,1.684.653.457.634-.693,1.287-.362,1.168-1.086-.733-.425-.99-.315,1.386-.331.455-.598-.356-.488.139-2.283-1.683-.22-.594-.708-.198-.787-.535-.173.396.756.337-.63.653-.378.733-.614.436-.173-.891-.708-.337-.094-.832-.598-.673-.693.238-.394.535.409.455.992-.436-.079,1.426.992-.198.094.911-1.133,1.049-.787-.653-.929-.099-.472-.871-.677-.653-1.81-.139-1.48.158-1.275.931-1.086,1.703-.394.257-.882-.277-1.228-.693-3.117.079-1.118.218.85-.891.22-.931.456-1.01-.299-1.049.205-.693.708.119.693-.97-.346-.158-1.118.653-.488.653.394,1.525-.488.832v.614l-1.008.733-.457.614-2.393-.653-.441-.396-.488.119-.976-.396-1.543-.04-1.622.139-.976.535-.582.554-.834.436-.551-.139-.409-.673-.945-1.069-1.196-.931-2.204-.158-.63.178-.472.614-1.039,2.218-.441-.119-.992-1.188-1.81-.653-2.062-.139-1.417.436-.803.495-1.338,1.544-.299.634-.189,1.525-.882,1.96-.803.634-1.07.356-.913.832.016.594-.394.535-.079,2.198.283,2.574-.378.277-1.936-.356-2.141.139-.756.356-1.086.99-.519,1.109.362,1.505-.094.634-.756,1.544-1.637,1.366-.724.455-2.393.713-.661.317-.394-.891-.504.178.016.812-.394.158-.11-1.208-1.606.178-.976-.733-.771-.059-1.181-1.525-.472.574.409.535.976.198.299.871.897-.158.441.891.582-.455,1.244.119.032.792.708.178-.803,1.406-.63.752-.063,1.366.598,1.505,1.354,2,.268.911-.094,1.683-.913,2.039-.268,1.406-.929,1.03-1.37.297-1.259.733-1.716,1.822-.236.832-.346,3.267-.063,2.257-.834,1.841-.819.851-2.471,2.02-.472-.158-.22-.891.74-.059.425-.634-.488-1.089-1.354-.673-.157-.614.22-.673-.441-1.287v-1.03l-1.621-1.445-.425.02-.582.851-.976-.337-.362-1.03.708-.455.598-.733.693-1.485-.598.04-.488.931-1.606,1.703.22.911.551.614,1.37.317.299-.733,1.055.297.756.931-.031,1.01.519,1.069-.236.535.189.97,1.59.436-.394.317-.157,1.089-.346.851-.645-.059v.634l-.551.495-1.259-.158-1.48.119-.645-.099-1.7.396-.693.376-1.527.317-.866,1.624-.378.178-1.212,3.386-.094,1.148-.803,1.069-1.196.574-1.071-.218.283-1.188-.787-.416-.488.554-.441.02.11-1.703-.472-1.584.897-.257.205-.97-.819.099.315-.832-.268-.752.756-.772-.283-.554-1.259-.495.079-.851-.22-.475-.819-.04-.268-.97.582-.851-.567-.396-.504.554.378,1.01-.173.634.598,1.366.866.495.157,1.109.771.653-1.118.713.378,1.109-.142.713.52.832-.205,1.802.079.792.551.257.724-.911.551.871-.551.277-1.779-.277-1.039-.535-.819-1.287-.771-.832-1.181-.653-.346.138-.645-.554-1.291-.139-1.102.277-1.008-1.208-.268.792.205,1.544-.677.693-1.007.178-.913.535-.677-.119-1.165.416-1.716-.337-.472.317-2.267-.317-.394.515-1.322-.079-.74.376-.756,1.366-.441,1.208-.142.95-.409.495-.094.713-1.008,2-1.527.139-1.291-.455-.378.376-1.464-.436h-.614l-.472.614-.803-.178-1.826,1.624-1.527.871-1.464.535-.488-2.099,1.669.396.409-.396v-.772l.63.079,3.133-1.148-.126-1.445-.74-.634v-.693l.945.119.693-.198.394.495.708-.693-1.228-.218-.519.396-.504-.594-.819.594-.047,1.03.771.455-.268.733-1.338,1.267-.913.317-.63-.079-.567.317.11.871-.661-.139.11-1.01-.268-1.267.441.04.52-.812-.315-1.168-.582-.891-1.102-.95-.803-.059,1.606-1.148.882-1.307.472-.218,1.196,1.148,1.07.198.787-.693.583-1.822.457-.693.126-1.307-.425-.416-.094-.733,1.039.178.756-.277.126.871,1.008.277.079-1.267,1.37.04.331.416.016.931.472.059.803-.911-.394-.515-.63.317-.331-.416-1.149-.297-.882.436-.787-.257-.756.317-.661-.218-1.055.178-.016.634-.787.178.047-1.089-.22-.515-.598-.178-1.133-.95.834-.95.173-.633-.315-.535-.803-.277-.11-.713.472-.277.205-.772-.85-.495.063-.535-.582-.634.708-.337.693-.693.047-.515-.724-.634-.677.238-.047-1.247-.992.178.157-.97-.708-.297.189,1.485.787.04.079.832,1.086.02.472.832-.598.495-.614.099-.346.535.535.356.031.851.897.455-.645.891.315,1.069.834.376-.047.594-.85.673-.945.119.079.475.866-.297.346.812,1.275.931-.142.535.52.792,1.574.535.126.614-.283.554-.677.079-.771.594-.598,1.544-.882-.693-.74-.198-.614.455-.582.99-1.401.713-1.212-.119-.22-1.188,1.181-1.247.677-.02.268-.376-.331-.633-1.795-1.624-.582-.277-.976.812-1.291.614-.142.594-.614.772-.173.812.708.752.126.851-.897,1.406-.173,1.426.882,1.604.346,1.208.819.257-.96,1.505.094.752-.362.554-.866.574-1.165-.277-.645.317-.535-.356.22-1.01.661.119.047-.97.614-.495-.457-.455-.567,1.386-.85.792-.094.614.457.633,1.307-.059-.315.495-1.464.653-.11.97.394.871.157,1.168.708.95-.063.812.394,1.287.693,1.168,1.559.99-.567.238-1.653-.198-1.889.792-.74.653-1.086-.554-2.031-.594-1.37-1.346-1.275-2.198-.519-2.277-1.637-3.604-.079-.851-.441-1.426-.535-.515-.126-.911.268-.911-.535-.673.331-.792-.283-.792-.409-2.633-.315-.713-.819-.851-.346-.713-1.921-1.624-.142-.475-.866-.812-1.779-.832,2.078-.812.976-.594,1.779-1.505.52-.634.079-.594,1.008-.574.677-1.228-.173-.257.582-1.247.708-2.277.677-1.426.85-1.267.11-.733.441-.356.189-1.544-.677-1.544-.677-.752-.677-.079-1.385-1.267-.582-.673,1.7-1.861,1.118-1.505.079-.515.567-.416,1.338-1.683,2.204-3.96.582-.871,1.149-1.069.488-1.247,2.031.693.173-.238-1.795-.693-.142-.594.472-1.168.614-1.03.299-1.01.913-2.237.063-.851,1.118-2.257.645-1.584.079-.574.535-1.03.803.238.756-.376.63,1.287.945.198.976-.495,1.338-.238.378-.356.708.812,1.984.515.708-.059,1.07.396.362.693.929-.059-.425,1.089.551.218.22.574.945.396-.173.317-.976-.119-.346.376.52.713.724-.02.189.554-.142.752.897.337-.394.594.929.317.094.693.724.752.331-.475-.913-.436-.189-.851.11-.891-1.322-.277.582-.911-1.543-.376-.11-.673,1.055.158.268-.337-.976-.614-.22-.614-.614-.257.331-1.01-.787-.079-.582-.673-.63-.198.535-.673,1.81.772,1.968-.257,1.511.178.205.436.803.495,1.417.178,1.023-.673,1.055,1.03,1.055-.535.866.931,1.259.119.945,1.168,1.275.079.582.376.362-.495-.11-.594.756-.97.913-.02,1.196-.673.016-.931.394-.416.882.673.724-.515.283,1.307,1.275-.158.661-.554.551.673.913-.297.551,1.327.252-.178-.834-1.445-.945.119-.582-.535-.535.297-.189.594-1.134-.059-.142-1.228-.598-.218-.394.634-.96-.733-.378.515-.126.99-1.149.673-.819-.139-.787.832-.11.891-.378.158-1.244-.198-.724-.95-.882-.436-.992-.099-.63-.871-.882.554-.409-.139-.472-.713-.551-.099-1.039.693-.394-.416-1.086-.178-.346-.832-2.377-.059-1.606.416-1.7-.832-1.023.614-1.291-.04-1.653-.99.331-1.98-.094-.574-.992-.574-.929-.099.661-1.426-.173-.792.378-.495-.456-.515.519-.851.866-.317.819-1.782.803-.416,2.172-1.782.142-.673.551-.475,1.779-.515.409-.455.882-.238,1.039-.97-.157-.713.394-1.544.504.04.299-1.346v-1.01l.189-.614.598-.574.346-2.336,1.023-.376-.142-.693.756-1.049-1.008-.752-1.118-1.109-.362-1.01-.771-1.624-.63-.218-.283-.475.52-.614.456.416.819-.257.882.95,1.291-.238.252.297-.079.891.63,1.109.913.257,1.118-.337.866-.515-.252-.594.661-1.683.803.673,1.133,1.663,1.307.376.866-.079,1.118-1.109.094,1.782.913.832.945.139,1.621-.574,1.149-.733,2.472-1.049,1.307.04,1.385.277,1.763-.257,1.181-.713,1.936,2.079.913-.198,1.181-.495.598.337-.582,1.346.11.475.787.693.882.297-.031.851-.52.614-.063.535.598.871,1.795.119.252-.257,1.149-.218.693-1.109.74-.218.441,1.188.63.356.819-.495.771-1.129.236-.891,1.055-.277.897-.772.693,1.267.63.713.787.059,1.417,1.01.378-.891.63-.554.551.04-.126-.792-.504-1.267,1.102.436,1.48-.178,1.936,1.604h1.747l.567.535.299.871,1.716.554.346-.198,1.338-.119,1.338-1.267.063-.693.346-.515-.441-.337-.409,1.604-.661.891-1.417-.139-1.086.416-1.181-1.445-.236-.693-.85-.297-.96.475-.598-.812-.157-.693h-.866l-1.023-.277-.882.238-1.102-.436h-1.023l-.094.931.85,1.386-.582.574-.645-.515-1.464-.376-.299-.653-.11-1.307-1.196-.396-.283,1.01-.394.554-1.07-.059-.771.653-.268,1.069-.771,1.069-.819.04-.079-.653-.63-.792-.645.04-1.307,1.564-1.291-.079-.567.158-.598-.238.362-1.465.079-.891-.362-.634-1.401-.297-.252-.297.74-1.148-.378-.99-2.645.396-.409-.139-1.039-1.426-1.102-.238-1.023.634-1.7.119-.96-.238-1.244-.099-1.984.752-2.031.614-.96.693-.724.178-.488-.911.299-1.287-.157-.535-.645-.495-1.464-.218-.724,1.604-.331.317-1.228-.515-.661-1.624-.598-.653-.819-.238-.819.139-.582.436-.331.713-.598,2-.693.099-.252-.416-.047-1.544.567-.356.771-1.01.157-.634-.819-.752-.74.356-.645.851-.708,1.287-.614.238-.456-1.01.126-2.713.315-.158,1.023,1.109,1.212-.158.535-.356,1.086-1.188h.441l.504-.772.771-.713.913-.396,1.023-.792.488-.733,1.196-1.346.094-.832.756-.297.11-1.228.897.436.787.653,1.196-.178,1.448-1.604.394-.297.079,2.039.504.594,1.134.218.645-.099.96-.634,1.291-.614.535-.455.472.04,1.936-1.445.236-.495.756-.713,2.33-1.604.315-.752.819-1.327.252-.931,1.118.733,1.244.376,1.259-.257.819-.455.189-.713.488-.554,1.275-.436.567-.02,1.07-.396.268-1.366.96-.257.331.733.52.238.693-.257.441-.891-.173-.515-.85,1.307-1.134-1.069-.85.317-.456,1.485-1.921.495-1.008.535-.724,1.188-1.999.614-.787-.238-.929-.733-.929.02-.205,1.505-.976,1.564-1.795,1.049-1.039.891-.582.812-.819.178-.771.515-2.33,1.247-.378.416-.96.376-1.181-.356.441-.495-.583-1.802-.63-.257.063-1.247.551-.238-.346-.752-.047-.713-1.023-1.307.047-.713-.236-1.109.189-.931-.708-.812-.409-1.188.047-.812,1.181-.515.693-1.109-.567-.97-.378-.257.551-1.148-.047-.574-.582-.317-.362-.653.535-1.188-.819-.911-.96.356-.346-.396-.992-.079-.173-1.643,1.228.693.598-.297.693-1.485-.456-.535-.897-.198-1.133.436-.724-.733.929-.059,1.936-.653,1.433-.693.992-.752.976-1.168.504-.356.11-.574.645-.495.63-2,1.102-1.624.567-1.564.047-.772-.504-.238-.425-.673-.126-1.03-.456-.515.708-.436.394-.673.079-1.03-.598-.475-1.133-.554-.205.277,1.433.733.094.693-1.936-.713-.756-1.01-1.008-.653-.504.297-1.228-.218-.819.04-.929-.317v-.535l1.7-.139-.11-.337-1.622.218-.63,1.069-.945.495-1.07-.257-.189-.812.126-1.406.394-.891.882-2.851.22-.277.205-1.861,1.684.376,2.109-.257.771-.535.945-.218,1.102-.693.519.099.803-.455.299.178.693-1.109,1.008-.792.409-1.287.882-1.228.126-1.921.488.04-.535,1.505.645.515,1.448-.931.645.356.236,1.03.945.792.535.198,1.385-.376.409.634-1.637.198-.472.475.362.931.456.455.771.238.756-.297.96.02.472.911,1.039.297.252-.653-.268-.614-.708-.416-.299-.673,1.008-.515.394.416.378,1.247,2.047.218-.803,1.208.52.634,1.086-.535,1.889.495.11.495-1.653.634-.378.455.583,1.287.441.396,1.322-.277.205-.594-.52-.752.897-.238h.945l.819.554-1.055.634-.016,1.03,1.133.812.346.752.945.594,1.023-.455.063,1.168.724.416,1.275-.158.551-.792,1.307.416.52-1.544.456-.238.724.594.897-.119.945-.475.315-2.376.504-.198.472.713.645.455.456-.653,1.307-.475.346-.733.819-.911.614-1.564-.74.139-.834,1.188-.063.772-.535,1.049-.834.198-.457.614-.425-.158-.945-.851-.567.693-.032,1.129-.362,1.049-1.133.198-.976-.535-.771.416-.409,1.247-1.291-.356-.724.871-1.322.099-.315-.337v-.891l-.441-.198-1.417.04-.519-1.049-1.039-.594-.031-.99.834-.218.079-.653-.803-.475-1.149.04-.992.436.52.99-1.401.396-.74-1.307.567-.752.771-.139.834-.535-.315-.574-1.448-.574-1.606.535-.189-.792.724-.238-.189-.832h-2.078l-.504-1.564-.866-.178-.661.653.142.772,1.07.693-.22.634-.567-.099-.787-1.109-.708-.158-1.322.356-.535-.455-.315-1.069,1.637.059.394-.475-.409-.713-.582-.317-.85.535-.535-.059-1.055-.812-.142-.95-.787-.594-.661.139-.598.693-.52-.475.52-.772-.016-1.089-.472-.792-1.307-.713-.11-.812-.331-.455-.189-1.03-.52-.436-.22-.792.661-.198-.283-.634-1.039.416-.992-.653-.866-.812-1.558-.139-.142-.238.567-1.366.803-.495,1.259-1.406.236-.535.819-.871-.283,2.198.189.455,1.055.713.52-.059,2.078-1.841.756-.079.378-.594.394-1.386.315-.554,1.747-.198,1.637-.396.504.297.63-.475,1.433-.634,1.779-1.406,1.023-.554.409-.515.771-.455.897-1.03,1.008-.693.882-.911.378-.851,1.102-1.208,1.118-.634,1.653-.238.724-.416.834-.079,1.621-.436.598.04,2.409-.832,1.196-.832.299-.554,1.385-.891.85-.851.74-1.723.803-1.544.63-.317.567-1.129.74-.792-.441-.97.079-.95-.315-.198-.11-1.564.551-1.109.535-2.237.079-.713.425-.218.315-.792,1.039-1.564.614-1.247.441-1.505.693-.851.63-.257,1.433-.059,1.275.119,1.37.396,1.008-.02,1.984-.396.661-.218,1.259-.931,1.622-.772,1.181-1.109.535-1.089,1.181-1.208,2.456-1.247,1.086-1.208.787-.594.268-.673.771-.911.079-.713.567-1.01.457-1.346.016-.792.299-.792,1.102-1.109.803-.376,1.118.337.567,8.87,1.889,30.393,1.889,30.373,17.128.792,8.218.356,14.2.713,11.445.455,28.872.97,8.658.277,2.078.079,11.744.416,19.521.455,31.831.752,12.925.119,29.076.238ZM47.877,104.654l.268-.218,1.905.198.96-.139,1.039.257.362.436.866.238.992-.574,1.181.436-.11.554-.85,1.148-.441-.04-.63-.871-.551.634.032.851-.331.554.567.317.96.119.362.376,1.008-.416.535.376.079.812-.456.614.236.772.708.871-.504,1.168.976,1.129-.472.752-.598.475-.882.238-1.354-1.069-.535.139-.787.673-.645.851-.582.277-.992-1.188-1.055-.515.189-.792-.047-.871-1.086-.198-.079-1.643.74-1.445.819,1.069,1.543.653.787.614.283-1.386-.299-.198-1.07.356-.756-.119-1.244-1.247-.693.356-.394,1.228.016,1.445-.173.634-.771.653-.142.733.283.455,1.669.634-.504,1.069-.016.911,1.574.871.142.515-.268,1.663-.693.95-.551-.257-.346-1.208-.456-.535-3.4-1.624-.567-.594-.032-.99.457-1.366,1.181-1.822.551-2.138.535-1.287.047-1.287.252-.356-.252-.871.22-.277-.094-1.624-.173-.356.394-.911,1.133-.059.032.416ZM51.089,116.83l.724-.139,1.354-1.604.567-.158,1.023.911.52,1.881.787.832-.079,1.208.331.792-.063.97.96,1.247v.574l.488.713-.598.455-.157,1.049-.74.218.157.634-1.259,1.525-.409.317-1.322-1.921-.63-.04-.283-.554-1.984-.752-.819-1.109-.346-.891-.756-.772,1.055-.594.441-.931.126-1.03-.362-1.287-1.307-.554-.126-.356.645-1.485-.22-.574-1.244-.356-.645-.436.693-.911.929-.337.787.158-.488,1.03.094.455,1.118.653,1.039,1.168ZM41.281,132.175l.456.277h3.542l.268.832-.582,1.544-.724.891-1.669-.99-.976.455-.283,1.327.095,1.505-.787.139-.394-.376-.708.02-.252.535-.63-.099-.378-.574-1.071-.614-.834-.653-.945-.356-.173-.733.236-.851.771-.99,2.424-1.129,2.613-.158ZM28.703,216.126l.677.673-1.795,1.584-.063,1.168.724,1.049-1.559,1.049-.519.851-.929.396-.283.554-.551-.119-.268-.772.425-.475.488-1.287.173-1.346-.661-.931-.063-.633.519-1.01,1.732-1.465.504-.594,1.448,1.307ZM65.776,58.342l1.008.257-.74,1.822-.803.158-2.314,1.881-1.134-.752-.126-.396.394-2.297,1.149-.733,1.448.158,1.118-.099ZM43.768,138.927l1.165-2.198.236.554-1.401,1.643ZM30.796,166.904l.11.317-.346,1.049-.394-.554.094-.574.535-.238Z"/>
  </g>
</svg>