<?xml version="1.0" encoding="UTF-8"?>
<svg id="worcester" xmlns="http://www.w3.org/2000/svg" viewBox="0 0 348.713 249.709">
  <defs>
    <style>
      .cls-1 {
        fill: #fff;
        fill-rule: evenodd;
      }
    </style>
  </defs>
  <g id="Worcester">
    <path class="cls-1" d="M64.715,96.236l.115.072,99.878-5.854.516-.029.126-.216.252-.534-.092-.447.138-.923.241-.245.195-1.254.355-.404.355-.245.298-1.096-.126-.735.057-1.053.057-.534-.103-.519-.08-.245-.08-.317.951-.678.183-.461-.034-.735.161-.36.447-.389.264-.75-.023-.952-.092-.418.023-.231v-.202l.355-.721.264.029.562.303.504-.245.252-.029.252.202.367.274.16.101,1.101-.721.344-.216,1.009.187.39-.072.825-.591.459-.807.023-.663-.034-.375.08-.721.768-.534.183-.014.206-.346.871-1.024.069-.144.275-.389.55-.303.631-.303.31.13.252.389.47.231.963-.461.619-.375.768-.807.527-.865.092-.202.034-.461.08-.274.08-.187.092-.216.057-.159.092-.216.161-.231.241-.288-.092-.447.103-.159.034-.087v-.303l.355-.678.172-.231.046-.043.057-.187.011-.231-.034-.159-.057-.159-.115-.159-.172-.346.069-.274.161-.159.103-.029.092-.029h.527l.195-.029.195-.317.034-.13.126-.231.264-.26.115-.043.344-.043.149.029.539.014.138-.202.172-.966.172-.288.264-.606.287-.49.264-.36.16-.505-.241-.678-.481-.577-.55-.115-.298.014-.16-.029-.092-.029-.115-.043-.103-.101-.264-.173-.252-.144-.092-.101-.183-.216-.195-.26-.046-.375.034-.288-.218-.808-.115-.303-.034-.058-.149-.26-.057-.13-.092-.144-.149-.447-.011-.433.023-.303-.046-.476.069-.404-.401-.591-.585-.519h-.459l-.241.014-.447.087-.39-.36-.229-.519-.711-.519-.401-.447-.459-.548.172-.807-.069-.49-.825-1.009-.161-.087-.344-1.009.298-.476.688-.562.183-.346.344-.678.195-.562.596-1.038.011-.173.264-.721.138-.187.333-.418.539-.966.367-.173.023-.043.069-.678.069-.735.275-.534.241-.49.011-.505.092-.36.057-.245-.034-.49.401-.937-.057-.591-.344-.98-.206-1.009-.183-.346.011-.101v-.072l-.011-.187-.034-.072-.057-.101-.046-.115-.08-.13-.046-.072-.103-.173-.023-.072-.057-.144-.138-.346v-.014l-.092-.187-.011-.115-.08-.144-.057-.231-.046-.087-.069-.13-.08-.173-.115-.087-.206-.332-.057-.231-.023-.101-.08-.231-.115-.231-.046-.058-.309-.404-.287-.418-.138-.144-.08-.115-.287-.303-.355-.519-.161-.187-.046-.029-.608-.404-.55-.375-.172-.346-.218-.548-.172-.346-.287-.865.011-1.024-.241-.678-.034-.245-.424-.908-.057-.461-.092-.375-.287-.202-.619-.62.172-.346-.046-.26-.08-.274.023-.087.115-.577.057-.317.092-.346.011-.288-.011-.058-.138-.476-.046-.115-.183-.317-.069-.173-.355-.548v-.317l-.115-.346-.78-.908-.436-.476.115-.779-.092-.274-.206-.519,44.161.418,30.048.014h11.487l.034,1.745-1.146-.418-.39.303.218.447.722.404.218.389.722.159.871.779.573.303-.493.389.401.303.825-.721.195.606-.183.49.172.274.631.101.172.721.619.288.069.519.344.058-.08.98.413.447-.275.433.138.274.653-.101.539-.389.206.288-.527.49-1.284.75-.39-.375-1.376.692-.332-.534-1.295.043.355.447.161.534-.906.375-1.192-.216.608.764h1.399l.183-.274.688-.447.585.087.298-.317.894-.288.527.072.894-.447.848.115.459.476.264-.13.482.26.011.562.837.562-.355.389-.275-.476-1.089-.634-.39.202-.332.952.195.461.768.375-.309.26-.665-.101.344.764.298-.303.39.591.734-.115-.057-.649.436-.245.803.216-.734.418-.608.692-.631.101.172,1.009.653.058.321.562.482.49-.069.433-.929.923.229.317.734-.231.229.433.527.447-.011.923.768-.389-.138.534.252.404.516.058.436-.346.825-.202-.39-.346.149-.548.596.418-.034.519-.378.981.309.822-.252.735.814.231.757.779-.527.332-.436.822-1.066.418-.138-.75-1.284.894-.676-.288-.195-.49.39-.231-.344-.36-.596-.115-.218.851.31.505-.149,1.096.665-.159.401.649.631.144.046.534.757.202.332.288-.183.389.355.288.218-.505.539-.288-.011.707-.481,1.009.275.779-.711.634-.31.735-.653-.014-.367-.562-.963-.014-.653.216-1.456-.029-.803-.505.275-1.226.069-.952-.218-.346-.883-.274.321-.274.103-.519.344.043-.138.606.504.072.057-.461.378-.995-.39-.26.619-.375.264.548.803-.13.057-.923-.264-.101-.161-.764-.436-.779.057-.288-.493-.548-1.124-.144.963.88.332-.087.183.577-.47.043-.034.908-.608.418-.642-.433-.459.072-.504.332-.333-.519-.493-.389-.481.26.103.62.367.231-.264.404-.481-.101-.367-.606.057-.98-.619-.043-.195,1.053-.619-.678.332-.418-.459-.332-.241-.433-1.456-.159-.172-.505.516-.606-.206-.274-.447.231-1.204.346-.08.36-1.284-.332-.275-.577-.527-.245.034-.303-.493-.187-.527.202-1.502-.303-.057-.505-.894.735-.378-.433-.355.144-1.261-.966-.482-.13-.883-.606-.424-.534-.378-.187-1.857-.159-.596-.851-.241-.937-.355,1.817-.665.231-.424-.202.149-.519-.367-.26-.47.62-.355.159-.527-.822-.069-.822-.596.375v.346l-1.353.447-.803-.029-.642.404-.31-.346-.332.072-.596-.735-.241-.043-.378-.692.092-.952-.436-.346.103-.389-.115-.649-.241-.202.08-.548-.344-.346.034-.433-.47-.303.241-.88-.504-.88-.126-.505.218-.822-.092-.807-.195-.36.126-1.197-.573-1.471-.355-.288-.275-.937-1.204-1.125-.516.13.722.707.229-.115.734.591-.034.202.459.764.699,1.673-.115.577-.264.245.378.721.069,1.182-.218.202-.172.779.229.216.046,1.341.676,1.543-.149.346.482.476.115.851.252.36.161,1.038.333.591.252.101.367.937,1.353.649.642-.187.332.894.355-.461.722.014.287.807.482-.014.355.447-.229.389-.653-.447-1.479.216-.711-.216-.699.101-1.204.548-.608-.173h-.688l-.55.231-.653.043-.298.317-.848-.087-.768.288.229.418-.264.519.436,1.125.39-1.081.47.13,1.078-.029.562-.245,1.02.043.516-.591.711.26.39-.346.344.36.413-.202.264.591-.47.433.252.245.573-.461,1.112.375.459-.332-.149-.476.172-.317.562.548-.619.476.401.216.596-.562,1.479-.663.47-.721,1.146-.707.057.634.894-.029.459.317.688-.461.504,1.442.596.173.516.375,1.674.865.837.591.768-.043-.057,1.081.298.144.974-.995.825.577-.516.793h-.573l-.034.62.745-.548.493-.764.344.303-.424.548.596.389-.631.606-.631-.332-.332.303.871.216.378-.13.459-.649-.206-.433.264-.216,1.41,1.355-.413.62h-.355l-.653.562-.676-.735-.344.115,1.135.721.676-.519.573-.274.264.202-.78.995-.699.519-.814.173-.894-.231.241-1.283-2.373-.707.034.173,2.247.678-.298,1.197,1.158.303,1.101-.389.608-.577.275.303-.08.591.378.043-.103-1.182.459.433.447-.534.848.058,1.032.606.401.75.275.101-.229.735-.034.764-.929.375.287.476.619-.202.447.418-.539.663-.631.087-.229-.216-.894-.014.436.447.573.072.47-.26.401.231-.39.562.309.303-.814.735.034.187,1.651-1.601.47.202-.722.663.332.375,1.307.634-.183.389-.413-.058-.504.447-.378.634-.516-.303-.401.678-1.112.476-.757-.764-.355.115.757,1.197-.378.216-.986-.058-.55.13-.401-.173-.241.303-.413-.404-.562.173-.229-.173-1.146-1.5-.608-.591-.722-.087-1.295-1.067-.069.418,1.616,1.298.573.216.963,1.182.344.649-.034.389.321.274.424-.447.367.404.929.058.734.793.367.058.264-.317.527.087.699-.317.631-.115.504-.591.413-.014.355-.36.608.779-.768.461.206.952-.229.433.298.62-.413.807-.883.389-.608.058-.103.606-.734.159.585.577-.894.317-.355.433-.722.519.161.634-.241.288-1.192-.288-1.055.13-.401.505-.997-.014-.092.216-.745.173-1.181-.043-.688.418-.963.043-.837-.274-.115-.288-.55-.187-.608.014-.952-.692-.619.144-.562-.159-.218.447,1.169.26,1.032.562.642.043.803.49.183.562.894-.288.78.288.275-.375.653.101.848-.404.527.447.585-.202.447.115,1.295-1.327.619-.274.55.764,1.101-.332.963.404.676.461-.665.591-.298.548.332.159.172-.577.39-.202.459.62-.069.548.126,1.168.252.36-.642.13-.321.375-.321-.072.046.88,1.467,1.154.115.663-.241.476.034,1.038-.631.26-.149.577.103.49-.608.649v.433l.447.591.011.865-.55.764.367.058.619-.548.183-1.125-.47-.649.642-1.355.803-.49-.355-.274-.378-.764.333-.058.722-.865-.401-.634v-.519l.275-.288,1.101.534,1.032.779-.378-.851-.539-.144-.997-.707.034-.606-.241-.303.023-.505-.332-.404-.034-.476.413-.534-.413-.26.264-.634-.39-.216-.39-.966-.149-.721.161-.505-.424-.115.459-.534-.011-.404.55-.26.413-.908.631-.159-.115.649.504-.216.275-.822,1.066.216.138-.389.562.029.436.375.149.591.39.115.115.75.39.087.47-.288.355.476-.287.764.241.404.103.735.206.202,1.146-.187.447.634-.447.36.229.317,1.043.144.791.216.745-.159.149-.649-.264-.836.149-.36.562.346.47-.288.287.115.757.807.069.591.413.13.367.548-.069.505-.378.692-.057.49.596-.231.516.317-.069.851-.894,1.168-.527.159-.344,1.024-.103.62h-.493l.344,1.009-.057.822.367.202.103.764.619.202-.034,1.038-.47-.101-.252.317-.608.159.516.418.31-.404.55-.26.642,1.168-.298.548-.459.231-.631.014-.206-.548-.482-.346-.688-.187-.997.433v.548l1.399-.072.631-.202.183.433-.367.187-2.958.014.309.288,1.96.014-.287,1.399-.424.346-1.376-.735-.493.087,1.892.793-.47.476-.596.144-.195.375-.676.49-.172.418-.436.346-.39.058-.344.461.034,1.139-.172.216.172.836-.734.36-.562-.087.699,1.687-.436.087-.046.707-.539.231.275.606-.711.505-.126.923-.39.505.034.288-.562.26-.734.562-.653.173-.332.62-.55.26-.825-.317.355.735-.321.13.195.591-.883-.144-.883.49.997.159-.241.418-.401.202-2.545-1.254-.057.101,2.671,1.355-.149.303-2.706-1.37-.046.072,2.694,1.37.138.591-.195.288-.608.159.401.519.011.461-.596.26-.539-.534-.436.476-.355-.072-.229.634-.596.692-.562-.231-.264.418.252.346-.608.505-.619.115.585.534.665.98-.711.49.126.26,1.009.072.092.577.55,1.024-.172.216-.791.231-.631,1.168.034.865-.837.548-.619.692-.264,1.226-1.284.418-.367.591-.138.548-.631.144-.527.764-.493.995-.161,1.629-.103.101.195,1.355-.046.274.264.88-.149.36.539,1.226-.218.562-.585-.13-.734.216-1.215.779-.355.793-.046.649-.218.519-.608.043-.562.476-.55.822.069.649-.413.317-1.032.144-.642.216-.321.404-.172,1.355-.195.807-1.101.101.126-.966.413-.649-.206-.75-.481.836-.55.115-.47-.375-.47.13-.653.534-.275.62-.436.043-.287-.375-1.605.88-.161.548-.321.346-.722.029-.734.98.172.418-.069.606-.39.606.08,1.226-.298.634.481.851-.344.404-.057.764.562.231-.481.606.642.534.103.851-.172.649-.585.346-.149.735-.206.072-.447-.548-.413-.923-.78-.793-.275.058-.78-.433-.676.043-.321-.375.241-.332.241-2.278-.287-.389-.069-1.096.298.029.332-.534.974-.908-.069-.793.241-.836.287-.216.092-.634-.172-.707-.264-.26.367-.793-.275-.461.31-.519.401-.087-.011-.418.401-.087-.034-.447-.573-.101-.459-.562-.206.577.195.36-.688.231.023-.966-.309-.072-.138.577-.47.274.722,1.009-.631-.115.069-.447-.252-.346-1.628,1.254-.011-.764.768-.577.149-.562-1.353.98-.183-.332.676-.49.344.072.676-.851.86-.216.642-.779.057-.375.974-1.139.218-.072.355-.735.413-.317-.046-.49-.814-.274-.562.072-.298-.346.722-.865.218.346-.161.404.321.245.573-.418-.034-1.009-.367.072-.229.433-.562-.332.516-.303.527-.908.516.663.046-.735.676.461.298.505-.149.908.802-.245.057.562-.459.49-.493.216.229.952.527.663.825.144.355-.418.986-.043-.31-.447.149-.245.653-.303-.31-.461.206-.707-.493-.476-.115-.375-.952.043-.309.202-.321-.332-.298-.808.034-.418.332-.519.092-.634.929-1.298.034-.793.642-.087.665.245-.069.707.413.144.539-.159.711.591.871.231.057.418.894-.072.275-.519-.046-.98-.39.202-.092.404-.55-.029-.825-.375-.264-.303.424-.433-.757-.173.046.577-.39.303-.378-.13-.103-.534-.768-.173-.218-.36.699-.692.378.404.608-.288-.573-.288-.527.029-.585.548-.585-1.168,1.307-.606.722.332.86-.476.355-.346-.057-.562-.424-.274-.138-.418.413-.202.527-.88.527-.231.55.389.86.058v.519l-.699.389-.367-.13-.264.606,1.043-.649.424-.101-.264-1.038-.011-.606.321-.707-.929-.822-.493-.822-.011-.476.355-.303.688-.173-.252-.98.562-.303.894.49.218-.26.229-1.154.619-.75.55-.346.516.144.504-.332.31.231.355-.346-.229-.548.229-.245-.39-.807-.39-.274-.046-1.37.183-.634.367-.087-.321-.721,1.926-2.105.126-.562-.115-1.024.229-1.428-.298-.13-.447,1.211-.034.606.138.663-.126.447-.447.216-.585.937-.55.014-.619,1.24.172.36-.447,1.024.218.577.138,1.125.309.346.527,1.038-.894.187-.298-.375-.355-.029-.447.952-.413.461-.436-.029-.195.461.218.433-.413.187-1.009.072-.355-.144-.642.505-.103-.562.631-.981-.069-.404-.86-.087-.321-.187-.619.087-.218-.245-.034-.606-.229-.346-.504-.288.39-.548.493-.159.321-.447-.699-.707.367-.461-.481-.692-.138-.505.711-.231.046-.519-.493-.245.218-.981-.653-.389-.47-.087-.527-.62-.516-.029-.206-.288-.195-.908-.516-.461.092-.505-.103-.735-1.02-.534-.562-.115.08.721.791.62.08.692.493.606-.103.822.493.836.608.274.699.562.837-.274.092.332-.333.418.355.418-.413.793.619,1.081-.321.634.436.418-.631.981-.08.534.722.389v.548l.378.634.711-.26.997.317.046.202-.608.894.298,1.024.825.087v.505l-.527-.072-.332.389-.734.36.08.606-.688.634-.08,1.038-.642-.072-.401-.288-.665.202.447.634.619.375-.08.332-.596,1.024-.126.663-.481.202-.344-.88.069-1.528-.871.202.046-.562h.493l-.115-.634-.55-.202-.241,1.182.241.692-.218.317.046.663,1.101.707.252.317.631-.26.711.274-1.238.634-.55.014-.848.735-.034-.461-1.089.779-.585-.029-.115.707.149.678-.103,1.081-1.273.75-.424-.389.252-.404-.596-.98.722-.634-.115-.49-.413-.288.115-1.067-.55-.36-.539.634.55.764-.699-.159-.493-.562-.573-.072.011-.36.848-.231.103-.779.298-.519-.264-.98-.355-.49-.367-.014-.298.534-.516-.202-.562-.461-.481.087-.619-.332-.539.231-.47-.187-.057-.62.287-.505-.183-.303.241-.375.126-1.154-.023-1.673.229-1.038-.115-.303.149-.649-.344-.49-.034,1.831-.321.851.172.101-.126,1.125.046.807-.264.288-.39-.087-.745-.62-1.433-.346-.573-.793-.161.245.986,1.139.459-.173.585.202,1.169,1.096-.138.923.355.851.55.447.413-.231.195.36.745.202.481-.433.264.476.378.231.436-.375.138-.418.722.851-.092.678-.814.562-.401.591.023.519.722.36.378.404-.596.692.023.49-.608-.072.08,1.312-.206.591-.413-.115-.011.807-.287.202-.642-.144v.418l-.516.461.676.115.264-.447.883-.779.287.317-.516,1.038.527.562-.917.721-.252.072-.711,1.168-.527.043-1.055.433-.722-.303-.206-.62.344-.461-.321-.26-.39.303.218.678.332.173-.195.433-.94.519-.275-.36-1.101.332-.539-.072-.745-.692-.413.303-.206-.591-.596.014-.161.447-.436.115.069-.707-1.364.144-.401-.101.011.764.229.577-.952.793-.264-.49-.653.087-.413-.26-.355-.562-.883-.231-.711-.649-1.009-.26-.482-.418-.986-.346-.424.317.596.303.688-.13.241.418.745-.014.527.144.092.534,1.479.534.653.807,1.066.476.481-.461.596.014.206.447.183,1.009.665-.216.333.375-.046.548-.527.447-.149.548.161.447-.218.375-.229.908-2.064.115-.791.173-.516.317-.676-.375.264-.433-.195-.461.333-.332.676-1.543.608-.49.596.851.459-.375-.447-.274-.023-.908-.459-.317-.608.144.183.634-.596.98-.55,1.254-.596.865-.459.461-.321-.087-.138.634-1.146.779-.803.216-.436-.26-.47.173-.344-.274-.482.101.206-.908-.367-.087-.585-.534-.069-.49-.333-.461-.676-.159-.688-.332.275-.562-1.032-.346-.424.101-.55-.49-1.215-.793-.436.231.814.36,1.433.908.653-.115.298.505-.298.36.31.62-.447.072-.126.404-1.043.274-.516-.606-.527-.288-1.192.36-.608-.534-.55-.029-1.192-1.283-.08.216.459.995.447.101,1.364.923.539-.245.871-.029.791.548.653-.072.424.173.436-.851,1.25.202.401-.36.321.404.034.461.562.519.206.937.676.058-.057.461.47.115.229-.461h.355l.619.851.378.014.539.404.172.49.31.202.138.62.355.663.768.26-.011.245-.653.346-.688.548-.218.591.161.98-.883.216h-.688l-.229-.779.653-.75-.493-.187-.848.75-.046.303.642.13-.344.764.275.043-.332.851-.653.707-.355,1.139.126.923.447.288.252.995-.745.404-.275.461-.952-.043.046-.49h-1.066l-.241.115-.057.721-.539.288-.31-.13-.413.418-1.284-.043-.722.216-.355-.245-.619.014.023-.332-1.055.144.504.317.344-.274.378.606,1.387-.231.883.966.413.606.642.159-.172.332.046.721-1.135-.029.252.606.447-.548.413.375-.699.707.046,1.038.355.995.699.404.883,1.312-.527.404-.55.634-.47.115-1.318,1.226-.355-.332-.459.793.069.764.791-.36.229.663-.115.606.183.649-.539.245-.298.562-.963.678-.424.461-.527.072-.527-.26-.126.346-.711-.173-.126-.534-.424-.101-1.261-1.081-.424-.087-.504-.692-.218.187.31.505.676.519,1.685.807.092.577.768.461.264-.173.47.231.138.851-.011,1.125.344.231.241.562-.046.606.527.476.115.707.229.433-.115.476-.527.447-.608.793-.504-.014-.183-.447.183-.649-.459-.346.378-.577.791-.202.138-.721-.504-.13.011.476-.275.476-.436.029-.298.692.539.663-.378.36-.011.735.172.36-.275.461.252.995-.745.274-1.616-.216.126.389.516-.187.092.606-1.651.346-1.215.346-.665.317-.493.418-.103.404-.734,1.067-.298.707-.562,1.947.057.851-.298,1.543.206.505.138.995-.092.908-1.525,1.125-.596.735-.413.072.172.721-.069.634-.642.851-.676.332-.069.404.195.88.676,1.73,1.582,2.898-.195.649.138.822-.447.26-.413-.26-.034-.606.298-.49-.367-.26-.206.649.229.634-.516-.014-.619.461-.092.534.94.548.482.029.332.692-.55.793-.321,1.269-.734.519.011.404-.413.822-.47-.187-.768.62-.699-.707-.55-.187-.608.144-.252.36-.78.058-.206-.476-.596-.274-.069-.36-.676-.144.161-.461-.161-.548,1.513-.332.631-.058.218-.332,1.089-.548-.275.779.355.26.126-.851-.172-.519.333-.346v-.721l.183-.807-.183-.433-.825-.389.161-.807-1.078.721-.092.433-.894.36-.631.62.401.202.172.764-.161.75-1.043.36-.218.274-1.101.029-.264-.332.378-.735-.539.058.138.461-.149.649.642.26.355.678-.034,1.226-.722-.187-.069.692.55.014-.218.764-.745.274-.103-.389-.447-.317-.676-.966-1.892-1.139.103-.389-.264-.433-1.261-.519-1.72-.519-.883.26.332.303.229.764-.034.966.138.36-.447.375-.791.072-.504.735-.722.303-.791-.058-.046.461.791.98.264-.029.287.62-.527.375-.539-.029-.424-.231-.378.26.126.707.952-.461-.229.519-.023,1.125.138.519-.092.418,1.032,1.557.951.865-.608.245.161.476-.378.231-.596-.36-.069-.375.424-.562-.241-.332-.482.13-.78-.62-.011-.562-1.422.173-.287,1.254-.906.274-.172.216-1.043.029-1.548-.36-.619.058-.665-.26-.332.26.206.923.757.173-.413.404-.057.461.722-.115-.78,1.125-.986-.159-.871.447-.734.519-.229.505v.678l-.298.433.264.231,1.25-.043-.298.649-.057.548-.516.245-.493-.115.011-.577-.355-.303-1.422-.202-.481.476-.401-.043-.103-.519-.504-.591-1.227-.649-.344-.634-1.284-.447-.252-.375-.447.389,1.559.88.378.461.229-.245.894.49.963.88.31.721.298.014.504-.606.757.072.585.216.321.894.493.447-.011.346.436.231.562-.433.722.029.86.173,1.02.375-.447.346.138.764.447.375-.252.49.504.274.367-.144.883.505-.447.692.344.707.161.692-.504.548-1.387,1.932.195.389-.218.418.264.346-.539.894-.527.072-.287.692-.539.49-.711.058-.264-.548-.699.014.218-.49-.47-.346-.161.375.459.634.527-.159.401.707.791.303-1.158,1.99.699.216-.424.404.034.476-.161,1.327-.355.548.539.317-.08.577.78.591,1.192.029.218.62-.298.606-1.937,1.471-.47-.375.287-.461-.378-1.903-.894-.476-.057-.505-.596.087-.39-.447-1.02-.058-.355.173-.034-.836-.47-.13-.195-.317-.665.591-.516-.231-1.811-.245-.149.274.883.404.459.014.504-.288.688.332.378-.375.424.202-.206.649.046.447.55.404-2.109.548-.034.606-.39.072-.401-.26-.516.115-.149.721.241.562-.092.418.172.692-.161,1.182-.676.966.195.952.447.764.31.202.573-.014.057.433.424.793-.332.75-4.104.49-19.157,1.918-5.469.606.069-.49-.481-.735-.906-.678-.619-.634-.126.26.94.851.734.534.298.49-.103.433-7.589.764-29.888,3.143-6.764.678-16.085,1.73.218-.591.86-.822.413.202.894-.447-.057-.634-.55.836-.275.173-.459-.202-.401.332-.745,1.168-9.859,1.053.906-1.485.367-.75.218-1.702.149-.692.149-1.384-.378-.851-.986-.678-.745-.043-1.078.707-.814.101-.413-.923-.608-.894-.046-.548.47-1.312-.161-1.125-.711-1.327-1.066-1.154-.378-.274-1.043-.346-.676.115-.642.418-.539.779-.722.173-.539-.937-.493-1.471-.298-.433-.585-.49-1.513-.721-.929-1.024-.676-.865-.631-1.355-.631-1.961-.378-1.442.378-2.019.195-.606,1.043-1.471.436-.851.527-.519,1.72.231.527.216.115.663-.149.548.321,1.168.585.461,1.146.433,1.892.418.619-.101.504-.317.573-.793.057-.836-.539-1.038.275-.591,2.247-.937h1.811l1.227-.433.745-.562.814-1.053.367-.13.539.332.539-.75-.883-.404v.36l-.459.245.539-1.716.378-.476.367-1.125-.069-.692-.848-1.413-.161-.649.183-1.024.413-.519,1.261-.606,1.307-.288.803-.26,1.043.144.929,1.197.665,1.298.413.375.688.216,1.009.159,1.96.461,1.341.144,1.33-.014,1.02-.13,1.078-.245,1.02-.461.722-.562,1.158-1.154.459-.707.481-1.211.046-.779-.493-1.427-.092-1.485.264-.663.871-.98,1.181-.49.952-.187.848.087.39.245.745.908.631.433.951.216,1.376-.13,1.238-.317,1.445-.62,2.201-1.485.768-.173.734.072,1.628-.288.493-.26.734-.865,1.192-.966,1.089-1.139.699-1.283.401-1.413.401-.678.848-.952,1.238-1.081,1.571-.865.527-.087.952.087,1.215-.418.78-1.11.734-1.831.126-.476.883-.851,1.307-1.471.573-.461,1.548-.836,1.055-.678.745-.144h.906l.929.49.413.058.825-.274.264-1.182.023-1.038.401-.548.539-.346,1.536.707.86-.202.355-.274.39-1.197-.092-2.177.092-.779.252-.663.482-.418,2.19-.433,1.697-.144.78-.303,1.112-1.11.355,1.254.481.072-.103.822.206.649.436-.014.401.346.722-.634.481-.144.436.101.355-.231.069-.461-.149-.735.321-.606.264-1.528-.195-1.341.585-.562.355.591.791.577.871-.029.562-.591.08-.779-.264-1.629.126-.851.722-.807.504.173.092-.548.493-.447,1.96.721.447-.303.665-1.154.47-.36-.057-.288.802-.952-.172-.721.241-.707.619-.389.86.26.344-.101.436-.519.332-.836.367.548.298.029,1.238-.937-.344-.548-.516-.505,1.135-.288.688-.663,1.433-.807.367.144.676-.591.115-.534,1.066-.634.711-.173.493-.75.172-.649-.252-.274.126-.519-.447-.461.023-.274.585-.433-.115-.562.367-.202.355.303.378-.245.757.101.653.288.218-1.24.722.404-.218-.995.814-.534-.585-.663.321-.534.011-.534.229-.49-.825-.13-.367-.49.55-.678.332-.058.298-.577-.229-.634-1.009-.49-.298-.505.722-.649.527.058.447.36.447-.173.218-.519.47-.144.275-.735.31-.072.619-.505.206-1.154-.057-.562.241-.317-.126-.577h-.47l-.172-1.24-.424-.014.103.721.631.966-.287.548.218,1.254-.86.317-.252.389-.115.692-.562.346-1.536.072-.482.389-.424.562.321.418.034.62.47.216.539-.274.149.62-.871.707h-.344l-.31.389.642,1.096.034.389.367.36-.539.202.31,1.139-.195.461-.676-.029-.447.98-.642-.476-.401.317-.676-.144-.963,1.341v.476l-.676.88.367.707.562-.13.011.721-.447.764-.665.058-.459.245-.573.75-.229-.202-.241-.822-1.41.447-.504.49-.264.692.149.735-.275.014-.768-.461-.734.822-.287.072-.138.735-.355.591-.608-.13-.55.173-.206.389.275.865-.378.332-.974.202-.745.98-.378.058.023.981-.757.721-.424.779-.413-.288.103-.389-.631-.332.126-.735-.378-.144-.757.058-.527-.851-.573-.332-.195-.779-.699-.505-.459.332-.046-.678-.573-.317.08-.317-.218-.894-.436-.548-.47.014-.298-.908-.951-.793-.676-.433-.631.202-.424-.923-.459-.288-.619-.087-.161-.923-.401-1.5-.676-.346-.952-.202-.046.288.929.36.688.461-.161.433.585,1.053-.023.476.619.36.699.995.264.144.768-.029.745,1.067.504,1.024.688.418.378.634-.092.519.768.88.906.49-.023.649,1.25.678.011.606.378.288,1.032-.216-.057.534.619.389.126.534-.172.274-.86-.274-1.146.779-.665.087-.55.995-.47.62-.367,2.379-1.181-.548-.906.288-.344.577-.195.663-.069,1.226.092.721-.126.591-.355-.058-1.708-1.312-.791-.187-.86.591-.55.894-.562.577-.986.231-1.135-.072-1.284.288-1.158.461-.344.288-.459.894-.264.952-.023.663.172,1.182-.023.908-.218.404-.447.087-1.273-.418-1.112.058-.55.418-.539,1.009-.115,1.615-.401.173-1.169-.476-.734-.144-.596.043-1.204.375-1.674.952-.997.75-.504.562-1.192,1.053-.86,1.038-.275.707-.321,1.269-.527.923-.367.303-.757.26-1.433.058-1.284.404-.848.62-1.135,1.009-.78.865-.78,1.298-.252,1.298-.367.606-.929,1.11-.963.75-1.399,1.384-.321.216-.837.173-1.628-.029-.86.303-.596-.115.034-.461-.734-.389.39-.634-.092-.779,1.273-.88-.722-.476-1.055.144-.573-.389.459-1.154.883.231.825-1.269-.86-.058-.711-.36.332-.476.08-.692-.149-.606.481-.029.653.274.39-.288.241-.476-.436-.591-.665-.332-.493.058-.378.534-1.25.115-.298-.144-.011-.49.757-.389.138-.591-.321-.505-.504-.274-.631.187-.126-.534.504-.231.011-.634-1.25-.245-.115-2.696-.688-.649-.378-.721-1.043-.937-.665-.303-.183-.692-.699-.447-.459-.13-.092-.36-.55-.231-.596-.461-.378-.678-.803-.461-1.101.649-.298-.173-.493-1.038-1.169-1.283-.275-.663-.252-1.341.023-1.557.642-1.528.057-.894.573-.793,1.146-1.283.929-.865.757-.534.585-.26.516-.606.573-.173.39-.779.55-.707.665-.505,1.124.058.493-.346,1.135-.548.332.043.757-.634-.092-1.096.08-1.038.803-1.701.642-1.154.264-.836-.848-1.269v-1.254l-.126-.476-1.089-1.327.229-.75-.218-.865-1.25-.274-1.009-.966-.252-.62-.573-.332-.264-.634-.115-.88-.447-.606-.103-.808-.963-1.918-.573-.447-.355-.476-.321-.952-1.089-.793-.688-.707-.573-.144-.229.288-.493-.101-.252-.663-.436-.49-.562-1.154.206-1.168-.275-.807-.287-1.355.16-.966-1.101-.418-1.72-.519-1.399-.851-.298-.649-.745-1.067-.493-.519-.252-.75-.16-1.24-.183-.447-1.548-1.903-.516-.764-.974-2.091-1.456-1.788-.952-1.658-.057-.404.481-2.062-.069-.995.08-1.73-.206-.534-.894-1.053-1.135-1.918-.195-.447-.011-.764.183-1.572-.046-.908-.642-1.615-.39-.375-.069-.721ZM273.7,72.718l.562.433.516.101.447.346-.47.692-.86,1.038-.699,1.081-.78,1.428-1.33,1.874-.585,1.327-.527,1.644-.321,1.269-.149.13-.413,1.226-.424.894-.241.952-.665,1.701-.206,1.067-.585,1.629-.47,1.831-.287.476-.585,2.148-.482,1.096-.424,1.831-.906,2.538-.298.562-.149.634-1.135,3.288-.344,1.327-.252.562-.722,2.322-.401.649-.929,2.552-.562,1.154-.31.865-.653,2.35-.459,1.053-.711,1.975-.745,1.759-.527,1.528-1.433,3.763-.344,1.168-.424,1.067-1.559,4.427-.711,2.249-.527,1.168-.39,1.471-1.318,3.677-.952,3.259-1.765,5.869-.482,1.817-.951,3.288-.436,1.254-.952,3.691-.367,1.557-.436,1.341-.596,2.754-.653,2.278-.057.692-.401.807-.034.62-.264.476-.619,1.615-.252,1.009-.929,2.624-.504,1.283-.264.937-1.055,2.639-1.731,3.951-.378,1.11-.436.807-.963,2.221-.206.606-1.078,2.033-.848,1.889-1.41,2.61-.287.663-.94,1.456-.631,1.24-1.273,2.249-1.456,2.682-1.731,2.956-.929,1.716-1.662,2.495-2.66,4.672-1.72,2.696-1.135,2.076-.699,1.168-1.513.173-1.8.043.344-.461.539-.043.241-.49-.481-.087-.436-.793-.711-.288.596-1.182.287.303.355-.115.94.216.608-.072.39.447.401-.764-.94-.707.883-1.139-.39-.36.264-.606.39.303.562-.173-.424-.375.092-1.168.516-.187.447.058.378-.519-.871-.087-.321-.447.573-.389.424-.101.103-.49.436-.851-.734.245-.321-.836-.653-.62.08-.634-.218-.26.161-.807.344-.577h.493l-.424-.663-.94-.13-1.089.231.195-1.125-.183-.404v-1.283l.734-.735.699.404.676-.245.378-.36.848-.404,1.146.288.206.692-.436.433.321.663.585.577.86.649.161-.476-.149-.461-.917-.75-.126-.764.55.014.264.404.47.26.195-.678h.55l.092-1.168.504.101.47-.231.126.447.608.476.195-.894-.631-.36-.011-.433-.894.144-.676-.591.55-.173.814-.735h.287l.344.534.252-.303-.367-.49-.688-.548.378-.389.034-.447-.527-.577-.138-.36.585-.13.653.461-.126.692.241.851.539-.779.665.98.539-.173-.894-.678.057-.418.78.562-.103-.88.757.202.653.332.39-.202-1.123-.476-1.399-.836.447-.26,1.112.187.699-.087-.138-.88.218-.274.092-1.154.814-.606.115-.606-.298-.231-1.227-.447-.333-.389-.539-.216-.631-.548-.539-.75-.161-.433-.665-.26-.516-.029-.275-.404.195-.418.126-.908.55.173.516.562,1.456-.505.952.014.802-.332.275-.303.08-.836-.149-1.081.825-.49.069.606-.344.087-.195.476.298.159.573-.923.516.101-.676-1.139-.401-.115-.378.49-.218-.764.631-.144-.011-.606.573-.62.424.288.069.375,1.376.519.734.591.195-.346-1.123-.822-.929-.173-.642-.534.78-.043-.424-1.024.413-.606,1.101.476.676.519.631.707.355-.75-.539-.144-.768-.793.126-.62.516-.36,1.112-.36.504-.461-.436-.26.504-.346-.138-.62-.011-.966h1.697l.011-1.081.722-.663-.183-.461.631-.562-.619-.36.837-.649-.413-.303-.997.13-.092-.433.722-.058-.092-.303-.745.087-.046-.62.757-.447.837.404.344-.346-1.192-.519.218-.591.745.548.206-.548-.252-.591.55-.26.665-.072,1.055-.505-.332-.288-.413.418-.791.187-.963-.173.493-.461-.252-.49.023-.433.31-.88-.516-.115.161-.418.608-.245.631-.029,1.215.303.161-.591,1.032-1.399-.814-.461-.676.159-.08-.36-.722.087-.631-.36.229-.548-.321-.187-.757-.087.069-.476.355-.404.894-.014,1.376.26.745-.678.023-.952.734-1.889-.608-.202-1.284-.836.734-.173.504.202.252-.404-.092-.404-.539.36h-.745l-.493-.202.057-1.125.413-1.125-.378-.303-.78-.274-.011-.49-.653-.505.39-.433.722-.014,1.032.13.665-.634-.929.115-.825-.735.378-.433-.585-.75.562-.245.894-.144.596.13.711-.678-.344-.966.516-.49.596-1.658.046-.476.653-.649.734.822.172-.231-.562-.649-.562-.389.355-.375.069-.519.481-.332-.298-.375.08-.461.997-.13.287.707-.206,1.125.287-.101.264-.923.573-.505,1.192.332-.161-.418-.894-.043.413-.663-.699-.404.046-.418-1.708.144-.436-.418.149-.26.917.159.504.26.355-.274.103-.822.344.087.057.634.653-.058.768-.231.275-1.384.493-.476.424-.764v-.707l.436-.591.161-.49-.562-.375-.539-.13-.069-.807-1.215-.663.653-.187.527.029.803.303.825.678.401-.173-.711-1.182-.161-1.154.413-.101.516-.389.757.216.195-.735-.47-.649-1.089-.433-.126-.49-.413-.332-.94-.317-.768-.476.08-.663.963-.115.642.389.539-.072-.057-.548.401-.115-.138-.908,1.72.202.596-.346.504.274.046-.562-.745-.187.092-.88.367-.418.848-.577-.287-.447.218-.937.424-.014.367.461-.092-1.774.791-.937.39.332.47-.202.504.144-.057-.649-.665.173-.436-.519.08-.389,1.479-.087-.424-.418-.355.115-.997-.144-.08-.49.516-.317.161-.505-.149-.779.699-.88-.16-.735.149-.346.55-.13.298-.346.069-.75.608-.043-.011-.663-.47-.606-1.261-1.197.115-.375,1.25,1.024.975-.029.298.519.378-.288-.206-.591,1.089-.375.023-.634.493-.447.803-.072.034-.692-.974-.418.676-.663.676-.101-.195-.346.229-.433.631-.548.986-.433.126-.692-.126-.634.023-1.067.39.159.275-.562-.619-.303.241-.375-.069-.678.436-.375-.264-.663.252-1.875.424-.461.745-.072-.653-.519.011-.332.929-1.024.138-.404.447-.245-.023-.634.206-.793.264-.245-.47-.649.734-.663.436-1.139-.08-.606.722.072.333-1.442-.287-.519.298-1.226-.069-.389.401-.303.321-.534.252-.836.057-.707.527-.865-.493-.029-.103-.62.653-.418-.069-.447.745-.332.138-.663-.023-1.312-.39-.332.103-.418.688-1.081.459-.505-.355-.216.183-.822.837-.822.734-.245.31-.26.367-.663-.046-.375.264-.447-.631-.461-.011-.779,1.261-.779.86-.245-.172-.75,1.055-1.86.516-.36.264.418ZM292.754,9.231l-.011,1.024-.161,2.091-.195.894-.138,1.298-.195.721-.172,1.485-.298,1.774-.069,1.701-.195.735-.206,2.019-.161.577-.161,1.528-.562,3.115-.149,1.572-.298.98-.252,1.197-.699,2.422-.138.937-.264.865-.424,2.538-.206.649-.699,3.158-.493,1.312-.344,1.701-.413,1.197-.069.461-.539,2.148-.378,2.004-.47,2.004-.837,2.956-.493,1.384-.413,1.399-1.089,3.244-.585,1.399-1.032,3.23-.39,1.096-.573,1.961-.504,2.278-.424.735-1.043-.375-.871-.534-.333-.779.401-1.226.183-.966-.092-.375.481-.98.86-2.004.699-1.211.183-.865.206-.231.275-.851-.47-.202.069.88-.447-.014-.355-.764.321-.678.527-.159-.459-.447.31-.534.115-.865.516-.447.344.274.195,1.009.55-1.543h.653l-.516-.663.401-1.615-2.201-.692-.241-.288-.206-1.572.206-.187,1.169.072.906.332.355-.072-2.74-.88.034-.649,3.818,1.197.539-.822-.183-.187.31-1.601-.333-.072.195-.908.367-.649.504-.13.126-.735.298-.534-.161-1.211.161-.519-.333-.303.31-.822.653-.562-.676-.606.481-.202.459-1.038-.596-.144.321-.649-.848-.231-.264-.332-.665-.13.034-.317.447-.303.631-.087.138-.634-.688-.173.424-.577-.034-1.471.493-.461.997.173.115-.707.711-.101.55.274.115-.663-.986-.274-.665-.505,1.055-.317-.172-.26-.619.058-.057-.476.585-.13v-1.125l.631-.014.034-.332.47-.995.516.332.436-.332-.757-.245-.527-.663-.161-.865-.459.202-.172.433-1.33-.317-.103-.389-.573-.591,1.731.404.023-.115-1.823-.418.034-.923,1.284.288,2.545.346.011-.087-2.74-.404.149-.548.585-.562,1.353-.274.481-.303-.825-.389-.332-.36.321-.303-1.456-.216.355-.332.069-.995,1.158.159,1.055-.303.046-.447-.206-.606-.585-.173-1.353-.187.057-.793-.516-.707-.034-.505.47-.029,1.513.707.459-.534-.287-.317-.745-.26-.539.303-.871-.029.057-.865,4.987.577.011-.13-1.995-.231.103-.88,1.25.144.023-.159-1.204-.159-.378,1.024-1.215-.13-.47-.288.011-.36.562-.303.172-.346.653-.087.103-.649-.241-.245-.367-1.226-1.754-.231-.126-.476-.734-.952.115-1.442.482-.75.871-.606,1.066.836-.057.735-.447.26-.08.534.562-.202.206.231-.332.505.768-.029.688,1.053.092-.505-.665-1.038.562.13.183-1.298-.688.678-.229-.173.39-.548-1.777-1.298.149-.865.848.288.023-.346-.848-.144.023-.505-.516-.779.069-.303.608-.937h6.237l.011.75ZM276.279,8.798l-.665.649-.08.418.848,1.24-.252.216-.573-.404-.562.101-.883-.115-.31-.88-1.043.634.573.274.447-.317.229.404.516.288.298.678-.401-.014-.413-.519-.378.274-.963.202.504.678.837-.101.504.649-.986-.346-.447.014-.436.49-.08.577-.39.26.298.75-.172.317-.665-.418-.172-.678-.39.534.023.418.333.159.252.75-1.135-.101-.539-.36-.16-.433.493-.26-.023-.317-.55-.043-.264,1.009-.516.433-.149-.865.046-.735-.699-.087-.298.274.619.389-.16.433-.757-.274-.046-.98.252-.043.55-1.37-.711-.13v.937l-.436.36-.195,1.211-.481-.534-.493-.101-.195-.707,1.02-.26-.355-.447-.309.332-.562.144.046-.519-.642-.159-.527-.735-.47-.159-.344-.836-.894-.058-.401-.216-.482.534-.252-.433,1.078-1.73-.138-.043-1.089,1.701-.986-.447-.011-1.341.493-.505,15.385-.014-.115.303ZM182.111,209.383l.195.649-.378.562-.321.159-.378.663-.871.418-.229.836-.287-.159-.034-.562-.504.072-.126.634-.504.534-.803.101-.126.606.653,2.264-.264.389.252.663.504.274-.161,1.125-1.238.058-.355-.937-.252-.159-.046-.562-.264-.779-.527.418-.653.058.493.519-1.25.101-.676-.317-.287-.418-.355.317-.103.735-.424.043-.871,1.053-.08.591-.791.591-.848-.346-.206-.577-1.227.288-.39-.216.367-.952.023-.75.229-.245.665.606.413-.144.39-.606.539-.173.344-.663,1.295-.735.47-.072-.069-.49.447-.245v-.577l-.516-.663-.023-.634.493-1.168.424-.663-.321-.159-.516.288-.539-.534.711-.447.963.75.825.317.401-.115.413.908.768.505,1.169-.029.711-.288.699-.433.482-.649.057-.534-.183-.36.711-.937.631-.447-.138-.461.631-.476.653.202.115,1.384ZM212.273,203.211l1.089.202.631.216-.206.908.229.591-.298.433-1.227.404.275.332-.367.966.241,1.096-.275.779-.011.49-.585-.058-.516.231-.287.36-.802.562-.424.519-.573-.058-.975.216-.298-.36.355-1.37.344.187.321.634.447.13.321-1.168.676.087,1.112-.231.355-.476-.378-.707-.619.144-1.181-.231.183-.288-.424-1.139.126-.606-.149-.303.252-.822.287.346-.298.692.321.707.573.519h.791l.275-.159-.206-.505-.493-.029-.183-.461-.585.476-.149-.534.298-.461.149-1.154.814.649.768-.822.275-.937ZM214.612,213.377l.126.981-.768.735-.229.548-.401.288-.332.62-.745.505-.287.764.069.476-.183.49.011.894-.321,1.067-1.192,2.437-.161.087-.86,1.37-2.087.245.447-.534,1.135-.908.401-.793-.344-.779,1.009-.13.034-.389.344-.26.31-1.254.046-.663.206-.303-.057-.548.31-.75.436-.346.149-.779.413-.577.447-.303-.413-.461-.47.274.264.519-.39.231-.298-.562.481-.779.871-.894,1.937-.851.092.332ZM177.743,197.112l.665.173.447.88.401,1.413-.149.519.218.707.608.822-1.88-.663-1.674-.519-.08-.433-.355-.404-.459-.159-.504.058-.906-.36.585-1.139.47-.332-.39-.288.034-.49.516.159.287-.317.642.418.539-.519.642.101.344.375ZM237.071,160.286l-.126.447.676.173.459.346.906.317-.264,1.067-.252.058-.241,1.053.057.591-.206.317-.596.13-.138-.303-.929-.072-.309-.793-.447-.476.046-.779,1.009-1.154-.31-.735.333-.389.332.202ZM195.421,197.645l-.149.908.115.404-.608.88-.608.375-.562-.317-.046-.317.539-.274.057-.606-.436-.476-.39-.087-.871.591-.241.505-.825.159-.264.303-.86.375-.195.562-.481.029-.539.663-.195-.692.527-.26.138-.735.562.014.459-.36-.332-.375-.218-.634,1.135-.159.355-.36.378.288.493-.014.585-.303.585.087,1.273-.26.619.087ZM238.55,146.818l.344.678-.447.807-.023.404.562,1.73-.115.303-.619.476-.333-.087-1.158.418-.711-.072-.619-.476-.103-.894.401-.88.31-.13,1.33.26.31.159-.069.548.516.476.367-.433-.378-1.572-.837-.692.871-.981.401-.043ZM222.546,111.909l.298.851.699-.058.332.26.218.505-.321.274-.103.591-1.043-.043-.378-.115-.539.591-.562.115-.527.375-.195-.534v-.692l-.275-.433.493-.202.436-.404-.057-.274-.55-.087-.046.75-.401-.029.103-.562-.241-.721.344-.101.608.36.447-.202.183.418.562-.144-.069-.332.585-.159ZM220.161,202.663l-.516.548-.619-.13-.218.865.401.101.459-.404-.206,1.125-.252.62-.78-.115-.16-.49-.424-.332-1.628-.836-.573-.606.78-.159.906.375,1.009.26-.092-.447.883-.36.126-.461.734-.577.287.245-.115.779ZM235.283,166.918l.825.144.401.317.596.014.573-.216.906.288-.55.62-1.101,1.038-.516-.274-1.456.029-.138-.202.986-.75-.848.087-.092-.577h.745l-.332-.519ZM212.09,213.636l-.378.375-.344-.043-.333.779-.665.216-.631-.202-.539.548-.516.187-.481-.433-.115-1.009.206-.317.951-.043.894.173.631-.173,1.318-.058ZM206.301,209.339l.665.836.619.274-.504.692-.115,1.024-1.181-.534-.482-.721-.034-.908-.195-.375,1.066-.389.161.101ZM275.179,15.604l.482-.014.699.274.55-.274.332.36.401-.807.653.346-.734.808-1.123.332-.585.807-.31-.721-.871-.144v-.519l-.539.058.103-.779.608-.332.332.606ZM184.14,191.762l.034.764.55.375.745.793-.974.072-.447.649-.665-1.355.229-.505-.413-.216-.447.317-.711-.144.115-.793.676.13.906-.26.401.173ZM213.592,200.803l.493.735-.046.606-.676.159-.642-.014-.034-.779-.573-.404-.631-.216v-.346l.871-.534.596-.014.642.807ZM241.233,98.586l.608.231.241-.317,1.158.591-.126.937-.436.36-.757-.159-1.02.721-.722-.36.378-.375.642.144.275-.173.092-.591-.332-1.009ZM286.104,8.481l-.676,1.312.092.764-.699.764-1.146-.707.929-.663.103-.807-.413-.663h1.811ZM206.186,223.283l.183.375-.046.836-.86.144-.436-.288-.344.663-.631-.058-.871.389-.894-.375.562-.231.78.202.653-.562.344-.505,1.353-.908.206.317ZM265.239,50.96l-.172.62.39.62.069.548-.183.764-.264.101-.963-.332-.722-.014.516-.519.298-.793-.481-.231.161-.519.653.058.092.36-.39.216.585.461.034-.88.378-.461ZM217.398,205.331l-1.846.735-.264-1.572.034-.317.825-.159.814.634.436.678ZM185.481,194.646l.768.187.573.433,1.055.404.688.433-.057.418-.848-.029-1.25-.995-.596.519-.424-.577-.401-.159.115-.764.378.13ZM185.974,189.066l.516.88-.31.202-.413.692-1.146-.534-.367-.317.298-.577.906-.634.516.288ZM232.187,105.925l.161.548.447.101.642-.317.138.418-.722.461-.298.389-.711.433.092.26-.493.534-.057-1.125.699-.332-.39-.764.023-.519.47-.087ZM242.54,134.057l-.011.663-1.032.274-.802.433-.401.577-.47-.807.149-.317,1.594-.779.975-.043ZM212.216,210.075l.413.187-.126.389-.791-.245-.929.49-.046.707-.447-.072-.894.332-.298-.534.665.101.355-.202,1.376-1.456.722.303ZM277.884,17.925l.149.332-.447.433.069.88-.424.908-.653.115-.195-.288.103-.591.321.072.699-.36-.195-1.009-.585.058-.046-.346.413-.187.791-.014ZM237.495,105.911l-.034.923-.642-.288-.619.36-.252,1.038.355-.058.264.649-.218.433-.814.029-.31-.75.332-.577.31-1.312.665.115.768-.101.195-.461ZM188.68,197.919l.367.144-.16.591-.642.26-.344-.159-.665.245-.504.014.046-.562.619-.404.814-.346.47.216ZM273.814,14.897l-.527.144.034.577.596.519.493.216-.504.721-.413-.202.252-.562-.378-.577-.825-.476.023-.303,1.25-.058ZM252.502,118.138l.275.851-.585.88-.424.389h-.39l.069-.865.699-1.298.355.043ZM245.887,134.259l-.115.548.16.606-.287.303-.401-.087-.883-.75.138-.476.39-.115.997-.029ZM216.194,202.202l.447.534-.871.072-.47-.303-.481-.562-.034-.447.47-.216.94.923ZM213.007,212.512l.516.231-.619.562-.608.216-.229-.577.39-.49.55.058ZM211.07,215.943l.138.591-.848-.014-.608.764-.298-.231.264-.606.608-.663.562-.144.183.303ZM259.69,61.601l.321-.043.321.62-.08.937-.711-.346-.229-1.024.378-.144ZM237.598,146.818l.172.404-.734.678-.699-.072-.103-.36,1.02-.764.344.115ZM244.488,140.43l-.367-.029-.608-.404.218-.995.608.332.218.332-.069.764ZM185.068,207.061l-.08.36-.413.173-.493.606.103-1.139.768-.418.115.418ZM240.017,101.542l.034.663.39-.029.378.606-.252.476-.344-.634-.665-.231.092-.606.367-.245ZM219.737,189.095l-.676.36-.138-.288-.504-.202.917-.735.218.144.183.721ZM284.889,27.543l-.413,1.226-.619-.043v-.663l.504-.433.527-.087ZM221.479,189.268l.413.288-.447.62-.527.433-.665.101.378-.793.848-.649ZM217.616,187.076l-.447-.231-.206-.822.367-.519.493.577-.206.995ZM232.21,108.723l.321.418-1.559.375.183-.62,1.055-.173ZM277.586,12.965l.699.317-.631,1.255-.195-1.024.126-.548ZM150.56,147.842l.252.692-1.101.519-.092-.577.367-.49.573-.144ZM192.027,189.643l-.424.26-.688-.649.803-.216.31.606ZM275.603,18.718l-.871.144-.298-.692.252-.274.86.418.057.404ZM208.215,222.302l.31.115.023.591-.803.49-.206-.779.676-.418ZM246.46,135.802l-.069.317.573.75-.952-.346-.218-.375.252-.534.413.187ZM221.021,203.269l-.562.202-.206-.433.711-.62.424.101-.367.75ZM227.785,185.432l-.218.562-.631.562.069-.735.493-.49.287.101ZM286.586,20.896l.631.231-.057.447-.367.072-.871-.404.665-.346ZM233.402,104.959l.355.461-1.181.418-.516-.36.745-.303.355.159.241-.375ZM214.314,210.666l.092.303-.264.49-.504.087-.367-.274.493-.433.55-.173ZM275.098,67.08l-.16-.692.596.029-.436.663ZM209.316,220.99l-1.055,1.009.034-.649.344-.288.676-.072ZM270.272,57.117l.55-.029.023.634-.516.043-.31-.332.252-.317ZM223.749,190.926l.413.187-.94.447.241-.562.287-.072ZM245.818,136.523l-.504.072-.608-.519.47-.13.642.577ZM234.56,151.187l.344.591-.436.245-.344-.346.011-.389.424-.101ZM233.46,113.683l-.78.75-.103-.519.883-.231ZM212.812,211.214l.092-.62.447.159-.539.461ZM282.206,44.543l.952-.029-.298.461-.653-.433ZM278.549,59.654l-.39-.087.321-.548.436.202-.367.433ZM232.382,148.029l-.206-.418.355-.173.355.288-.504.303ZM271.212,28.134l-.138.562-.436-.332.573-.231Z"/>
  </g>
</svg>